%TF.GenerationSoftware,KiCad,Pcbnew,(5.1.7)-1*%
%TF.CreationDate,2021-07-10T09:41:01+01:00*%
%TF.ProjectId,Apricot-Floppy-Controller-daughter-board,41707269-636f-4742-9d46-6c6f7070792d,rev?*%
%TF.SameCoordinates,Original*%
%TF.FileFunction,Copper,L1,Top*%
%TF.FilePolarity,Positive*%
%FSLAX46Y46*%
G04 Gerber Fmt 4.6, Leading zero omitted, Abs format (unit mm)*
G04 Created by KiCad (PCBNEW (5.1.7)-1) date 2021-07-10 09:41:01*
%MOMM*%
%LPD*%
G01*
G04 APERTURE LIST*
%TA.AperFunction,ComponentPad*%
%ADD10O,1.600000X1.600000*%
%TD*%
%TA.AperFunction,ComponentPad*%
%ADD11C,1.600000*%
%TD*%
%TA.AperFunction,ComponentPad*%
%ADD12R,1.600000X1.600000*%
%TD*%
%TA.AperFunction,ComponentPad*%
%ADD13O,1.700000X1.700000*%
%TD*%
%TA.AperFunction,ComponentPad*%
%ADD14R,1.700000X1.700000*%
%TD*%
%TA.AperFunction,ViaPad*%
%ADD15C,0.800000*%
%TD*%
%TA.AperFunction,Conductor*%
%ADD16C,0.250000*%
%TD*%
%TA.AperFunction,Conductor*%
%ADD17C,0.254000*%
%TD*%
%TA.AperFunction,Conductor*%
%ADD18C,0.100000*%
%TD*%
G04 APERTURE END LIST*
%TO.P,C3,2*%
%TO.N,GND*%
%TA.AperFunction,SMDPad,CuDef*%
G36*
G01*
X79038000Y-130895000D02*
X79038000Y-130345000D01*
G75*
G02*
X79238000Y-130145000I200000J0D01*
G01*
X79638000Y-130145000D01*
G75*
G02*
X79838000Y-130345000I0J-200000D01*
G01*
X79838000Y-130895000D01*
G75*
G02*
X79638000Y-131095000I-200000J0D01*
G01*
X79238000Y-131095000D01*
G75*
G02*
X79038000Y-130895000I0J200000D01*
G01*
G37*
%TD.AperFunction*%
%TO.P,C3,1*%
%TO.N,VCC*%
%TA.AperFunction,SMDPad,CuDef*%
G36*
G01*
X77388000Y-130895000D02*
X77388000Y-130345000D01*
G75*
G02*
X77588000Y-130145000I200000J0D01*
G01*
X77988000Y-130145000D01*
G75*
G02*
X78188000Y-130345000I0J-200000D01*
G01*
X78188000Y-130895000D01*
G75*
G02*
X77988000Y-131095000I-200000J0D01*
G01*
X77588000Y-131095000D01*
G75*
G02*
X77388000Y-130895000I0J200000D01*
G01*
G37*
%TD.AperFunction*%
%TD*%
%TO.P,C2,2*%
%TO.N,GND*%
%TA.AperFunction,SMDPad,CuDef*%
G36*
G01*
X106407000Y-92921500D02*
X106407000Y-92371500D01*
G75*
G02*
X106607000Y-92171500I200000J0D01*
G01*
X107007000Y-92171500D01*
G75*
G02*
X107207000Y-92371500I0J-200000D01*
G01*
X107207000Y-92921500D01*
G75*
G02*
X107007000Y-93121500I-200000J0D01*
G01*
X106607000Y-93121500D01*
G75*
G02*
X106407000Y-92921500I0J200000D01*
G01*
G37*
%TD.AperFunction*%
%TO.P,C2,1*%
%TO.N,VCC*%
%TA.AperFunction,SMDPad,CuDef*%
G36*
G01*
X104757000Y-92921500D02*
X104757000Y-92371500D01*
G75*
G02*
X104957000Y-92171500I200000J0D01*
G01*
X105357000Y-92171500D01*
G75*
G02*
X105557000Y-92371500I0J-200000D01*
G01*
X105557000Y-92921500D01*
G75*
G02*
X105357000Y-93121500I-200000J0D01*
G01*
X104957000Y-93121500D01*
G75*
G02*
X104757000Y-92921500I0J200000D01*
G01*
G37*
%TD.AperFunction*%
%TD*%
%TO.P,C1,2*%
%TO.N,GND*%
%TA.AperFunction,SMDPad,CuDef*%
G36*
G01*
X80943000Y-92223000D02*
X80943000Y-91673000D01*
G75*
G02*
X81143000Y-91473000I200000J0D01*
G01*
X81543000Y-91473000D01*
G75*
G02*
X81743000Y-91673000I0J-200000D01*
G01*
X81743000Y-92223000D01*
G75*
G02*
X81543000Y-92423000I-200000J0D01*
G01*
X81143000Y-92423000D01*
G75*
G02*
X80943000Y-92223000I0J200000D01*
G01*
G37*
%TD.AperFunction*%
%TO.P,C1,1*%
%TO.N,VCC*%
%TA.AperFunction,SMDPad,CuDef*%
G36*
G01*
X79293000Y-92223000D02*
X79293000Y-91673000D01*
G75*
G02*
X79493000Y-91473000I200000J0D01*
G01*
X79893000Y-91473000D01*
G75*
G02*
X80093000Y-91673000I0J-200000D01*
G01*
X80093000Y-92223000D01*
G75*
G02*
X79893000Y-92423000I-200000J0D01*
G01*
X79493000Y-92423000D01*
G75*
G02*
X79293000Y-92223000I0J200000D01*
G01*
G37*
%TD.AperFunction*%
%TD*%
D10*
%TO.P,R1,2*%
%TO.N,GND*%
X128714000Y-95377000D03*
D11*
%TO.P,R1,1*%
%TO.N,5-8*%
X128714000Y-102997000D03*
%TD*%
D10*
%TO.P,U4,14*%
%TO.N,VCC*%
X105092000Y-95440000D03*
%TO.P,U4,7*%
%TO.N,GND*%
X120332000Y-103060000D03*
%TO.P,U4,13*%
%TO.N,N/C*%
X107632000Y-95440000D03*
%TO.P,U4,6*%
X117792000Y-103060000D03*
%TO.P,U4,12*%
X110172000Y-95440000D03*
%TO.P,U4,5*%
X115252000Y-103060000D03*
%TO.P,U4,11*%
X112712000Y-95440000D03*
%TO.P,U4,4*%
X112712000Y-103060000D03*
%TO.P,U4,10*%
X115252000Y-95440000D03*
%TO.P,U4,3*%
%TO.N,STEP*%
X110172000Y-103060000D03*
%TO.P,U4,9*%
%TO.N,N/C*%
X117792000Y-95440000D03*
%TO.P,U4,2*%
%TO.N,RSTSTEP*%
X107632000Y-103060000D03*
%TO.P,U4,8*%
%TO.N,N/C*%
X120332000Y-95440000D03*
D12*
%TO.P,U4,1*%
%TO.N,CTRLSTEP*%
X105092000Y-103060000D03*
%TD*%
D10*
%TO.P,U3,8*%
%TO.N,VCC*%
X77914500Y-134302000D03*
%TO.P,U3,4*%
%TO.N,GND*%
X85534500Y-141922000D03*
%TO.P,U3,7*%
%TO.N,CTRLRDY*%
X80454500Y-134302000D03*
%TO.P,U3,3*%
%TO.N,_FLPSELDRV0*%
X82994500Y-141922000D03*
%TO.P,U3,6*%
%TO.N,RSTSTEP*%
X82994500Y-134302000D03*
%TO.P,U3,2*%
%TO.N,DRVRDY*%
X80454500Y-141922000D03*
%TO.P,U3,5*%
%TO.N,_FLPMOTORON*%
X85534500Y-134302000D03*
D12*
%TO.P,U3,1*%
%TO.N,Net-(U3-Pad1)*%
X77914500Y-141922000D03*
%TD*%
D10*
%TO.P,U2,14*%
%TO.N,VCC*%
X79692500Y-95440000D03*
%TO.P,U2,7*%
%TO.N,GND*%
X94932500Y-103060000D03*
%TO.P,U2,13*%
%TO.N,N/C*%
X82232500Y-95440000D03*
%TO.P,U2,6*%
%TO.N,GND*%
X92392500Y-103060000D03*
%TO.P,U2,12*%
%TO.N,N/C*%
X84772500Y-95440000D03*
%TO.P,U2,5*%
%TO.N,FEEDBCK*%
X89852500Y-103060000D03*
%TO.P,U2,11*%
%TO.N,N/C*%
X87312500Y-95440000D03*
%TO.P,U2,4*%
%TO.N,GND*%
X87312500Y-103060000D03*
%TO.P,U2,10*%
%TO.N,N/C*%
X89852500Y-95440000D03*
%TO.P,U2,3*%
%TO.N,CLK2M*%
X84772500Y-103060000D03*
%TO.P,U2,9*%
%TO.N,N/C*%
X92392500Y-95440000D03*
%TO.P,U2,2*%
%TO.N,FEEDBCK*%
X82232500Y-103060000D03*
%TO.P,U2,8*%
%TO.N,N/C*%
X94932500Y-95440000D03*
D12*
%TO.P,U2,1*%
%TO.N,CLK1M*%
X79692500Y-103060000D03*
%TD*%
D10*
%TO.P,U1,40*%
%TO.N,HLT*%
X77787500Y-110744000D03*
%TO.P,U1,20*%
%TO.N,GND*%
X126047500Y-125984000D03*
%TO.P,U1,39*%
%TO.N,INTRQ*%
X80327500Y-110744000D03*
%TO.P,U1,19*%
%TO.N,MR*%
X123507500Y-125984000D03*
%TO.P,U1,38*%
%TO.N,DRQ*%
X82867500Y-110744000D03*
%TO.P,U1,18*%
%TO.N,RPW*%
X120967500Y-125984000D03*
%TO.P,U1,37*%
%TO.N,DDEN*%
X85407500Y-110744000D03*
%TO.P,U1,17*%
%TO.N,5-8*%
X118427500Y-125984000D03*
%TO.P,U1,36*%
%TO.N,WPRT*%
X87947500Y-110744000D03*
%TO.P,U1,16*%
%TO.N,DIRC*%
X115887500Y-125984000D03*
%TO.P,U1,35*%
%TO.N,IP*%
X90487500Y-110744000D03*
%TO.P,U1,15*%
%TO.N,CTRLSTEP*%
X113347500Y-125984000D03*
%TO.P,U1,34*%
%TO.N,TR00*%
X93027500Y-110744000D03*
%TO.P,U1,14*%
%TO.N,DAL7*%
X110807500Y-125984000D03*
%TO.P,U1,33*%
%TO.N,WPW*%
X95567500Y-110744000D03*
%TO.P,U1,13*%
%TO.N,DAL6*%
X108267500Y-125984000D03*
%TO.P,U1,32*%
%TO.N,CTRLRDY*%
X98107500Y-110744000D03*
%TO.P,U1,12*%
%TO.N,DAL5*%
X105727500Y-125984000D03*
%TO.P,U1,31*%
%TO.N,WD*%
X100647500Y-110744000D03*
%TO.P,U1,11*%
%TO.N,DAL4*%
X103187500Y-125984000D03*
%TO.P,U1,30*%
%TO.N,WG*%
X103187500Y-110744000D03*
%TO.P,U1,10*%
%TO.N,DAL3*%
X100647500Y-125984000D03*
%TO.P,U1,29*%
%TO.N,TG43*%
X105727500Y-110744000D03*
%TO.P,U1,9*%
%TO.N,DAL2*%
X98107500Y-125984000D03*
%TO.P,U1,28*%
%TO.N,HLD*%
X108267500Y-110744000D03*
%TO.P,U1,8*%
%TO.N,DAL1*%
X95567500Y-125984000D03*
%TO.P,U1,27*%
%TO.N,RAW_READ*%
X110807500Y-110744000D03*
%TO.P,U1,7*%
%TO.N,DAL0*%
X93027500Y-125984000D03*
%TO.P,U1,26*%
%TO.N,VCO*%
X113347500Y-110744000D03*
%TO.P,U1,6*%
%TO.N,A1*%
X90487500Y-125984000D03*
%TO.P,U1,25*%
%TO.N,SSO*%
X115887500Y-110744000D03*
%TO.P,U1,5*%
%TO.N,A0*%
X87947500Y-125984000D03*
%TO.P,U1,24*%
%TO.N,CLK1M*%
X118427500Y-110744000D03*
%TO.P,U1,4*%
%TO.N,RE*%
X85407500Y-125984000D03*
%TO.P,U1,23*%
%TO.N,PUMP*%
X120967500Y-110744000D03*
%TO.P,U1,3*%
%TO.N,CS*%
X82867500Y-125984000D03*
%TO.P,U1,22*%
%TO.N,TEST*%
X123507500Y-110744000D03*
%TO.P,U1,2*%
%TO.N,WE*%
X80327500Y-125984000D03*
%TO.P,U1,21*%
%TO.N,VCC*%
X126047500Y-110744000D03*
D12*
%TO.P,U1,1*%
%TO.N,ENP*%
X77787500Y-125984000D03*
%TD*%
D10*
%TO.P,Socket-1,40*%
%TO.N,HLT*%
X150552000Y-59297000D03*
%TO.P,Socket-1,20*%
%TO.N,GND*%
X135312000Y-107557000D03*
%TO.P,Socket-1,39*%
%TO.N,INTRQ*%
X150552000Y-61837000D03*
%TO.P,Socket-1,19*%
%TO.N,MR*%
X135312000Y-105017000D03*
%TO.P,Socket-1,38*%
%TO.N,DRQ*%
X150552000Y-64377000D03*
%TO.P,Socket-1,18*%
%TO.N,RPW*%
X135312000Y-102477000D03*
%TO.P,Socket-1,37*%
%TO.N,DDEN*%
X150552000Y-66917000D03*
%TO.P,Socket-1,17*%
%TO.N,5-8*%
X135312000Y-99937000D03*
%TO.P,Socket-1,36*%
%TO.N,WPRT*%
X150552000Y-69457000D03*
%TO.P,Socket-1,16*%
%TO.N,DIRC*%
X135312000Y-97397000D03*
%TO.P,Socket-1,35*%
%TO.N,IP*%
X150552000Y-71997000D03*
%TO.P,Socket-1,15*%
%TO.N,STEP*%
X135312000Y-94857000D03*
%TO.P,Socket-1,34*%
%TO.N,TR00*%
X150552000Y-74537000D03*
%TO.P,Socket-1,14*%
%TO.N,DAL7*%
X135312000Y-92317000D03*
%TO.P,Socket-1,33*%
%TO.N,WPW*%
X150552000Y-77077000D03*
%TO.P,Socket-1,13*%
%TO.N,DAL6*%
X135312000Y-89777000D03*
%TO.P,Socket-1,32*%
%TO.N,DRVRDY*%
X150552000Y-79617000D03*
%TO.P,Socket-1,12*%
%TO.N,DAL5*%
X135312000Y-87237000D03*
%TO.P,Socket-1,31*%
%TO.N,WD*%
X150552000Y-82157000D03*
%TO.P,Socket-1,11*%
%TO.N,DAL4*%
X135312000Y-84697000D03*
%TO.P,Socket-1,30*%
%TO.N,WG*%
X150552000Y-84697000D03*
%TO.P,Socket-1,10*%
%TO.N,DAL3*%
X135312000Y-82157000D03*
%TO.P,Socket-1,29*%
%TO.N,TG43*%
X150552000Y-87237000D03*
%TO.P,Socket-1,9*%
%TO.N,DAL2*%
X135312000Y-79617000D03*
%TO.P,Socket-1,28*%
%TO.N,HLD*%
X150552000Y-89777000D03*
%TO.P,Socket-1,8*%
%TO.N,DAL1*%
X135312000Y-77077000D03*
%TO.P,Socket-1,27*%
%TO.N,RAW_READ*%
X150552000Y-92317000D03*
%TO.P,Socket-1,7*%
%TO.N,DAL0*%
X135312000Y-74537000D03*
%TO.P,Socket-1,26*%
%TO.N,VCO*%
X150552000Y-94857000D03*
%TO.P,Socket-1,6*%
%TO.N,A1*%
X135312000Y-71997000D03*
%TO.P,Socket-1,25*%
%TO.N,SSO*%
X150552000Y-97397000D03*
%TO.P,Socket-1,5*%
%TO.N,A0*%
X135312000Y-69457000D03*
%TO.P,Socket-1,24*%
%TO.N,CLK2M*%
X150552000Y-99937000D03*
%TO.P,Socket-1,4*%
%TO.N,RE*%
X135312000Y-66917000D03*
%TO.P,Socket-1,23*%
%TO.N,PUMP*%
X150552000Y-102477000D03*
%TO.P,Socket-1,3*%
%TO.N,CS*%
X135312000Y-64377000D03*
%TO.P,Socket-1,22*%
%TO.N,TEST*%
X150552000Y-105017000D03*
%TO.P,Socket-1,2*%
%TO.N,WE*%
X135312000Y-61837000D03*
%TO.P,Socket-1,21*%
%TO.N,VCC*%
X150552000Y-107557000D03*
D12*
%TO.P,Socket-1,1*%
%TO.N,ENP*%
X135312000Y-59297000D03*
%TD*%
D13*
%TO.P,J2,3*%
%TO.N,Net-(J2-Pad3)*%
X103505000Y-140398000D03*
%TO.P,J2,2*%
%TO.N,_FLPSELDRV0*%
X103505000Y-137858000D03*
D14*
%TO.P,J2,1*%
%TO.N,_FLPMOTORON*%
X103505000Y-135318000D03*
%TD*%
D15*
%TO.N,CLK2M*%
X133793900Y-61181500D03*
%TO.N,GND*%
X105984000Y-91823500D03*
X137613900Y-93722800D03*
X81597500Y-117094000D03*
X81597500Y-106553000D03*
X87335400Y-98910100D03*
X94361000Y-92773500D03*
X108458000Y-134747000D03*
X123126500Y-100457000D03*
X152971500Y-109029500D03*
X143192500Y-104902000D03*
X142938500Y-101282500D03*
X142684500Y-97218500D03*
X145796000Y-89789000D03*
X145859500Y-87185500D03*
X145859500Y-84772500D03*
X145859500Y-82232500D03*
X142430500Y-79565500D03*
X142430500Y-76962000D03*
X142430500Y-74485500D03*
X142367000Y-71882000D03*
X142367000Y-69342000D03*
X142367000Y-66865500D03*
X142303500Y-64389000D03*
X142303500Y-61658500D03*
X142367000Y-58928000D03*
X131699000Y-64325500D03*
X125476000Y-117919500D03*
X85915500Y-128333500D03*
X117856000Y-106108500D03*
%TO.N,WD*%
X100963500Y-106114200D03*
%TO.N,HLD*%
X113982000Y-100663700D03*
%TO.N,VCO*%
X131747900Y-92755900D03*
%TO.N,A0*%
X91902100Y-113181800D03*
X101710900Y-96574500D03*
%TD*%
D16*
%TO.N,CLK2M*%
X150552000Y-98811700D02*
X150270600Y-98811700D01*
X150270600Y-98811700D02*
X138788400Y-87329500D01*
X138788400Y-87329500D02*
X138788400Y-63686900D01*
X138788400Y-63686900D02*
X135795000Y-60693500D01*
X135795000Y-60693500D02*
X134281900Y-60693500D01*
X134281900Y-60693500D02*
X133793900Y-61181500D01*
X150552000Y-99937000D02*
X150552000Y-98811700D01*
%TO.N,CTRLRDY*%
X80454500Y-134302000D02*
X80454500Y-133176700D01*
X98107500Y-110744000D02*
X98107500Y-111869300D01*
X98107500Y-111869300D02*
X97826200Y-111869300D01*
X97826200Y-111869300D02*
X84137500Y-125558000D01*
X84137500Y-125558000D02*
X84137500Y-129493700D01*
X84137500Y-129493700D02*
X80454500Y-133176700D01*
%TO.N,GND*%
X106807000Y-92646500D02*
X105984000Y-91823500D01*
X92392500Y-103060000D02*
X94932500Y-103060000D01*
X87312500Y-104185300D02*
X90405800Y-104185300D01*
X90405800Y-104185300D02*
X91338000Y-103253100D01*
X91338000Y-103253100D02*
X91338000Y-103060000D01*
X79438000Y-130620000D02*
X79188700Y-130370700D01*
X79188700Y-130370700D02*
X79188700Y-117191100D01*
X79188700Y-117191100D02*
X84137500Y-112242300D01*
X84137500Y-112242300D02*
X84137500Y-107360300D01*
X84137500Y-107360300D02*
X87312500Y-104185300D01*
X87312500Y-103060000D02*
X87312500Y-104185300D01*
X85534500Y-140796700D02*
X85253200Y-140796700D01*
X85253200Y-140796700D02*
X79280900Y-134824400D01*
X79280900Y-134824400D02*
X79280900Y-130777100D01*
X79280900Y-130777100D02*
X79438000Y-130620000D01*
X91338000Y-103060000D02*
X91338000Y-102912700D01*
X91338000Y-102912700D02*
X87335400Y-98910100D01*
X85363600Y-96938300D02*
X84614100Y-96938300D01*
X84614100Y-96938300D02*
X83502500Y-95826700D01*
X83502500Y-95826700D02*
X83502500Y-94107500D01*
X83502500Y-94107500D02*
X81343000Y-91948000D01*
X92392500Y-103060000D02*
X91338000Y-103060000D01*
X127588700Y-95377000D02*
X126889700Y-95377000D01*
X126889700Y-95377000D02*
X120332000Y-101934700D01*
X120332000Y-103060000D02*
X120332000Y-101934700D01*
X128714000Y-95377000D02*
X127588700Y-95377000D01*
X85534500Y-141922000D02*
X85534500Y-140796700D01*
X135312000Y-106431700D02*
X135593300Y-106431700D01*
X135593300Y-106431700D02*
X137613900Y-104411100D01*
X137613900Y-104411100D02*
X137613900Y-93722800D01*
X135312000Y-107557000D02*
X135312000Y-106431700D01*
X126047500Y-125984000D02*
X126047500Y-124858700D01*
X135312000Y-107557000D02*
X134186700Y-107557000D01*
X134186700Y-107557000D02*
X131942300Y-107557000D01*
X131942300Y-107557000D02*
X129199300Y-110300000D01*
X129199300Y-110300000D02*
X129199300Y-121706900D01*
X129199300Y-121706900D02*
X126047500Y-124858700D01*
X87335400Y-98910100D02*
X85363600Y-96938300D01*
%TO.N,MR*%
X135312000Y-105017000D02*
X133845400Y-105017000D01*
X133845400Y-105017000D02*
X128749000Y-110113400D01*
X128749000Y-110113400D02*
X128749000Y-119617200D01*
X128749000Y-119617200D02*
X123507500Y-124858700D01*
X123507500Y-125984000D02*
X123507500Y-124858700D01*
%TO.N,RPW*%
X135312000Y-103602300D02*
X134623200Y-103602300D01*
X134623200Y-103602300D02*
X128298700Y-109926800D01*
X128298700Y-109926800D02*
X128298700Y-117527500D01*
X128298700Y-117527500D02*
X120967500Y-124858700D01*
X120967500Y-125984000D02*
X120967500Y-124858700D01*
X135312000Y-102477000D02*
X135312000Y-103602300D01*
%TO.N,DIRC*%
X135312000Y-98522300D02*
X135125200Y-98522300D01*
X135125200Y-98522300D02*
X133736400Y-99911100D01*
X133736400Y-99911100D02*
X133736400Y-103852200D01*
X133736400Y-103852200D02*
X127848400Y-109740200D01*
X127848400Y-109740200D02*
X127848400Y-112897800D01*
X127848400Y-112897800D02*
X115887500Y-124858700D01*
X115887500Y-125984000D02*
X115887500Y-124858700D01*
X135312000Y-97397000D02*
X135312000Y-98522300D01*
%TO.N,DAL7*%
X110807500Y-125984000D02*
X111932800Y-125984000D01*
X135312000Y-92317000D02*
X135312000Y-93442300D01*
X135312000Y-93442300D02*
X135135200Y-93442300D01*
X135135200Y-93442300D02*
X134186600Y-94390900D01*
X134186600Y-94390900D02*
X134186600Y-96570100D01*
X134186600Y-96570100D02*
X131722100Y-99034600D01*
X131722100Y-99034600D02*
X131722100Y-103948100D01*
X131722100Y-103948100D02*
X127398000Y-108272200D01*
X127398000Y-108272200D02*
X127398000Y-111038300D01*
X127398000Y-111038300D02*
X113577600Y-124858700D01*
X113577600Y-124858700D02*
X112776700Y-124858700D01*
X112776700Y-124858700D02*
X111932800Y-125702600D01*
X111932800Y-125702600D02*
X111932800Y-125984000D01*
%TO.N,DAL6*%
X109392800Y-125984000D02*
X109392800Y-125702600D01*
X109392800Y-125702600D02*
X110236700Y-124858700D01*
X110236700Y-124858700D02*
X110990300Y-124858700D01*
X110990300Y-124858700D02*
X124777500Y-111071500D01*
X124777500Y-111071500D02*
X124777500Y-104956800D01*
X124777500Y-104956800D02*
X133736300Y-95998000D01*
X133736300Y-95998000D02*
X133736300Y-93704000D01*
X133736300Y-93704000D02*
X133824100Y-93616200D01*
X133824100Y-93616200D02*
X133824100Y-92108900D01*
X133824100Y-92108900D02*
X135030700Y-90902300D01*
X135030700Y-90902300D02*
X135312000Y-90902300D01*
X108267500Y-125984000D02*
X109392800Y-125984000D01*
X135312000Y-89777000D02*
X135312000Y-90902300D01*
%TO.N,DAL5*%
X106852800Y-125984000D02*
X106852800Y-125702600D01*
X106852800Y-125702600D02*
X107696700Y-124858700D01*
X107696700Y-124858700D02*
X108450300Y-124858700D01*
X108450300Y-124858700D02*
X122237500Y-111071500D01*
X122237500Y-111071500D02*
X122237500Y-106859900D01*
X122237500Y-106859900D02*
X132976000Y-96121400D01*
X132976000Y-96121400D02*
X132976000Y-93827400D01*
X132976000Y-93827400D02*
X133373800Y-93429600D01*
X133373800Y-93429600D02*
X133373800Y-90019200D01*
X133373800Y-90019200D02*
X135030700Y-88362300D01*
X135030700Y-88362300D02*
X135312000Y-88362300D01*
X105727500Y-125984000D02*
X106852800Y-125984000D01*
X135312000Y-87237000D02*
X135312000Y-88362300D01*
%TO.N,WD*%
X100647500Y-110744000D02*
X100647500Y-106430200D01*
X100647500Y-106430200D02*
X100963500Y-106114200D01*
%TO.N,DAL4*%
X104312800Y-125984000D02*
X104312800Y-125702600D01*
X104312800Y-125702600D02*
X105156700Y-124858700D01*
X105156700Y-124858700D02*
X105910300Y-124858700D01*
X105910300Y-124858700D02*
X119697500Y-111071500D01*
X119697500Y-111071500D02*
X119697500Y-108763000D01*
X119697500Y-108763000D02*
X132525700Y-95934800D01*
X132525700Y-95934800D02*
X132525700Y-93640800D01*
X132525700Y-93640800D02*
X132923500Y-93243000D01*
X132923500Y-93243000D02*
X132923500Y-87960500D01*
X132923500Y-87960500D02*
X135061700Y-85822300D01*
X135061700Y-85822300D02*
X135312000Y-85822300D01*
X103187500Y-125984000D02*
X104312800Y-125984000D01*
X135312000Y-84697000D02*
X135312000Y-85822300D01*
%TO.N,DAL3*%
X101772800Y-125984000D02*
X101772800Y-125702600D01*
X101772800Y-125702600D02*
X102616700Y-124858700D01*
X102616700Y-124858700D02*
X103370300Y-124858700D01*
X103370300Y-124858700D02*
X117157500Y-111071500D01*
X117157500Y-111071500D02*
X117157500Y-109242400D01*
X117157500Y-109242400D02*
X132075400Y-94324500D01*
X132075400Y-94324500D02*
X132075400Y-93454200D01*
X132075400Y-93454200D02*
X132473200Y-93056400D01*
X132473200Y-93056400D02*
X132473200Y-85839800D01*
X132473200Y-85839800D02*
X135030700Y-83282300D01*
X135030700Y-83282300D02*
X135312000Y-83282300D01*
X100647500Y-125984000D02*
X101772800Y-125984000D01*
X135312000Y-82157000D02*
X135312000Y-83282300D01*
%TO.N,DAL2*%
X98107500Y-125984000D02*
X98107500Y-124858700D01*
X135312000Y-79617000D02*
X135312000Y-80742300D01*
X135312000Y-80742300D02*
X135030700Y-80742300D01*
X135030700Y-80742300D02*
X125086900Y-90686100D01*
X125086900Y-90686100D02*
X125086900Y-94926800D01*
X125086900Y-94926800D02*
X118989000Y-101024700D01*
X118989000Y-101024700D02*
X118989000Y-103457600D01*
X118989000Y-103457600D02*
X112077500Y-110369100D01*
X112077500Y-110369100D02*
X112077500Y-111170000D01*
X112077500Y-111170000D02*
X98388800Y-124858700D01*
X98388800Y-124858700D02*
X98107500Y-124858700D01*
%TO.N,HLD*%
X108267500Y-109618700D02*
X113982000Y-103904200D01*
X113982000Y-103904200D02*
X113982000Y-100663700D01*
X108267500Y-110744000D02*
X108267500Y-109618700D01*
%TO.N,DAL1*%
X95567500Y-125984000D02*
X95567500Y-124858700D01*
X135312000Y-77077000D02*
X135312000Y-78202300D01*
X135312000Y-78202300D02*
X135030700Y-78202300D01*
X135030700Y-78202300D02*
X122030100Y-91202900D01*
X122030100Y-91202900D02*
X122030100Y-96273700D01*
X122030100Y-96273700D02*
X116645000Y-101658800D01*
X116645000Y-101658800D02*
X116645000Y-103298700D01*
X116645000Y-103298700D02*
X109537500Y-110406200D01*
X109537500Y-110406200D02*
X109537500Y-111170000D01*
X109537500Y-111170000D02*
X95848800Y-124858700D01*
X95848800Y-124858700D02*
X95567500Y-124858700D01*
%TO.N,DAL0*%
X93027500Y-125984000D02*
X93027500Y-124858700D01*
X135312000Y-74537000D02*
X135312000Y-75662300D01*
X135312000Y-75662300D02*
X135030700Y-75662300D01*
X135030700Y-75662300D02*
X116522000Y-94171000D01*
X116522000Y-94171000D02*
X116522000Y-95768400D01*
X116522000Y-95768400D02*
X111442000Y-100848400D01*
X111442000Y-100848400D02*
X111442000Y-104270300D01*
X111442000Y-104270300D02*
X106997500Y-108714800D01*
X106997500Y-108714800D02*
X106997500Y-111170000D01*
X106997500Y-111170000D02*
X93308800Y-124858700D01*
X93308800Y-124858700D02*
X93027500Y-124858700D01*
%TO.N,VCO*%
X113347500Y-110744000D02*
X114472800Y-110744000D01*
X131747900Y-92755900D02*
X130891500Y-93612300D01*
X130891500Y-93612300D02*
X130891500Y-94791100D01*
X130891500Y-94791100D02*
X116063900Y-109618700D01*
X116063900Y-109618700D02*
X115316700Y-109618700D01*
X115316700Y-109618700D02*
X114472800Y-110462600D01*
X114472800Y-110462600D02*
X114472800Y-110744000D01*
%TO.N,A1*%
X90487500Y-125984000D02*
X90487500Y-124858700D01*
X135312000Y-71997000D02*
X135312000Y-73122300D01*
X135312000Y-73122300D02*
X135030700Y-73122300D01*
X135030700Y-73122300D02*
X113982000Y-94171000D01*
X113982000Y-94171000D02*
X113982000Y-96813200D01*
X113982000Y-96813200D02*
X109046600Y-101748600D01*
X109046600Y-101748600D02*
X109046600Y-104395100D01*
X109046600Y-104395100D02*
X104457500Y-108984200D01*
X104457500Y-108984200D02*
X104457500Y-111170000D01*
X104457500Y-111170000D02*
X90768800Y-124858700D01*
X90768800Y-124858700D02*
X90487500Y-124858700D01*
%TO.N,A0*%
X91902100Y-113181800D02*
X91902100Y-110069200D01*
X91902100Y-110069200D02*
X101710900Y-100260400D01*
X101710900Y-100260400D02*
X101710900Y-96574500D01*
%TO.N,RE*%
X135312000Y-66917000D02*
X135312000Y-68042300D01*
X135312000Y-68042300D02*
X135039700Y-68042300D01*
X135039700Y-68042300D02*
X111442000Y-91640000D01*
X111442000Y-91640000D02*
X111442000Y-95781900D01*
X111442000Y-95781900D02*
X105814000Y-101409900D01*
X105814000Y-101409900D02*
X104641800Y-101409900D01*
X104641800Y-101409900D02*
X99284200Y-106767500D01*
X99284200Y-106767500D02*
X99284200Y-112107300D01*
X99284200Y-112107300D02*
X85407500Y-125984000D01*
%TO.N,CS*%
X82867500Y-125984000D02*
X82867500Y-124858700D01*
X135312000Y-64377000D02*
X135312000Y-65502300D01*
X135312000Y-65502300D02*
X135030700Y-65502300D01*
X135030700Y-65502300D02*
X130458300Y-70074700D01*
X130458300Y-70074700D02*
X130458300Y-71986800D01*
X130458300Y-71986800D02*
X108902000Y-93543100D01*
X108902000Y-93543100D02*
X108902000Y-96233500D01*
X108902000Y-96233500D02*
X96836800Y-108298700D01*
X96836800Y-108298700D02*
X96836800Y-111170700D01*
X96836800Y-111170700D02*
X83148800Y-124858700D01*
X83148800Y-124858700D02*
X82867500Y-124858700D01*
%TO.N,WE*%
X80327500Y-124858700D02*
X81251000Y-124858700D01*
X81251000Y-124858700D02*
X94206400Y-111903300D01*
X94206400Y-111903300D02*
X94206400Y-108618500D01*
X94206400Y-108618500D02*
X106333500Y-96491400D01*
X106333500Y-96491400D02*
X106333500Y-94350000D01*
X106333500Y-94350000D02*
X115278500Y-85405000D01*
X115278500Y-85405000D02*
X115278500Y-82714500D01*
X115278500Y-82714500D02*
X135030700Y-62962300D01*
X135030700Y-62962300D02*
X135312000Y-62962300D01*
X80327500Y-125984000D02*
X80327500Y-124858700D01*
X135312000Y-61837000D02*
X135312000Y-62962300D01*
%TO.N,VCC*%
X105092000Y-92646500D02*
X103581500Y-91136000D01*
X103581500Y-91136000D02*
X80505000Y-91136000D01*
X80505000Y-91136000D02*
X79693000Y-91948000D01*
X105157000Y-92646500D02*
X105092000Y-92646500D01*
X105092000Y-92646500D02*
X105092000Y-94314700D01*
X105092000Y-95440000D02*
X105092000Y-94314700D01*
X77914500Y-134302000D02*
X77914500Y-133176700D01*
X77914500Y-133176700D02*
X77788000Y-133050200D01*
X77788000Y-133050200D02*
X77788000Y-130620000D01*
X77788000Y-130620000D02*
X76623800Y-129455800D01*
X76623800Y-129455800D02*
X76623800Y-99634000D01*
X76623800Y-99634000D02*
X79692500Y-96565300D01*
X79692500Y-95440000D02*
X79692500Y-96565300D01*
X79692500Y-94314700D02*
X79693000Y-94314200D01*
X79693000Y-94314200D02*
X79693000Y-91948000D01*
X79692500Y-94877300D02*
X79692500Y-95440000D01*
X79692500Y-94877300D02*
X79692500Y-94314700D01*
%TO.N,FEEDBCK*%
X89852500Y-103060000D02*
X88727200Y-103060000D01*
X82232500Y-103060000D02*
X83357800Y-103060000D01*
X83357800Y-103060000D02*
X83357800Y-102778700D01*
X83357800Y-102778700D02*
X84201800Y-101934700D01*
X84201800Y-101934700D02*
X87883300Y-101934700D01*
X87883300Y-101934700D02*
X88727200Y-102778600D01*
X88727200Y-102778600D02*
X88727200Y-103060000D01*
%TO.N,RSTSTEP*%
X107632000Y-103060000D02*
X107632000Y-104185300D01*
X82994500Y-134302000D02*
X82994500Y-133176700D01*
X82994500Y-133176700D02*
X89072900Y-127098300D01*
X89072900Y-127098300D02*
X89072900Y-125139200D01*
X89072900Y-125139200D02*
X101917500Y-112294600D01*
X101917500Y-112294600D02*
X101917500Y-109899800D01*
X101917500Y-109899800D02*
X107632000Y-104185300D01*
%TD*%
D17*
%TO.N,GND*%
X153645001Y-109830000D02*
X130107201Y-109830000D01*
X132031162Y-107906039D01*
X133920096Y-107906039D01*
X133960754Y-108040087D01*
X134080963Y-108294420D01*
X134248481Y-108520414D01*
X134456869Y-108709385D01*
X134698119Y-108854070D01*
X134962960Y-108948909D01*
X135185000Y-108827624D01*
X135185000Y-107684000D01*
X135439000Y-107684000D01*
X135439000Y-108827624D01*
X135661040Y-108948909D01*
X135925881Y-108854070D01*
X136167131Y-108709385D01*
X136375519Y-108520414D01*
X136543037Y-108294420D01*
X136663246Y-108040087D01*
X136703904Y-107906039D01*
X136581915Y-107684000D01*
X135439000Y-107684000D01*
X135185000Y-107684000D01*
X134042085Y-107684000D01*
X133920096Y-107906039D01*
X132031162Y-107906039D01*
X134120491Y-105816711D01*
X134197363Y-105931759D01*
X134397241Y-106131637D01*
X134632273Y-106288680D01*
X134642865Y-106293067D01*
X134456869Y-106404615D01*
X134248481Y-106593586D01*
X134080963Y-106819580D01*
X133960754Y-107073913D01*
X133920096Y-107207961D01*
X134042085Y-107430000D01*
X135185000Y-107430000D01*
X135185000Y-107410000D01*
X135439000Y-107410000D01*
X135439000Y-107430000D01*
X136581915Y-107430000D01*
X136703904Y-107207961D01*
X136663246Y-107073913D01*
X136543037Y-106819580D01*
X136375519Y-106593586D01*
X136167131Y-106404615D01*
X135981135Y-106293067D01*
X135991727Y-106288680D01*
X136226759Y-106131637D01*
X136426637Y-105931759D01*
X136583680Y-105696727D01*
X136691853Y-105435574D01*
X136747000Y-105158335D01*
X136747000Y-104875665D01*
X136691853Y-104598426D01*
X136583680Y-104337273D01*
X136426637Y-104102241D01*
X136226759Y-103902363D01*
X136050833Y-103784813D01*
X136061003Y-103751286D01*
X136066158Y-103698947D01*
X136226759Y-103591637D01*
X136426637Y-103391759D01*
X136583680Y-103156727D01*
X136691853Y-102895574D01*
X136747000Y-102618335D01*
X136747000Y-102335665D01*
X136691853Y-102058426D01*
X136583680Y-101797273D01*
X136426637Y-101562241D01*
X136226759Y-101362363D01*
X135994241Y-101207000D01*
X136226759Y-101051637D01*
X136426637Y-100851759D01*
X136583680Y-100616727D01*
X136691853Y-100355574D01*
X136747000Y-100078335D01*
X136747000Y-99795665D01*
X136691853Y-99518426D01*
X136583680Y-99257273D01*
X136426637Y-99022241D01*
X136226759Y-98822363D01*
X136050833Y-98704813D01*
X136061003Y-98671286D01*
X136066158Y-98618947D01*
X136226759Y-98511637D01*
X136426637Y-98311759D01*
X136583680Y-98076727D01*
X136691853Y-97815574D01*
X136747000Y-97538335D01*
X136747000Y-97255665D01*
X136691853Y-96978426D01*
X136583680Y-96717273D01*
X136426637Y-96482241D01*
X136226759Y-96282363D01*
X135994241Y-96127000D01*
X136226759Y-95971637D01*
X136426637Y-95771759D01*
X136583680Y-95536727D01*
X136691853Y-95275574D01*
X136747000Y-94998335D01*
X136747000Y-94715665D01*
X136691853Y-94438426D01*
X136583680Y-94177273D01*
X136426637Y-93942241D01*
X136226759Y-93742363D01*
X136050833Y-93624813D01*
X136061003Y-93591286D01*
X136066158Y-93538947D01*
X136226759Y-93431637D01*
X136426637Y-93231759D01*
X136583680Y-92996727D01*
X136691853Y-92735574D01*
X136747000Y-92458335D01*
X136747000Y-92175665D01*
X136691853Y-91898426D01*
X136583680Y-91637273D01*
X136426637Y-91402241D01*
X136226759Y-91202363D01*
X136050833Y-91084813D01*
X136061003Y-91051286D01*
X136066158Y-90998947D01*
X136226759Y-90891637D01*
X136426637Y-90691759D01*
X136583680Y-90456727D01*
X136691853Y-90195574D01*
X136747000Y-89918335D01*
X136747000Y-89635665D01*
X136691853Y-89358426D01*
X136583680Y-89097273D01*
X136426637Y-88862241D01*
X136226759Y-88662363D01*
X136050833Y-88544813D01*
X136061003Y-88511286D01*
X136066158Y-88458947D01*
X136226759Y-88351637D01*
X136426637Y-88151759D01*
X136583680Y-87916727D01*
X136691853Y-87655574D01*
X136747000Y-87378335D01*
X136747000Y-87095665D01*
X136691853Y-86818426D01*
X136583680Y-86557273D01*
X136426637Y-86322241D01*
X136226759Y-86122363D01*
X136050833Y-86004813D01*
X136061003Y-85971286D01*
X136066158Y-85918947D01*
X136226759Y-85811637D01*
X136426637Y-85611759D01*
X136583680Y-85376727D01*
X136691853Y-85115574D01*
X136747000Y-84838335D01*
X136747000Y-84555665D01*
X136691853Y-84278426D01*
X136583680Y-84017273D01*
X136426637Y-83782241D01*
X136226759Y-83582363D01*
X136050833Y-83464813D01*
X136061003Y-83431286D01*
X136066158Y-83378947D01*
X136226759Y-83271637D01*
X136426637Y-83071759D01*
X136583680Y-82836727D01*
X136691853Y-82575574D01*
X136747000Y-82298335D01*
X136747000Y-82015665D01*
X136691853Y-81738426D01*
X136583680Y-81477273D01*
X136426637Y-81242241D01*
X136226759Y-81042363D01*
X136050833Y-80924813D01*
X136061003Y-80891286D01*
X136066158Y-80838947D01*
X136226759Y-80731637D01*
X136426637Y-80531759D01*
X136583680Y-80296727D01*
X136691853Y-80035574D01*
X136747000Y-79758335D01*
X136747000Y-79475665D01*
X136691853Y-79198426D01*
X136583680Y-78937273D01*
X136426637Y-78702241D01*
X136226759Y-78502363D01*
X136050833Y-78384813D01*
X136061003Y-78351286D01*
X136066158Y-78298947D01*
X136226759Y-78191637D01*
X136426637Y-77991759D01*
X136583680Y-77756727D01*
X136691853Y-77495574D01*
X136747000Y-77218335D01*
X136747000Y-76935665D01*
X136691853Y-76658426D01*
X136583680Y-76397273D01*
X136426637Y-76162241D01*
X136226759Y-75962363D01*
X136050833Y-75844813D01*
X136061003Y-75811286D01*
X136066158Y-75758947D01*
X136226759Y-75651637D01*
X136426637Y-75451759D01*
X136583680Y-75216727D01*
X136691853Y-74955574D01*
X136747000Y-74678335D01*
X136747000Y-74395665D01*
X136691853Y-74118426D01*
X136583680Y-73857273D01*
X136426637Y-73622241D01*
X136226759Y-73422363D01*
X136050833Y-73304813D01*
X136061003Y-73271286D01*
X136066158Y-73218947D01*
X136226759Y-73111637D01*
X136426637Y-72911759D01*
X136583680Y-72676727D01*
X136691853Y-72415574D01*
X136747000Y-72138335D01*
X136747000Y-71855665D01*
X136691853Y-71578426D01*
X136583680Y-71317273D01*
X136426637Y-71082241D01*
X136226759Y-70882363D01*
X135994241Y-70727000D01*
X136226759Y-70571637D01*
X136426637Y-70371759D01*
X136583680Y-70136727D01*
X136691853Y-69875574D01*
X136747000Y-69598335D01*
X136747000Y-69315665D01*
X136691853Y-69038426D01*
X136583680Y-68777273D01*
X136426637Y-68542241D01*
X136226759Y-68342363D01*
X136050833Y-68224813D01*
X136061003Y-68191286D01*
X136066158Y-68138947D01*
X136226759Y-68031637D01*
X136426637Y-67831759D01*
X136583680Y-67596727D01*
X136691853Y-67335574D01*
X136747000Y-67058335D01*
X136747000Y-66775665D01*
X136691853Y-66498426D01*
X136583680Y-66237273D01*
X136426637Y-66002241D01*
X136226759Y-65802363D01*
X136050833Y-65684813D01*
X136061003Y-65651286D01*
X136066158Y-65598947D01*
X136226759Y-65491637D01*
X136426637Y-65291759D01*
X136583680Y-65056727D01*
X136691853Y-64795574D01*
X136747000Y-64518335D01*
X136747000Y-64235665D01*
X136691853Y-63958426D01*
X136583680Y-63697273D01*
X136426637Y-63462241D01*
X136226759Y-63262363D01*
X136050833Y-63144813D01*
X136061003Y-63111286D01*
X136066158Y-63058947D01*
X136226759Y-62951637D01*
X136426637Y-62751759D01*
X136567556Y-62540858D01*
X138028401Y-64001703D01*
X138028400Y-87292178D01*
X138024724Y-87329500D01*
X138028400Y-87366822D01*
X138028400Y-87366832D01*
X138039397Y-87478485D01*
X138056912Y-87536224D01*
X138082854Y-87621746D01*
X138153426Y-87753776D01*
X138190131Y-87798501D01*
X138248399Y-87869501D01*
X138277403Y-87893304D01*
X149424937Y-99040839D01*
X149280320Y-99257273D01*
X149172147Y-99518426D01*
X149117000Y-99795665D01*
X149117000Y-100078335D01*
X149172147Y-100355574D01*
X149280320Y-100616727D01*
X149437363Y-100851759D01*
X149637241Y-101051637D01*
X149869759Y-101207000D01*
X149637241Y-101362363D01*
X149437363Y-101562241D01*
X149280320Y-101797273D01*
X149172147Y-102058426D01*
X149117000Y-102335665D01*
X149117000Y-102618335D01*
X149172147Y-102895574D01*
X149280320Y-103156727D01*
X149437363Y-103391759D01*
X149637241Y-103591637D01*
X149869759Y-103747000D01*
X149637241Y-103902363D01*
X149437363Y-104102241D01*
X149280320Y-104337273D01*
X149172147Y-104598426D01*
X149117000Y-104875665D01*
X149117000Y-105158335D01*
X149172147Y-105435574D01*
X149280320Y-105696727D01*
X149437363Y-105931759D01*
X149637241Y-106131637D01*
X149869759Y-106287000D01*
X149637241Y-106442363D01*
X149437363Y-106642241D01*
X149280320Y-106877273D01*
X149172147Y-107138426D01*
X149117000Y-107415665D01*
X149117000Y-107698335D01*
X149172147Y-107975574D01*
X149280320Y-108236727D01*
X149437363Y-108471759D01*
X149637241Y-108671637D01*
X149872273Y-108828680D01*
X150133426Y-108936853D01*
X150410665Y-108992000D01*
X150693335Y-108992000D01*
X150970574Y-108936853D01*
X151231727Y-108828680D01*
X151466759Y-108671637D01*
X151666637Y-108471759D01*
X151823680Y-108236727D01*
X151931853Y-107975574D01*
X151987000Y-107698335D01*
X151987000Y-107415665D01*
X151931853Y-107138426D01*
X151823680Y-106877273D01*
X151666637Y-106642241D01*
X151466759Y-106442363D01*
X151234241Y-106287000D01*
X151466759Y-106131637D01*
X151666637Y-105931759D01*
X151823680Y-105696727D01*
X151931853Y-105435574D01*
X151987000Y-105158335D01*
X151987000Y-104875665D01*
X151931853Y-104598426D01*
X151823680Y-104337273D01*
X151666637Y-104102241D01*
X151466759Y-103902363D01*
X151234241Y-103747000D01*
X151466759Y-103591637D01*
X151666637Y-103391759D01*
X151823680Y-103156727D01*
X151931853Y-102895574D01*
X151987000Y-102618335D01*
X151987000Y-102335665D01*
X151931853Y-102058426D01*
X151823680Y-101797273D01*
X151666637Y-101562241D01*
X151466759Y-101362363D01*
X151234241Y-101207000D01*
X151466759Y-101051637D01*
X151666637Y-100851759D01*
X151823680Y-100616727D01*
X151931853Y-100355574D01*
X151987000Y-100078335D01*
X151987000Y-99795665D01*
X151931853Y-99518426D01*
X151823680Y-99257273D01*
X151666637Y-99022241D01*
X151466759Y-98822363D01*
X151306158Y-98715053D01*
X151301003Y-98662714D01*
X151290833Y-98629187D01*
X151466759Y-98511637D01*
X151666637Y-98311759D01*
X151823680Y-98076727D01*
X151931853Y-97815574D01*
X151987000Y-97538335D01*
X151987000Y-97255665D01*
X151931853Y-96978426D01*
X151823680Y-96717273D01*
X151666637Y-96482241D01*
X151466759Y-96282363D01*
X151234241Y-96127000D01*
X151466759Y-95971637D01*
X151666637Y-95771759D01*
X151823680Y-95536727D01*
X151931853Y-95275574D01*
X151987000Y-94998335D01*
X151987000Y-94715665D01*
X151931853Y-94438426D01*
X151823680Y-94177273D01*
X151666637Y-93942241D01*
X151466759Y-93742363D01*
X151234241Y-93587000D01*
X151466759Y-93431637D01*
X151666637Y-93231759D01*
X151823680Y-92996727D01*
X151931853Y-92735574D01*
X151987000Y-92458335D01*
X151987000Y-92175665D01*
X151931853Y-91898426D01*
X151823680Y-91637273D01*
X151666637Y-91402241D01*
X151466759Y-91202363D01*
X151234241Y-91047000D01*
X151466759Y-90891637D01*
X151666637Y-90691759D01*
X151823680Y-90456727D01*
X151931853Y-90195574D01*
X151987000Y-89918335D01*
X151987000Y-89635665D01*
X151931853Y-89358426D01*
X151823680Y-89097273D01*
X151666637Y-88862241D01*
X151466759Y-88662363D01*
X151234241Y-88507000D01*
X151466759Y-88351637D01*
X151666637Y-88151759D01*
X151823680Y-87916727D01*
X151931853Y-87655574D01*
X151987000Y-87378335D01*
X151987000Y-87095665D01*
X151931853Y-86818426D01*
X151823680Y-86557273D01*
X151666637Y-86322241D01*
X151466759Y-86122363D01*
X151234241Y-85967000D01*
X151466759Y-85811637D01*
X151666637Y-85611759D01*
X151823680Y-85376727D01*
X151931853Y-85115574D01*
X151987000Y-84838335D01*
X151987000Y-84555665D01*
X151931853Y-84278426D01*
X151823680Y-84017273D01*
X151666637Y-83782241D01*
X151466759Y-83582363D01*
X151234241Y-83427000D01*
X151466759Y-83271637D01*
X151666637Y-83071759D01*
X151823680Y-82836727D01*
X151931853Y-82575574D01*
X151987000Y-82298335D01*
X151987000Y-82015665D01*
X151931853Y-81738426D01*
X151823680Y-81477273D01*
X151666637Y-81242241D01*
X151466759Y-81042363D01*
X151234241Y-80887000D01*
X151466759Y-80731637D01*
X151666637Y-80531759D01*
X151823680Y-80296727D01*
X151931853Y-80035574D01*
X151987000Y-79758335D01*
X151987000Y-79475665D01*
X151931853Y-79198426D01*
X151823680Y-78937273D01*
X151666637Y-78702241D01*
X151466759Y-78502363D01*
X151234241Y-78347000D01*
X151466759Y-78191637D01*
X151666637Y-77991759D01*
X151823680Y-77756727D01*
X151931853Y-77495574D01*
X151987000Y-77218335D01*
X151987000Y-76935665D01*
X151931853Y-76658426D01*
X151823680Y-76397273D01*
X151666637Y-76162241D01*
X151466759Y-75962363D01*
X151234241Y-75807000D01*
X151466759Y-75651637D01*
X151666637Y-75451759D01*
X151823680Y-75216727D01*
X151931853Y-74955574D01*
X151987000Y-74678335D01*
X151987000Y-74395665D01*
X151931853Y-74118426D01*
X151823680Y-73857273D01*
X151666637Y-73622241D01*
X151466759Y-73422363D01*
X151234241Y-73267000D01*
X151466759Y-73111637D01*
X151666637Y-72911759D01*
X151823680Y-72676727D01*
X151931853Y-72415574D01*
X151987000Y-72138335D01*
X151987000Y-71855665D01*
X151931853Y-71578426D01*
X151823680Y-71317273D01*
X151666637Y-71082241D01*
X151466759Y-70882363D01*
X151234241Y-70727000D01*
X151466759Y-70571637D01*
X151666637Y-70371759D01*
X151823680Y-70136727D01*
X151931853Y-69875574D01*
X151987000Y-69598335D01*
X151987000Y-69315665D01*
X151931853Y-69038426D01*
X151823680Y-68777273D01*
X151666637Y-68542241D01*
X151466759Y-68342363D01*
X151234241Y-68187000D01*
X151466759Y-68031637D01*
X151666637Y-67831759D01*
X151823680Y-67596727D01*
X151931853Y-67335574D01*
X151987000Y-67058335D01*
X151987000Y-66775665D01*
X151931853Y-66498426D01*
X151823680Y-66237273D01*
X151666637Y-66002241D01*
X151466759Y-65802363D01*
X151234241Y-65647000D01*
X151466759Y-65491637D01*
X151666637Y-65291759D01*
X151823680Y-65056727D01*
X151931853Y-64795574D01*
X151987000Y-64518335D01*
X151987000Y-64235665D01*
X151931853Y-63958426D01*
X151823680Y-63697273D01*
X151666637Y-63462241D01*
X151466759Y-63262363D01*
X151234241Y-63107000D01*
X151466759Y-62951637D01*
X151666637Y-62751759D01*
X151823680Y-62516727D01*
X151931853Y-62255574D01*
X151987000Y-61978335D01*
X151987000Y-61695665D01*
X151931853Y-61418426D01*
X151823680Y-61157273D01*
X151666637Y-60922241D01*
X151466759Y-60722363D01*
X151234241Y-60567000D01*
X151466759Y-60411637D01*
X151666637Y-60211759D01*
X151823680Y-59976727D01*
X151931853Y-59715574D01*
X151987000Y-59438335D01*
X151987000Y-59155665D01*
X151931853Y-58878426D01*
X151823680Y-58617273D01*
X151666637Y-58382241D01*
X151466759Y-58182363D01*
X151231727Y-58025320D01*
X150970574Y-57917147D01*
X150693335Y-57862000D01*
X150410665Y-57862000D01*
X150133426Y-57917147D01*
X149872273Y-58025320D01*
X149637241Y-58182363D01*
X149437363Y-58382241D01*
X149280320Y-58617273D01*
X149172147Y-58878426D01*
X149117000Y-59155665D01*
X149117000Y-59438335D01*
X149172147Y-59715574D01*
X149280320Y-59976727D01*
X149437363Y-60211759D01*
X149637241Y-60411637D01*
X149869759Y-60567000D01*
X149637241Y-60722363D01*
X149437363Y-60922241D01*
X149280320Y-61157273D01*
X149172147Y-61418426D01*
X149117000Y-61695665D01*
X149117000Y-61978335D01*
X149172147Y-62255574D01*
X149280320Y-62516727D01*
X149437363Y-62751759D01*
X149637241Y-62951637D01*
X149869759Y-63107000D01*
X149637241Y-63262363D01*
X149437363Y-63462241D01*
X149280320Y-63697273D01*
X149172147Y-63958426D01*
X149117000Y-64235665D01*
X149117000Y-64518335D01*
X149172147Y-64795574D01*
X149280320Y-65056727D01*
X149437363Y-65291759D01*
X149637241Y-65491637D01*
X149869759Y-65647000D01*
X149637241Y-65802363D01*
X149437363Y-66002241D01*
X149280320Y-66237273D01*
X149172147Y-66498426D01*
X149117000Y-66775665D01*
X149117000Y-67058335D01*
X149172147Y-67335574D01*
X149280320Y-67596727D01*
X149437363Y-67831759D01*
X149637241Y-68031637D01*
X149869759Y-68187000D01*
X149637241Y-68342363D01*
X149437363Y-68542241D01*
X149280320Y-68777273D01*
X149172147Y-69038426D01*
X149117000Y-69315665D01*
X149117000Y-69598335D01*
X149172147Y-69875574D01*
X149280320Y-70136727D01*
X149437363Y-70371759D01*
X149637241Y-70571637D01*
X149869759Y-70727000D01*
X149637241Y-70882363D01*
X149437363Y-71082241D01*
X149280320Y-71317273D01*
X149172147Y-71578426D01*
X149117000Y-71855665D01*
X149117000Y-72138335D01*
X149172147Y-72415574D01*
X149280320Y-72676727D01*
X149437363Y-72911759D01*
X149637241Y-73111637D01*
X149869759Y-73267000D01*
X149637241Y-73422363D01*
X149437363Y-73622241D01*
X149280320Y-73857273D01*
X149172147Y-74118426D01*
X149117000Y-74395665D01*
X149117000Y-74678335D01*
X149172147Y-74955574D01*
X149280320Y-75216727D01*
X149437363Y-75451759D01*
X149637241Y-75651637D01*
X149869759Y-75807000D01*
X149637241Y-75962363D01*
X149437363Y-76162241D01*
X149280320Y-76397273D01*
X149172147Y-76658426D01*
X149117000Y-76935665D01*
X149117000Y-77218335D01*
X149172147Y-77495574D01*
X149280320Y-77756727D01*
X149437363Y-77991759D01*
X149637241Y-78191637D01*
X149869759Y-78347000D01*
X149637241Y-78502363D01*
X149437363Y-78702241D01*
X149280320Y-78937273D01*
X149172147Y-79198426D01*
X149117000Y-79475665D01*
X149117000Y-79758335D01*
X149172147Y-80035574D01*
X149280320Y-80296727D01*
X149437363Y-80531759D01*
X149637241Y-80731637D01*
X149869759Y-80887000D01*
X149637241Y-81042363D01*
X149437363Y-81242241D01*
X149280320Y-81477273D01*
X149172147Y-81738426D01*
X149117000Y-82015665D01*
X149117000Y-82298335D01*
X149172147Y-82575574D01*
X149280320Y-82836727D01*
X149437363Y-83071759D01*
X149637241Y-83271637D01*
X149869759Y-83427000D01*
X149637241Y-83582363D01*
X149437363Y-83782241D01*
X149280320Y-84017273D01*
X149172147Y-84278426D01*
X149117000Y-84555665D01*
X149117000Y-84838335D01*
X149172147Y-85115574D01*
X149280320Y-85376727D01*
X149437363Y-85611759D01*
X149637241Y-85811637D01*
X149869759Y-85967000D01*
X149637241Y-86122363D01*
X149437363Y-86322241D01*
X149280320Y-86557273D01*
X149172147Y-86818426D01*
X149117000Y-87095665D01*
X149117000Y-87378335D01*
X149172147Y-87655574D01*
X149280320Y-87916727D01*
X149437363Y-88151759D01*
X149637241Y-88351637D01*
X149869759Y-88507000D01*
X149637241Y-88662363D01*
X149437363Y-88862241D01*
X149280320Y-89097273D01*
X149172147Y-89358426D01*
X149117000Y-89635665D01*
X149117000Y-89918335D01*
X149172147Y-90195574D01*
X149280320Y-90456727D01*
X149437363Y-90691759D01*
X149637241Y-90891637D01*
X149869759Y-91047000D01*
X149637241Y-91202363D01*
X149437363Y-91402241D01*
X149280320Y-91637273D01*
X149172147Y-91898426D01*
X149117000Y-92175665D01*
X149117000Y-92458335D01*
X149172147Y-92735574D01*
X149280320Y-92996727D01*
X149437363Y-93231759D01*
X149637241Y-93431637D01*
X149869759Y-93587000D01*
X149637241Y-93742363D01*
X149437363Y-93942241D01*
X149280320Y-94177273D01*
X149172147Y-94438426D01*
X149117000Y-94715665D01*
X149117000Y-94998335D01*
X149172147Y-95275574D01*
X149280320Y-95536727D01*
X149437363Y-95771759D01*
X149637241Y-95971637D01*
X149869759Y-96127000D01*
X149637241Y-96282363D01*
X149437363Y-96482241D01*
X149280320Y-96717273D01*
X149271725Y-96738023D01*
X139548400Y-87014699D01*
X139548400Y-63724223D01*
X139552076Y-63686900D01*
X139548400Y-63649577D01*
X139548400Y-63649567D01*
X139537403Y-63537914D01*
X139493946Y-63394653D01*
X139428386Y-63272000D01*
X139423374Y-63262623D01*
X139352199Y-63175897D01*
X139328401Y-63146899D01*
X139299403Y-63123101D01*
X136635892Y-60459591D01*
X136642537Y-60451494D01*
X136701502Y-60341180D01*
X136737812Y-60221482D01*
X136750072Y-60097000D01*
X136750072Y-58497000D01*
X136737812Y-58372518D01*
X136701502Y-58252820D01*
X136642537Y-58142506D01*
X136563185Y-58045815D01*
X136466494Y-57966463D01*
X136356180Y-57907498D01*
X136236482Y-57871188D01*
X136112000Y-57858928D01*
X134512000Y-57858928D01*
X134387518Y-57871188D01*
X134267820Y-57907498D01*
X134157506Y-57966463D01*
X134060815Y-58045815D01*
X133981463Y-58142506D01*
X133922498Y-58252820D01*
X133886188Y-58372518D01*
X133873928Y-58497000D01*
X133873928Y-60049811D01*
X133857624Y-60058526D01*
X133750427Y-60146500D01*
X133691961Y-60146500D01*
X133492002Y-60186274D01*
X133303644Y-60264295D01*
X133134126Y-60377563D01*
X132989963Y-60521726D01*
X132876695Y-60691244D01*
X132798674Y-60879602D01*
X132758900Y-61079561D01*
X132758900Y-61283439D01*
X132798674Y-61483398D01*
X132876695Y-61671756D01*
X132989963Y-61841274D01*
X133134126Y-61985437D01*
X133303644Y-62098705D01*
X133492002Y-62176726D01*
X133691961Y-62216500D01*
X133895839Y-62216500D01*
X133923289Y-62211040D01*
X133932147Y-62255574D01*
X134040320Y-62516727D01*
X134184977Y-62733221D01*
X114767498Y-82150701D01*
X114738500Y-82174499D01*
X114714702Y-82203497D01*
X114714701Y-82203498D01*
X114643526Y-82290224D01*
X114572954Y-82422254D01*
X114543722Y-82518624D01*
X114539271Y-82533298D01*
X114529498Y-82565515D01*
X114514824Y-82714500D01*
X114518501Y-82751832D01*
X114518500Y-85090198D01*
X107756401Y-91852298D01*
X107737537Y-91817006D01*
X107658185Y-91720315D01*
X107561494Y-91640963D01*
X107451180Y-91581998D01*
X107331482Y-91545688D01*
X107207000Y-91533428D01*
X107092750Y-91536500D01*
X106934000Y-91695250D01*
X106934000Y-92519500D01*
X106954000Y-92519500D01*
X106954000Y-92654699D01*
X106815199Y-92793500D01*
X106680000Y-92793500D01*
X106680000Y-92773500D01*
X106660000Y-92773500D01*
X106660000Y-92519500D01*
X106680000Y-92519500D01*
X106680000Y-91695250D01*
X106521250Y-91536500D01*
X106407000Y-91533428D01*
X106282518Y-91545688D01*
X106162820Y-91581998D01*
X106052506Y-91640963D01*
X105955815Y-91720315D01*
X105924590Y-91758363D01*
X105822608Y-91674669D01*
X105677716Y-91597222D01*
X105520500Y-91549531D01*
X105357000Y-91533428D01*
X105053730Y-91533428D01*
X104145304Y-90625003D01*
X104121501Y-90595999D01*
X104005776Y-90501026D01*
X103873747Y-90430454D01*
X103730486Y-90386997D01*
X103618833Y-90376000D01*
X103618822Y-90376000D01*
X103581500Y-90372324D01*
X103544178Y-90376000D01*
X80542322Y-90376000D01*
X80504999Y-90372324D01*
X80467676Y-90376000D01*
X80467667Y-90376000D01*
X80356014Y-90386997D01*
X80212753Y-90430454D01*
X80080724Y-90501026D01*
X80080722Y-90501027D01*
X80080723Y-90501027D01*
X79993996Y-90572201D01*
X79993992Y-90572205D01*
X79964999Y-90595999D01*
X79941205Y-90624992D01*
X79731270Y-90834928D01*
X79493000Y-90834928D01*
X79329500Y-90851031D01*
X79172284Y-90898722D01*
X79027392Y-90976169D01*
X78900394Y-91080394D01*
X78796169Y-91207392D01*
X78718722Y-91352284D01*
X78671031Y-91509500D01*
X78654928Y-91673000D01*
X78654928Y-92223000D01*
X78671031Y-92386500D01*
X78718722Y-92543716D01*
X78796169Y-92688608D01*
X78900394Y-92815606D01*
X78933001Y-92842366D01*
X78933000Y-94221622D01*
X78777741Y-94325363D01*
X78577863Y-94525241D01*
X78420820Y-94760273D01*
X78312647Y-95021426D01*
X78257500Y-95298665D01*
X78257500Y-95581335D01*
X78312647Y-95858574D01*
X78420820Y-96119727D01*
X78577863Y-96354759D01*
X78703051Y-96479947D01*
X76112798Y-99070201D01*
X76083800Y-99093999D01*
X76060002Y-99122997D01*
X76060001Y-99122998D01*
X75988826Y-99209724D01*
X75918254Y-99341754D01*
X75874798Y-99485015D01*
X75860124Y-99634000D01*
X75863801Y-99671333D01*
X75863800Y-129418478D01*
X75860124Y-129455800D01*
X75863800Y-129493122D01*
X75863800Y-129493132D01*
X75874797Y-129604785D01*
X75918254Y-129748046D01*
X75988826Y-129880076D01*
X76017040Y-129914454D01*
X76083799Y-129995801D01*
X76112802Y-130019603D01*
X76749928Y-130656730D01*
X76749928Y-130895000D01*
X76766031Y-131058500D01*
X76813722Y-131215716D01*
X76891169Y-131360608D01*
X76995394Y-131487606D01*
X77028001Y-131514366D01*
X77028000Y-133012877D01*
X77024324Y-133050200D01*
X77028000Y-133087522D01*
X77028000Y-133087532D01*
X77035481Y-133163483D01*
X76999741Y-133187363D01*
X76799863Y-133387241D01*
X76642820Y-133622273D01*
X76534647Y-133883426D01*
X76479500Y-134160665D01*
X76479500Y-134443335D01*
X76534647Y-134720574D01*
X76642820Y-134981727D01*
X76799863Y-135216759D01*
X76999741Y-135416637D01*
X77234773Y-135573680D01*
X77495926Y-135681853D01*
X77773165Y-135737000D01*
X78055835Y-135737000D01*
X78333074Y-135681853D01*
X78594227Y-135573680D01*
X78829259Y-135416637D01*
X79029137Y-135216759D01*
X79184500Y-134984241D01*
X79339863Y-135216759D01*
X79539741Y-135416637D01*
X79774773Y-135573680D01*
X80035926Y-135681853D01*
X80313165Y-135737000D01*
X80595835Y-135737000D01*
X80873074Y-135681853D01*
X81134227Y-135573680D01*
X81369259Y-135416637D01*
X81569137Y-135216759D01*
X81724500Y-134984241D01*
X81879863Y-135216759D01*
X82079741Y-135416637D01*
X82314773Y-135573680D01*
X82575926Y-135681853D01*
X82853165Y-135737000D01*
X83135835Y-135737000D01*
X83413074Y-135681853D01*
X83674227Y-135573680D01*
X83909259Y-135416637D01*
X84109137Y-135216759D01*
X84264500Y-134984241D01*
X84419863Y-135216759D01*
X84619741Y-135416637D01*
X84854773Y-135573680D01*
X85115926Y-135681853D01*
X85393165Y-135737000D01*
X85675835Y-135737000D01*
X85953074Y-135681853D01*
X86214227Y-135573680D01*
X86449259Y-135416637D01*
X86649137Y-135216759D01*
X86806180Y-134981727D01*
X86914353Y-134720574D01*
X86964593Y-134468000D01*
X102016928Y-134468000D01*
X102016928Y-136168000D01*
X102029188Y-136292482D01*
X102065498Y-136412180D01*
X102124463Y-136522494D01*
X102203815Y-136619185D01*
X102300506Y-136698537D01*
X102410820Y-136757502D01*
X102483380Y-136779513D01*
X102351525Y-136911368D01*
X102189010Y-137154589D01*
X102077068Y-137424842D01*
X102020000Y-137711740D01*
X102020000Y-138004260D01*
X102077068Y-138291158D01*
X102189010Y-138561411D01*
X102351525Y-138804632D01*
X102558368Y-139011475D01*
X102732760Y-139128000D01*
X102558368Y-139244525D01*
X102351525Y-139451368D01*
X102189010Y-139694589D01*
X102077068Y-139964842D01*
X102020000Y-140251740D01*
X102020000Y-140544260D01*
X102077068Y-140831158D01*
X102189010Y-141101411D01*
X102351525Y-141344632D01*
X102558368Y-141551475D01*
X102801589Y-141713990D01*
X103071842Y-141825932D01*
X103358740Y-141883000D01*
X103651260Y-141883000D01*
X103938158Y-141825932D01*
X104208411Y-141713990D01*
X104451632Y-141551475D01*
X104658475Y-141344632D01*
X104820990Y-141101411D01*
X104932932Y-140831158D01*
X104990000Y-140544260D01*
X104990000Y-140251740D01*
X104932932Y-139964842D01*
X104820990Y-139694589D01*
X104658475Y-139451368D01*
X104451632Y-139244525D01*
X104277240Y-139128000D01*
X104451632Y-139011475D01*
X104658475Y-138804632D01*
X104820990Y-138561411D01*
X104932932Y-138291158D01*
X104990000Y-138004260D01*
X104990000Y-137711740D01*
X104932932Y-137424842D01*
X104820990Y-137154589D01*
X104658475Y-136911368D01*
X104526620Y-136779513D01*
X104599180Y-136757502D01*
X104709494Y-136698537D01*
X104806185Y-136619185D01*
X104885537Y-136522494D01*
X104944502Y-136412180D01*
X104980812Y-136292482D01*
X104993072Y-136168000D01*
X104993072Y-134468000D01*
X104980812Y-134343518D01*
X104944502Y-134223820D01*
X104885537Y-134113506D01*
X104806185Y-134016815D01*
X104709494Y-133937463D01*
X104599180Y-133878498D01*
X104479482Y-133842188D01*
X104355000Y-133829928D01*
X102655000Y-133829928D01*
X102530518Y-133842188D01*
X102410820Y-133878498D01*
X102300506Y-133937463D01*
X102203815Y-134016815D01*
X102124463Y-134113506D01*
X102065498Y-134223820D01*
X102029188Y-134343518D01*
X102016928Y-134468000D01*
X86964593Y-134468000D01*
X86969500Y-134443335D01*
X86969500Y-134160665D01*
X86914353Y-133883426D01*
X86806180Y-133622273D01*
X86649137Y-133387241D01*
X86449259Y-133187363D01*
X86214227Y-133030320D01*
X85953074Y-132922147D01*
X85675835Y-132867000D01*
X85393165Y-132867000D01*
X85115926Y-132922147D01*
X84854773Y-133030320D01*
X84619741Y-133187363D01*
X84419863Y-133387241D01*
X84264500Y-133619759D01*
X84109137Y-133387241D01*
X83983949Y-133262053D01*
X89583904Y-127662098D01*
X89612901Y-127638301D01*
X89707874Y-127522576D01*
X89778446Y-127390547D01*
X89818064Y-127259943D01*
X90068926Y-127363853D01*
X90346165Y-127419000D01*
X90628835Y-127419000D01*
X90906074Y-127363853D01*
X91167227Y-127255680D01*
X91402259Y-127098637D01*
X91602137Y-126898759D01*
X91757500Y-126666241D01*
X91912863Y-126898759D01*
X92112741Y-127098637D01*
X92347773Y-127255680D01*
X92608926Y-127363853D01*
X92886165Y-127419000D01*
X93168835Y-127419000D01*
X93446074Y-127363853D01*
X93707227Y-127255680D01*
X93942259Y-127098637D01*
X94142137Y-126898759D01*
X94297500Y-126666241D01*
X94452863Y-126898759D01*
X94652741Y-127098637D01*
X94887773Y-127255680D01*
X95148926Y-127363853D01*
X95426165Y-127419000D01*
X95708835Y-127419000D01*
X95986074Y-127363853D01*
X96247227Y-127255680D01*
X96482259Y-127098637D01*
X96682137Y-126898759D01*
X96837500Y-126666241D01*
X96992863Y-126898759D01*
X97192741Y-127098637D01*
X97427773Y-127255680D01*
X97688926Y-127363853D01*
X97966165Y-127419000D01*
X98248835Y-127419000D01*
X98526074Y-127363853D01*
X98787227Y-127255680D01*
X99022259Y-127098637D01*
X99222137Y-126898759D01*
X99377500Y-126666241D01*
X99532863Y-126898759D01*
X99732741Y-127098637D01*
X99967773Y-127255680D01*
X100228926Y-127363853D01*
X100506165Y-127419000D01*
X100788835Y-127419000D01*
X101066074Y-127363853D01*
X101327227Y-127255680D01*
X101562259Y-127098637D01*
X101762137Y-126898759D01*
X101869447Y-126738158D01*
X101921786Y-126733003D01*
X101955313Y-126722833D01*
X102072863Y-126898759D01*
X102272741Y-127098637D01*
X102507773Y-127255680D01*
X102768926Y-127363853D01*
X103046165Y-127419000D01*
X103328835Y-127419000D01*
X103606074Y-127363853D01*
X103867227Y-127255680D01*
X104102259Y-127098637D01*
X104302137Y-126898759D01*
X104409447Y-126738158D01*
X104461786Y-126733003D01*
X104495313Y-126722833D01*
X104612863Y-126898759D01*
X104812741Y-127098637D01*
X105047773Y-127255680D01*
X105308926Y-127363853D01*
X105586165Y-127419000D01*
X105868835Y-127419000D01*
X106146074Y-127363853D01*
X106407227Y-127255680D01*
X106642259Y-127098637D01*
X106842137Y-126898759D01*
X106949447Y-126738158D01*
X107001786Y-126733003D01*
X107035313Y-126722833D01*
X107152863Y-126898759D01*
X107352741Y-127098637D01*
X107587773Y-127255680D01*
X107848926Y-127363853D01*
X108126165Y-127419000D01*
X108408835Y-127419000D01*
X108686074Y-127363853D01*
X108947227Y-127255680D01*
X109182259Y-127098637D01*
X109382137Y-126898759D01*
X109489447Y-126738158D01*
X109541786Y-126733003D01*
X109575313Y-126722833D01*
X109692863Y-126898759D01*
X109892741Y-127098637D01*
X110127773Y-127255680D01*
X110388926Y-127363853D01*
X110666165Y-127419000D01*
X110948835Y-127419000D01*
X111226074Y-127363853D01*
X111487227Y-127255680D01*
X111722259Y-127098637D01*
X111922137Y-126898759D01*
X112029447Y-126738158D01*
X112081786Y-126733003D01*
X112115313Y-126722833D01*
X112232863Y-126898759D01*
X112432741Y-127098637D01*
X112667773Y-127255680D01*
X112928926Y-127363853D01*
X113206165Y-127419000D01*
X113488835Y-127419000D01*
X113766074Y-127363853D01*
X114027227Y-127255680D01*
X114262259Y-127098637D01*
X114462137Y-126898759D01*
X114617500Y-126666241D01*
X114772863Y-126898759D01*
X114972741Y-127098637D01*
X115207773Y-127255680D01*
X115468926Y-127363853D01*
X115746165Y-127419000D01*
X116028835Y-127419000D01*
X116306074Y-127363853D01*
X116567227Y-127255680D01*
X116802259Y-127098637D01*
X117002137Y-126898759D01*
X117157500Y-126666241D01*
X117312863Y-126898759D01*
X117512741Y-127098637D01*
X117747773Y-127255680D01*
X118008926Y-127363853D01*
X118286165Y-127419000D01*
X118568835Y-127419000D01*
X118846074Y-127363853D01*
X119107227Y-127255680D01*
X119342259Y-127098637D01*
X119542137Y-126898759D01*
X119697500Y-126666241D01*
X119852863Y-126898759D01*
X120052741Y-127098637D01*
X120287773Y-127255680D01*
X120548926Y-127363853D01*
X120826165Y-127419000D01*
X121108835Y-127419000D01*
X121386074Y-127363853D01*
X121647227Y-127255680D01*
X121882259Y-127098637D01*
X122082137Y-126898759D01*
X122237500Y-126666241D01*
X122392863Y-126898759D01*
X122592741Y-127098637D01*
X122827773Y-127255680D01*
X123088926Y-127363853D01*
X123366165Y-127419000D01*
X123648835Y-127419000D01*
X123926074Y-127363853D01*
X124187227Y-127255680D01*
X124422259Y-127098637D01*
X124622137Y-126898759D01*
X124779180Y-126663727D01*
X124783567Y-126653135D01*
X124895115Y-126839131D01*
X125084086Y-127047519D01*
X125310080Y-127215037D01*
X125564413Y-127335246D01*
X125698461Y-127375904D01*
X125920500Y-127253915D01*
X125920500Y-126111000D01*
X126174500Y-126111000D01*
X126174500Y-127253915D01*
X126396539Y-127375904D01*
X126530587Y-127335246D01*
X126784920Y-127215037D01*
X127010914Y-127047519D01*
X127199885Y-126839131D01*
X127344570Y-126597881D01*
X127439409Y-126333040D01*
X127318124Y-126111000D01*
X126174500Y-126111000D01*
X125920500Y-126111000D01*
X125900500Y-126111000D01*
X125900500Y-125857000D01*
X125920500Y-125857000D01*
X125920500Y-124714085D01*
X126174500Y-124714085D01*
X126174500Y-125857000D01*
X127318124Y-125857000D01*
X127439409Y-125634960D01*
X127344570Y-125370119D01*
X127199885Y-125128869D01*
X127010914Y-124920481D01*
X126784920Y-124752963D01*
X126530587Y-124632754D01*
X126396539Y-124592096D01*
X126174500Y-124714085D01*
X125920500Y-124714085D01*
X125698461Y-124592096D01*
X125564413Y-124632754D01*
X125310080Y-124752963D01*
X125084086Y-124920481D01*
X124895115Y-125128869D01*
X124783567Y-125314865D01*
X124779180Y-125304273D01*
X124622137Y-125069241D01*
X124496949Y-124944053D01*
X128880000Y-120561003D01*
X128880001Y-145390000D01*
X74892233Y-145390000D01*
X74896975Y-141122000D01*
X76476428Y-141122000D01*
X76476428Y-142722000D01*
X76488688Y-142846482D01*
X76524998Y-142966180D01*
X76583963Y-143076494D01*
X76663315Y-143173185D01*
X76760006Y-143252537D01*
X76870320Y-143311502D01*
X76990018Y-143347812D01*
X77114500Y-143360072D01*
X78714500Y-143360072D01*
X78838982Y-143347812D01*
X78958680Y-143311502D01*
X79068994Y-143252537D01*
X79165685Y-143173185D01*
X79245037Y-143076494D01*
X79304002Y-142966180D01*
X79340312Y-142846482D01*
X79341143Y-142838039D01*
X79539741Y-143036637D01*
X79774773Y-143193680D01*
X80035926Y-143301853D01*
X80313165Y-143357000D01*
X80595835Y-143357000D01*
X80873074Y-143301853D01*
X81134227Y-143193680D01*
X81369259Y-143036637D01*
X81569137Y-142836759D01*
X81724500Y-142604241D01*
X81879863Y-142836759D01*
X82079741Y-143036637D01*
X82314773Y-143193680D01*
X82575926Y-143301853D01*
X82853165Y-143357000D01*
X83135835Y-143357000D01*
X83413074Y-143301853D01*
X83674227Y-143193680D01*
X83909259Y-143036637D01*
X84109137Y-142836759D01*
X84266180Y-142601727D01*
X84270567Y-142591135D01*
X84382115Y-142777131D01*
X84571086Y-142985519D01*
X84797080Y-143153037D01*
X85051413Y-143273246D01*
X85185461Y-143313904D01*
X85407500Y-143191915D01*
X85407500Y-142049000D01*
X85661500Y-142049000D01*
X85661500Y-143191915D01*
X85883539Y-143313904D01*
X86017587Y-143273246D01*
X86271920Y-143153037D01*
X86497914Y-142985519D01*
X86686885Y-142777131D01*
X86831570Y-142535881D01*
X86926409Y-142271040D01*
X86805124Y-142049000D01*
X85661500Y-142049000D01*
X85407500Y-142049000D01*
X85387500Y-142049000D01*
X85387500Y-141795000D01*
X85407500Y-141795000D01*
X85407500Y-140652085D01*
X85661500Y-140652085D01*
X85661500Y-141795000D01*
X86805124Y-141795000D01*
X86926409Y-141572960D01*
X86831570Y-141308119D01*
X86686885Y-141066869D01*
X86497914Y-140858481D01*
X86271920Y-140690963D01*
X86017587Y-140570754D01*
X85883539Y-140530096D01*
X85661500Y-140652085D01*
X85407500Y-140652085D01*
X85185461Y-140530096D01*
X85051413Y-140570754D01*
X84797080Y-140690963D01*
X84571086Y-140858481D01*
X84382115Y-141066869D01*
X84270567Y-141252865D01*
X84266180Y-141242273D01*
X84109137Y-141007241D01*
X83909259Y-140807363D01*
X83674227Y-140650320D01*
X83413074Y-140542147D01*
X83135835Y-140487000D01*
X82853165Y-140487000D01*
X82575926Y-140542147D01*
X82314773Y-140650320D01*
X82079741Y-140807363D01*
X81879863Y-141007241D01*
X81724500Y-141239759D01*
X81569137Y-141007241D01*
X81369259Y-140807363D01*
X81134227Y-140650320D01*
X80873074Y-140542147D01*
X80595835Y-140487000D01*
X80313165Y-140487000D01*
X80035926Y-140542147D01*
X79774773Y-140650320D01*
X79539741Y-140807363D01*
X79341143Y-141005961D01*
X79340312Y-140997518D01*
X79304002Y-140877820D01*
X79245037Y-140767506D01*
X79165685Y-140670815D01*
X79068994Y-140591463D01*
X78958680Y-140532498D01*
X78838982Y-140496188D01*
X78714500Y-140483928D01*
X77114500Y-140483928D01*
X76990018Y-140496188D01*
X76870320Y-140532498D01*
X76760006Y-140591463D01*
X76663315Y-140670815D01*
X76583963Y-140767506D01*
X76524998Y-140877820D01*
X76488688Y-140997518D01*
X76476428Y-141122000D01*
X74896975Y-141122000D01*
X74954266Y-89560000D01*
X101568414Y-89560000D01*
X101601653Y-89563190D01*
X101665236Y-89556768D01*
X101729383Y-89550450D01*
X101730180Y-89550208D01*
X101731004Y-89550125D01*
X101792180Y-89531401D01*
X101853793Y-89512710D01*
X101854528Y-89512317D01*
X101855319Y-89512075D01*
X101911565Y-89481831D01*
X101968450Y-89451425D01*
X101969096Y-89450895D01*
X101969823Y-89450504D01*
X102019242Y-89409741D01*
X102068948Y-89368948D01*
X102090137Y-89343129D01*
X114744409Y-76625587D01*
X114768948Y-76605448D01*
X114790134Y-76579633D01*
X114790719Y-76579045D01*
X114810787Y-76554467D01*
X114851425Y-76504950D01*
X114851816Y-76504218D01*
X114852342Y-76503574D01*
X114882448Y-76446909D01*
X114912710Y-76390293D01*
X114912951Y-76389497D01*
X114913341Y-76388764D01*
X114931787Y-76327405D01*
X114950450Y-76265883D01*
X114950532Y-76265054D01*
X114950770Y-76264261D01*
X114956873Y-76200666D01*
X114960000Y-76168919D01*
X114960000Y-76168085D01*
X114963190Y-76134846D01*
X114960000Y-76103263D01*
X114960000Y-57810000D01*
X153645000Y-57810000D01*
X153645001Y-109830000D01*
%TA.AperFunction,Conductor*%
D18*
G36*
X153645001Y-109830000D02*
G01*
X130107201Y-109830000D01*
X132031162Y-107906039D01*
X133920096Y-107906039D01*
X133960754Y-108040087D01*
X134080963Y-108294420D01*
X134248481Y-108520414D01*
X134456869Y-108709385D01*
X134698119Y-108854070D01*
X134962960Y-108948909D01*
X135185000Y-108827624D01*
X135185000Y-107684000D01*
X135439000Y-107684000D01*
X135439000Y-108827624D01*
X135661040Y-108948909D01*
X135925881Y-108854070D01*
X136167131Y-108709385D01*
X136375519Y-108520414D01*
X136543037Y-108294420D01*
X136663246Y-108040087D01*
X136703904Y-107906039D01*
X136581915Y-107684000D01*
X135439000Y-107684000D01*
X135185000Y-107684000D01*
X134042085Y-107684000D01*
X133920096Y-107906039D01*
X132031162Y-107906039D01*
X134120491Y-105816711D01*
X134197363Y-105931759D01*
X134397241Y-106131637D01*
X134632273Y-106288680D01*
X134642865Y-106293067D01*
X134456869Y-106404615D01*
X134248481Y-106593586D01*
X134080963Y-106819580D01*
X133960754Y-107073913D01*
X133920096Y-107207961D01*
X134042085Y-107430000D01*
X135185000Y-107430000D01*
X135185000Y-107410000D01*
X135439000Y-107410000D01*
X135439000Y-107430000D01*
X136581915Y-107430000D01*
X136703904Y-107207961D01*
X136663246Y-107073913D01*
X136543037Y-106819580D01*
X136375519Y-106593586D01*
X136167131Y-106404615D01*
X135981135Y-106293067D01*
X135991727Y-106288680D01*
X136226759Y-106131637D01*
X136426637Y-105931759D01*
X136583680Y-105696727D01*
X136691853Y-105435574D01*
X136747000Y-105158335D01*
X136747000Y-104875665D01*
X136691853Y-104598426D01*
X136583680Y-104337273D01*
X136426637Y-104102241D01*
X136226759Y-103902363D01*
X136050833Y-103784813D01*
X136061003Y-103751286D01*
X136066158Y-103698947D01*
X136226759Y-103591637D01*
X136426637Y-103391759D01*
X136583680Y-103156727D01*
X136691853Y-102895574D01*
X136747000Y-102618335D01*
X136747000Y-102335665D01*
X136691853Y-102058426D01*
X136583680Y-101797273D01*
X136426637Y-101562241D01*
X136226759Y-101362363D01*
X135994241Y-101207000D01*
X136226759Y-101051637D01*
X136426637Y-100851759D01*
X136583680Y-100616727D01*
X136691853Y-100355574D01*
X136747000Y-100078335D01*
X136747000Y-99795665D01*
X136691853Y-99518426D01*
X136583680Y-99257273D01*
X136426637Y-99022241D01*
X136226759Y-98822363D01*
X136050833Y-98704813D01*
X136061003Y-98671286D01*
X136066158Y-98618947D01*
X136226759Y-98511637D01*
X136426637Y-98311759D01*
X136583680Y-98076727D01*
X136691853Y-97815574D01*
X136747000Y-97538335D01*
X136747000Y-97255665D01*
X136691853Y-96978426D01*
X136583680Y-96717273D01*
X136426637Y-96482241D01*
X136226759Y-96282363D01*
X135994241Y-96127000D01*
X136226759Y-95971637D01*
X136426637Y-95771759D01*
X136583680Y-95536727D01*
X136691853Y-95275574D01*
X136747000Y-94998335D01*
X136747000Y-94715665D01*
X136691853Y-94438426D01*
X136583680Y-94177273D01*
X136426637Y-93942241D01*
X136226759Y-93742363D01*
X136050833Y-93624813D01*
X136061003Y-93591286D01*
X136066158Y-93538947D01*
X136226759Y-93431637D01*
X136426637Y-93231759D01*
X136583680Y-92996727D01*
X136691853Y-92735574D01*
X136747000Y-92458335D01*
X136747000Y-92175665D01*
X136691853Y-91898426D01*
X136583680Y-91637273D01*
X136426637Y-91402241D01*
X136226759Y-91202363D01*
X136050833Y-91084813D01*
X136061003Y-91051286D01*
X136066158Y-90998947D01*
X136226759Y-90891637D01*
X136426637Y-90691759D01*
X136583680Y-90456727D01*
X136691853Y-90195574D01*
X136747000Y-89918335D01*
X136747000Y-89635665D01*
X136691853Y-89358426D01*
X136583680Y-89097273D01*
X136426637Y-88862241D01*
X136226759Y-88662363D01*
X136050833Y-88544813D01*
X136061003Y-88511286D01*
X136066158Y-88458947D01*
X136226759Y-88351637D01*
X136426637Y-88151759D01*
X136583680Y-87916727D01*
X136691853Y-87655574D01*
X136747000Y-87378335D01*
X136747000Y-87095665D01*
X136691853Y-86818426D01*
X136583680Y-86557273D01*
X136426637Y-86322241D01*
X136226759Y-86122363D01*
X136050833Y-86004813D01*
X136061003Y-85971286D01*
X136066158Y-85918947D01*
X136226759Y-85811637D01*
X136426637Y-85611759D01*
X136583680Y-85376727D01*
X136691853Y-85115574D01*
X136747000Y-84838335D01*
X136747000Y-84555665D01*
X136691853Y-84278426D01*
X136583680Y-84017273D01*
X136426637Y-83782241D01*
X136226759Y-83582363D01*
X136050833Y-83464813D01*
X136061003Y-83431286D01*
X136066158Y-83378947D01*
X136226759Y-83271637D01*
X136426637Y-83071759D01*
X136583680Y-82836727D01*
X136691853Y-82575574D01*
X136747000Y-82298335D01*
X136747000Y-82015665D01*
X136691853Y-81738426D01*
X136583680Y-81477273D01*
X136426637Y-81242241D01*
X136226759Y-81042363D01*
X136050833Y-80924813D01*
X136061003Y-80891286D01*
X136066158Y-80838947D01*
X136226759Y-80731637D01*
X136426637Y-80531759D01*
X136583680Y-80296727D01*
X136691853Y-80035574D01*
X136747000Y-79758335D01*
X136747000Y-79475665D01*
X136691853Y-79198426D01*
X136583680Y-78937273D01*
X136426637Y-78702241D01*
X136226759Y-78502363D01*
X136050833Y-78384813D01*
X136061003Y-78351286D01*
X136066158Y-78298947D01*
X136226759Y-78191637D01*
X136426637Y-77991759D01*
X136583680Y-77756727D01*
X136691853Y-77495574D01*
X136747000Y-77218335D01*
X136747000Y-76935665D01*
X136691853Y-76658426D01*
X136583680Y-76397273D01*
X136426637Y-76162241D01*
X136226759Y-75962363D01*
X136050833Y-75844813D01*
X136061003Y-75811286D01*
X136066158Y-75758947D01*
X136226759Y-75651637D01*
X136426637Y-75451759D01*
X136583680Y-75216727D01*
X136691853Y-74955574D01*
X136747000Y-74678335D01*
X136747000Y-74395665D01*
X136691853Y-74118426D01*
X136583680Y-73857273D01*
X136426637Y-73622241D01*
X136226759Y-73422363D01*
X136050833Y-73304813D01*
X136061003Y-73271286D01*
X136066158Y-73218947D01*
X136226759Y-73111637D01*
X136426637Y-72911759D01*
X136583680Y-72676727D01*
X136691853Y-72415574D01*
X136747000Y-72138335D01*
X136747000Y-71855665D01*
X136691853Y-71578426D01*
X136583680Y-71317273D01*
X136426637Y-71082241D01*
X136226759Y-70882363D01*
X135994241Y-70727000D01*
X136226759Y-70571637D01*
X136426637Y-70371759D01*
X136583680Y-70136727D01*
X136691853Y-69875574D01*
X136747000Y-69598335D01*
X136747000Y-69315665D01*
X136691853Y-69038426D01*
X136583680Y-68777273D01*
X136426637Y-68542241D01*
X136226759Y-68342363D01*
X136050833Y-68224813D01*
X136061003Y-68191286D01*
X136066158Y-68138947D01*
X136226759Y-68031637D01*
X136426637Y-67831759D01*
X136583680Y-67596727D01*
X136691853Y-67335574D01*
X136747000Y-67058335D01*
X136747000Y-66775665D01*
X136691853Y-66498426D01*
X136583680Y-66237273D01*
X136426637Y-66002241D01*
X136226759Y-65802363D01*
X136050833Y-65684813D01*
X136061003Y-65651286D01*
X136066158Y-65598947D01*
X136226759Y-65491637D01*
X136426637Y-65291759D01*
X136583680Y-65056727D01*
X136691853Y-64795574D01*
X136747000Y-64518335D01*
X136747000Y-64235665D01*
X136691853Y-63958426D01*
X136583680Y-63697273D01*
X136426637Y-63462241D01*
X136226759Y-63262363D01*
X136050833Y-63144813D01*
X136061003Y-63111286D01*
X136066158Y-63058947D01*
X136226759Y-62951637D01*
X136426637Y-62751759D01*
X136567556Y-62540858D01*
X138028401Y-64001703D01*
X138028400Y-87292178D01*
X138024724Y-87329500D01*
X138028400Y-87366822D01*
X138028400Y-87366832D01*
X138039397Y-87478485D01*
X138056912Y-87536224D01*
X138082854Y-87621746D01*
X138153426Y-87753776D01*
X138190131Y-87798501D01*
X138248399Y-87869501D01*
X138277403Y-87893304D01*
X149424937Y-99040839D01*
X149280320Y-99257273D01*
X149172147Y-99518426D01*
X149117000Y-99795665D01*
X149117000Y-100078335D01*
X149172147Y-100355574D01*
X149280320Y-100616727D01*
X149437363Y-100851759D01*
X149637241Y-101051637D01*
X149869759Y-101207000D01*
X149637241Y-101362363D01*
X149437363Y-101562241D01*
X149280320Y-101797273D01*
X149172147Y-102058426D01*
X149117000Y-102335665D01*
X149117000Y-102618335D01*
X149172147Y-102895574D01*
X149280320Y-103156727D01*
X149437363Y-103391759D01*
X149637241Y-103591637D01*
X149869759Y-103747000D01*
X149637241Y-103902363D01*
X149437363Y-104102241D01*
X149280320Y-104337273D01*
X149172147Y-104598426D01*
X149117000Y-104875665D01*
X149117000Y-105158335D01*
X149172147Y-105435574D01*
X149280320Y-105696727D01*
X149437363Y-105931759D01*
X149637241Y-106131637D01*
X149869759Y-106287000D01*
X149637241Y-106442363D01*
X149437363Y-106642241D01*
X149280320Y-106877273D01*
X149172147Y-107138426D01*
X149117000Y-107415665D01*
X149117000Y-107698335D01*
X149172147Y-107975574D01*
X149280320Y-108236727D01*
X149437363Y-108471759D01*
X149637241Y-108671637D01*
X149872273Y-108828680D01*
X150133426Y-108936853D01*
X150410665Y-108992000D01*
X150693335Y-108992000D01*
X150970574Y-108936853D01*
X151231727Y-108828680D01*
X151466759Y-108671637D01*
X151666637Y-108471759D01*
X151823680Y-108236727D01*
X151931853Y-107975574D01*
X151987000Y-107698335D01*
X151987000Y-107415665D01*
X151931853Y-107138426D01*
X151823680Y-106877273D01*
X151666637Y-106642241D01*
X151466759Y-106442363D01*
X151234241Y-106287000D01*
X151466759Y-106131637D01*
X151666637Y-105931759D01*
X151823680Y-105696727D01*
X151931853Y-105435574D01*
X151987000Y-105158335D01*
X151987000Y-104875665D01*
X151931853Y-104598426D01*
X151823680Y-104337273D01*
X151666637Y-104102241D01*
X151466759Y-103902363D01*
X151234241Y-103747000D01*
X151466759Y-103591637D01*
X151666637Y-103391759D01*
X151823680Y-103156727D01*
X151931853Y-102895574D01*
X151987000Y-102618335D01*
X151987000Y-102335665D01*
X151931853Y-102058426D01*
X151823680Y-101797273D01*
X151666637Y-101562241D01*
X151466759Y-101362363D01*
X151234241Y-101207000D01*
X151466759Y-101051637D01*
X151666637Y-100851759D01*
X151823680Y-100616727D01*
X151931853Y-100355574D01*
X151987000Y-100078335D01*
X151987000Y-99795665D01*
X151931853Y-99518426D01*
X151823680Y-99257273D01*
X151666637Y-99022241D01*
X151466759Y-98822363D01*
X151306158Y-98715053D01*
X151301003Y-98662714D01*
X151290833Y-98629187D01*
X151466759Y-98511637D01*
X151666637Y-98311759D01*
X151823680Y-98076727D01*
X151931853Y-97815574D01*
X151987000Y-97538335D01*
X151987000Y-97255665D01*
X151931853Y-96978426D01*
X151823680Y-96717273D01*
X151666637Y-96482241D01*
X151466759Y-96282363D01*
X151234241Y-96127000D01*
X151466759Y-95971637D01*
X151666637Y-95771759D01*
X151823680Y-95536727D01*
X151931853Y-95275574D01*
X151987000Y-94998335D01*
X151987000Y-94715665D01*
X151931853Y-94438426D01*
X151823680Y-94177273D01*
X151666637Y-93942241D01*
X151466759Y-93742363D01*
X151234241Y-93587000D01*
X151466759Y-93431637D01*
X151666637Y-93231759D01*
X151823680Y-92996727D01*
X151931853Y-92735574D01*
X151987000Y-92458335D01*
X151987000Y-92175665D01*
X151931853Y-91898426D01*
X151823680Y-91637273D01*
X151666637Y-91402241D01*
X151466759Y-91202363D01*
X151234241Y-91047000D01*
X151466759Y-90891637D01*
X151666637Y-90691759D01*
X151823680Y-90456727D01*
X151931853Y-90195574D01*
X151987000Y-89918335D01*
X151987000Y-89635665D01*
X151931853Y-89358426D01*
X151823680Y-89097273D01*
X151666637Y-88862241D01*
X151466759Y-88662363D01*
X151234241Y-88507000D01*
X151466759Y-88351637D01*
X151666637Y-88151759D01*
X151823680Y-87916727D01*
X151931853Y-87655574D01*
X151987000Y-87378335D01*
X151987000Y-87095665D01*
X151931853Y-86818426D01*
X151823680Y-86557273D01*
X151666637Y-86322241D01*
X151466759Y-86122363D01*
X151234241Y-85967000D01*
X151466759Y-85811637D01*
X151666637Y-85611759D01*
X151823680Y-85376727D01*
X151931853Y-85115574D01*
X151987000Y-84838335D01*
X151987000Y-84555665D01*
X151931853Y-84278426D01*
X151823680Y-84017273D01*
X151666637Y-83782241D01*
X151466759Y-83582363D01*
X151234241Y-83427000D01*
X151466759Y-83271637D01*
X151666637Y-83071759D01*
X151823680Y-82836727D01*
X151931853Y-82575574D01*
X151987000Y-82298335D01*
X151987000Y-82015665D01*
X151931853Y-81738426D01*
X151823680Y-81477273D01*
X151666637Y-81242241D01*
X151466759Y-81042363D01*
X151234241Y-80887000D01*
X151466759Y-80731637D01*
X151666637Y-80531759D01*
X151823680Y-80296727D01*
X151931853Y-80035574D01*
X151987000Y-79758335D01*
X151987000Y-79475665D01*
X151931853Y-79198426D01*
X151823680Y-78937273D01*
X151666637Y-78702241D01*
X151466759Y-78502363D01*
X151234241Y-78347000D01*
X151466759Y-78191637D01*
X151666637Y-77991759D01*
X151823680Y-77756727D01*
X151931853Y-77495574D01*
X151987000Y-77218335D01*
X151987000Y-76935665D01*
X151931853Y-76658426D01*
X151823680Y-76397273D01*
X151666637Y-76162241D01*
X151466759Y-75962363D01*
X151234241Y-75807000D01*
X151466759Y-75651637D01*
X151666637Y-75451759D01*
X151823680Y-75216727D01*
X151931853Y-74955574D01*
X151987000Y-74678335D01*
X151987000Y-74395665D01*
X151931853Y-74118426D01*
X151823680Y-73857273D01*
X151666637Y-73622241D01*
X151466759Y-73422363D01*
X151234241Y-73267000D01*
X151466759Y-73111637D01*
X151666637Y-72911759D01*
X151823680Y-72676727D01*
X151931853Y-72415574D01*
X151987000Y-72138335D01*
X151987000Y-71855665D01*
X151931853Y-71578426D01*
X151823680Y-71317273D01*
X151666637Y-71082241D01*
X151466759Y-70882363D01*
X151234241Y-70727000D01*
X151466759Y-70571637D01*
X151666637Y-70371759D01*
X151823680Y-70136727D01*
X151931853Y-69875574D01*
X151987000Y-69598335D01*
X151987000Y-69315665D01*
X151931853Y-69038426D01*
X151823680Y-68777273D01*
X151666637Y-68542241D01*
X151466759Y-68342363D01*
X151234241Y-68187000D01*
X151466759Y-68031637D01*
X151666637Y-67831759D01*
X151823680Y-67596727D01*
X151931853Y-67335574D01*
X151987000Y-67058335D01*
X151987000Y-66775665D01*
X151931853Y-66498426D01*
X151823680Y-66237273D01*
X151666637Y-66002241D01*
X151466759Y-65802363D01*
X151234241Y-65647000D01*
X151466759Y-65491637D01*
X151666637Y-65291759D01*
X151823680Y-65056727D01*
X151931853Y-64795574D01*
X151987000Y-64518335D01*
X151987000Y-64235665D01*
X151931853Y-63958426D01*
X151823680Y-63697273D01*
X151666637Y-63462241D01*
X151466759Y-63262363D01*
X151234241Y-63107000D01*
X151466759Y-62951637D01*
X151666637Y-62751759D01*
X151823680Y-62516727D01*
X151931853Y-62255574D01*
X151987000Y-61978335D01*
X151987000Y-61695665D01*
X151931853Y-61418426D01*
X151823680Y-61157273D01*
X151666637Y-60922241D01*
X151466759Y-60722363D01*
X151234241Y-60567000D01*
X151466759Y-60411637D01*
X151666637Y-60211759D01*
X151823680Y-59976727D01*
X151931853Y-59715574D01*
X151987000Y-59438335D01*
X151987000Y-59155665D01*
X151931853Y-58878426D01*
X151823680Y-58617273D01*
X151666637Y-58382241D01*
X151466759Y-58182363D01*
X151231727Y-58025320D01*
X150970574Y-57917147D01*
X150693335Y-57862000D01*
X150410665Y-57862000D01*
X150133426Y-57917147D01*
X149872273Y-58025320D01*
X149637241Y-58182363D01*
X149437363Y-58382241D01*
X149280320Y-58617273D01*
X149172147Y-58878426D01*
X149117000Y-59155665D01*
X149117000Y-59438335D01*
X149172147Y-59715574D01*
X149280320Y-59976727D01*
X149437363Y-60211759D01*
X149637241Y-60411637D01*
X149869759Y-60567000D01*
X149637241Y-60722363D01*
X149437363Y-60922241D01*
X149280320Y-61157273D01*
X149172147Y-61418426D01*
X149117000Y-61695665D01*
X149117000Y-61978335D01*
X149172147Y-62255574D01*
X149280320Y-62516727D01*
X149437363Y-62751759D01*
X149637241Y-62951637D01*
X149869759Y-63107000D01*
X149637241Y-63262363D01*
X149437363Y-63462241D01*
X149280320Y-63697273D01*
X149172147Y-63958426D01*
X149117000Y-64235665D01*
X149117000Y-64518335D01*
X149172147Y-64795574D01*
X149280320Y-65056727D01*
X149437363Y-65291759D01*
X149637241Y-65491637D01*
X149869759Y-65647000D01*
X149637241Y-65802363D01*
X149437363Y-66002241D01*
X149280320Y-66237273D01*
X149172147Y-66498426D01*
X149117000Y-66775665D01*
X149117000Y-67058335D01*
X149172147Y-67335574D01*
X149280320Y-67596727D01*
X149437363Y-67831759D01*
X149637241Y-68031637D01*
X149869759Y-68187000D01*
X149637241Y-68342363D01*
X149437363Y-68542241D01*
X149280320Y-68777273D01*
X149172147Y-69038426D01*
X149117000Y-69315665D01*
X149117000Y-69598335D01*
X149172147Y-69875574D01*
X149280320Y-70136727D01*
X149437363Y-70371759D01*
X149637241Y-70571637D01*
X149869759Y-70727000D01*
X149637241Y-70882363D01*
X149437363Y-71082241D01*
X149280320Y-71317273D01*
X149172147Y-71578426D01*
X149117000Y-71855665D01*
X149117000Y-72138335D01*
X149172147Y-72415574D01*
X149280320Y-72676727D01*
X149437363Y-72911759D01*
X149637241Y-73111637D01*
X149869759Y-73267000D01*
X149637241Y-73422363D01*
X149437363Y-73622241D01*
X149280320Y-73857273D01*
X149172147Y-74118426D01*
X149117000Y-74395665D01*
X149117000Y-74678335D01*
X149172147Y-74955574D01*
X149280320Y-75216727D01*
X149437363Y-75451759D01*
X149637241Y-75651637D01*
X149869759Y-75807000D01*
X149637241Y-75962363D01*
X149437363Y-76162241D01*
X149280320Y-76397273D01*
X149172147Y-76658426D01*
X149117000Y-76935665D01*
X149117000Y-77218335D01*
X149172147Y-77495574D01*
X149280320Y-77756727D01*
X149437363Y-77991759D01*
X149637241Y-78191637D01*
X149869759Y-78347000D01*
X149637241Y-78502363D01*
X149437363Y-78702241D01*
X149280320Y-78937273D01*
X149172147Y-79198426D01*
X149117000Y-79475665D01*
X149117000Y-79758335D01*
X149172147Y-80035574D01*
X149280320Y-80296727D01*
X149437363Y-80531759D01*
X149637241Y-80731637D01*
X149869759Y-80887000D01*
X149637241Y-81042363D01*
X149437363Y-81242241D01*
X149280320Y-81477273D01*
X149172147Y-81738426D01*
X149117000Y-82015665D01*
X149117000Y-82298335D01*
X149172147Y-82575574D01*
X149280320Y-82836727D01*
X149437363Y-83071759D01*
X149637241Y-83271637D01*
X149869759Y-83427000D01*
X149637241Y-83582363D01*
X149437363Y-83782241D01*
X149280320Y-84017273D01*
X149172147Y-84278426D01*
X149117000Y-84555665D01*
X149117000Y-84838335D01*
X149172147Y-85115574D01*
X149280320Y-85376727D01*
X149437363Y-85611759D01*
X149637241Y-85811637D01*
X149869759Y-85967000D01*
X149637241Y-86122363D01*
X149437363Y-86322241D01*
X149280320Y-86557273D01*
X149172147Y-86818426D01*
X149117000Y-87095665D01*
X149117000Y-87378335D01*
X149172147Y-87655574D01*
X149280320Y-87916727D01*
X149437363Y-88151759D01*
X149637241Y-88351637D01*
X149869759Y-88507000D01*
X149637241Y-88662363D01*
X149437363Y-88862241D01*
X149280320Y-89097273D01*
X149172147Y-89358426D01*
X149117000Y-89635665D01*
X149117000Y-89918335D01*
X149172147Y-90195574D01*
X149280320Y-90456727D01*
X149437363Y-90691759D01*
X149637241Y-90891637D01*
X149869759Y-91047000D01*
X149637241Y-91202363D01*
X149437363Y-91402241D01*
X149280320Y-91637273D01*
X149172147Y-91898426D01*
X149117000Y-92175665D01*
X149117000Y-92458335D01*
X149172147Y-92735574D01*
X149280320Y-92996727D01*
X149437363Y-93231759D01*
X149637241Y-93431637D01*
X149869759Y-93587000D01*
X149637241Y-93742363D01*
X149437363Y-93942241D01*
X149280320Y-94177273D01*
X149172147Y-94438426D01*
X149117000Y-94715665D01*
X149117000Y-94998335D01*
X149172147Y-95275574D01*
X149280320Y-95536727D01*
X149437363Y-95771759D01*
X149637241Y-95971637D01*
X149869759Y-96127000D01*
X149637241Y-96282363D01*
X149437363Y-96482241D01*
X149280320Y-96717273D01*
X149271725Y-96738023D01*
X139548400Y-87014699D01*
X139548400Y-63724223D01*
X139552076Y-63686900D01*
X139548400Y-63649577D01*
X139548400Y-63649567D01*
X139537403Y-63537914D01*
X139493946Y-63394653D01*
X139428386Y-63272000D01*
X139423374Y-63262623D01*
X139352199Y-63175897D01*
X139328401Y-63146899D01*
X139299403Y-63123101D01*
X136635892Y-60459591D01*
X136642537Y-60451494D01*
X136701502Y-60341180D01*
X136737812Y-60221482D01*
X136750072Y-60097000D01*
X136750072Y-58497000D01*
X136737812Y-58372518D01*
X136701502Y-58252820D01*
X136642537Y-58142506D01*
X136563185Y-58045815D01*
X136466494Y-57966463D01*
X136356180Y-57907498D01*
X136236482Y-57871188D01*
X136112000Y-57858928D01*
X134512000Y-57858928D01*
X134387518Y-57871188D01*
X134267820Y-57907498D01*
X134157506Y-57966463D01*
X134060815Y-58045815D01*
X133981463Y-58142506D01*
X133922498Y-58252820D01*
X133886188Y-58372518D01*
X133873928Y-58497000D01*
X133873928Y-60049811D01*
X133857624Y-60058526D01*
X133750427Y-60146500D01*
X133691961Y-60146500D01*
X133492002Y-60186274D01*
X133303644Y-60264295D01*
X133134126Y-60377563D01*
X132989963Y-60521726D01*
X132876695Y-60691244D01*
X132798674Y-60879602D01*
X132758900Y-61079561D01*
X132758900Y-61283439D01*
X132798674Y-61483398D01*
X132876695Y-61671756D01*
X132989963Y-61841274D01*
X133134126Y-61985437D01*
X133303644Y-62098705D01*
X133492002Y-62176726D01*
X133691961Y-62216500D01*
X133895839Y-62216500D01*
X133923289Y-62211040D01*
X133932147Y-62255574D01*
X134040320Y-62516727D01*
X134184977Y-62733221D01*
X114767498Y-82150701D01*
X114738500Y-82174499D01*
X114714702Y-82203497D01*
X114714701Y-82203498D01*
X114643526Y-82290224D01*
X114572954Y-82422254D01*
X114543722Y-82518624D01*
X114539271Y-82533298D01*
X114529498Y-82565515D01*
X114514824Y-82714500D01*
X114518501Y-82751832D01*
X114518500Y-85090198D01*
X107756401Y-91852298D01*
X107737537Y-91817006D01*
X107658185Y-91720315D01*
X107561494Y-91640963D01*
X107451180Y-91581998D01*
X107331482Y-91545688D01*
X107207000Y-91533428D01*
X107092750Y-91536500D01*
X106934000Y-91695250D01*
X106934000Y-92519500D01*
X106954000Y-92519500D01*
X106954000Y-92654699D01*
X106815199Y-92793500D01*
X106680000Y-92793500D01*
X106680000Y-92773500D01*
X106660000Y-92773500D01*
X106660000Y-92519500D01*
X106680000Y-92519500D01*
X106680000Y-91695250D01*
X106521250Y-91536500D01*
X106407000Y-91533428D01*
X106282518Y-91545688D01*
X106162820Y-91581998D01*
X106052506Y-91640963D01*
X105955815Y-91720315D01*
X105924590Y-91758363D01*
X105822608Y-91674669D01*
X105677716Y-91597222D01*
X105520500Y-91549531D01*
X105357000Y-91533428D01*
X105053730Y-91533428D01*
X104145304Y-90625003D01*
X104121501Y-90595999D01*
X104005776Y-90501026D01*
X103873747Y-90430454D01*
X103730486Y-90386997D01*
X103618833Y-90376000D01*
X103618822Y-90376000D01*
X103581500Y-90372324D01*
X103544178Y-90376000D01*
X80542322Y-90376000D01*
X80504999Y-90372324D01*
X80467676Y-90376000D01*
X80467667Y-90376000D01*
X80356014Y-90386997D01*
X80212753Y-90430454D01*
X80080724Y-90501026D01*
X80080722Y-90501027D01*
X80080723Y-90501027D01*
X79993996Y-90572201D01*
X79993992Y-90572205D01*
X79964999Y-90595999D01*
X79941205Y-90624992D01*
X79731270Y-90834928D01*
X79493000Y-90834928D01*
X79329500Y-90851031D01*
X79172284Y-90898722D01*
X79027392Y-90976169D01*
X78900394Y-91080394D01*
X78796169Y-91207392D01*
X78718722Y-91352284D01*
X78671031Y-91509500D01*
X78654928Y-91673000D01*
X78654928Y-92223000D01*
X78671031Y-92386500D01*
X78718722Y-92543716D01*
X78796169Y-92688608D01*
X78900394Y-92815606D01*
X78933001Y-92842366D01*
X78933000Y-94221622D01*
X78777741Y-94325363D01*
X78577863Y-94525241D01*
X78420820Y-94760273D01*
X78312647Y-95021426D01*
X78257500Y-95298665D01*
X78257500Y-95581335D01*
X78312647Y-95858574D01*
X78420820Y-96119727D01*
X78577863Y-96354759D01*
X78703051Y-96479947D01*
X76112798Y-99070201D01*
X76083800Y-99093999D01*
X76060002Y-99122997D01*
X76060001Y-99122998D01*
X75988826Y-99209724D01*
X75918254Y-99341754D01*
X75874798Y-99485015D01*
X75860124Y-99634000D01*
X75863801Y-99671333D01*
X75863800Y-129418478D01*
X75860124Y-129455800D01*
X75863800Y-129493122D01*
X75863800Y-129493132D01*
X75874797Y-129604785D01*
X75918254Y-129748046D01*
X75988826Y-129880076D01*
X76017040Y-129914454D01*
X76083799Y-129995801D01*
X76112802Y-130019603D01*
X76749928Y-130656730D01*
X76749928Y-130895000D01*
X76766031Y-131058500D01*
X76813722Y-131215716D01*
X76891169Y-131360608D01*
X76995394Y-131487606D01*
X77028001Y-131514366D01*
X77028000Y-133012877D01*
X77024324Y-133050200D01*
X77028000Y-133087522D01*
X77028000Y-133087532D01*
X77035481Y-133163483D01*
X76999741Y-133187363D01*
X76799863Y-133387241D01*
X76642820Y-133622273D01*
X76534647Y-133883426D01*
X76479500Y-134160665D01*
X76479500Y-134443335D01*
X76534647Y-134720574D01*
X76642820Y-134981727D01*
X76799863Y-135216759D01*
X76999741Y-135416637D01*
X77234773Y-135573680D01*
X77495926Y-135681853D01*
X77773165Y-135737000D01*
X78055835Y-135737000D01*
X78333074Y-135681853D01*
X78594227Y-135573680D01*
X78829259Y-135416637D01*
X79029137Y-135216759D01*
X79184500Y-134984241D01*
X79339863Y-135216759D01*
X79539741Y-135416637D01*
X79774773Y-135573680D01*
X80035926Y-135681853D01*
X80313165Y-135737000D01*
X80595835Y-135737000D01*
X80873074Y-135681853D01*
X81134227Y-135573680D01*
X81369259Y-135416637D01*
X81569137Y-135216759D01*
X81724500Y-134984241D01*
X81879863Y-135216759D01*
X82079741Y-135416637D01*
X82314773Y-135573680D01*
X82575926Y-135681853D01*
X82853165Y-135737000D01*
X83135835Y-135737000D01*
X83413074Y-135681853D01*
X83674227Y-135573680D01*
X83909259Y-135416637D01*
X84109137Y-135216759D01*
X84264500Y-134984241D01*
X84419863Y-135216759D01*
X84619741Y-135416637D01*
X84854773Y-135573680D01*
X85115926Y-135681853D01*
X85393165Y-135737000D01*
X85675835Y-135737000D01*
X85953074Y-135681853D01*
X86214227Y-135573680D01*
X86449259Y-135416637D01*
X86649137Y-135216759D01*
X86806180Y-134981727D01*
X86914353Y-134720574D01*
X86964593Y-134468000D01*
X102016928Y-134468000D01*
X102016928Y-136168000D01*
X102029188Y-136292482D01*
X102065498Y-136412180D01*
X102124463Y-136522494D01*
X102203815Y-136619185D01*
X102300506Y-136698537D01*
X102410820Y-136757502D01*
X102483380Y-136779513D01*
X102351525Y-136911368D01*
X102189010Y-137154589D01*
X102077068Y-137424842D01*
X102020000Y-137711740D01*
X102020000Y-138004260D01*
X102077068Y-138291158D01*
X102189010Y-138561411D01*
X102351525Y-138804632D01*
X102558368Y-139011475D01*
X102732760Y-139128000D01*
X102558368Y-139244525D01*
X102351525Y-139451368D01*
X102189010Y-139694589D01*
X102077068Y-139964842D01*
X102020000Y-140251740D01*
X102020000Y-140544260D01*
X102077068Y-140831158D01*
X102189010Y-141101411D01*
X102351525Y-141344632D01*
X102558368Y-141551475D01*
X102801589Y-141713990D01*
X103071842Y-141825932D01*
X103358740Y-141883000D01*
X103651260Y-141883000D01*
X103938158Y-141825932D01*
X104208411Y-141713990D01*
X104451632Y-141551475D01*
X104658475Y-141344632D01*
X104820990Y-141101411D01*
X104932932Y-140831158D01*
X104990000Y-140544260D01*
X104990000Y-140251740D01*
X104932932Y-139964842D01*
X104820990Y-139694589D01*
X104658475Y-139451368D01*
X104451632Y-139244525D01*
X104277240Y-139128000D01*
X104451632Y-139011475D01*
X104658475Y-138804632D01*
X104820990Y-138561411D01*
X104932932Y-138291158D01*
X104990000Y-138004260D01*
X104990000Y-137711740D01*
X104932932Y-137424842D01*
X104820990Y-137154589D01*
X104658475Y-136911368D01*
X104526620Y-136779513D01*
X104599180Y-136757502D01*
X104709494Y-136698537D01*
X104806185Y-136619185D01*
X104885537Y-136522494D01*
X104944502Y-136412180D01*
X104980812Y-136292482D01*
X104993072Y-136168000D01*
X104993072Y-134468000D01*
X104980812Y-134343518D01*
X104944502Y-134223820D01*
X104885537Y-134113506D01*
X104806185Y-134016815D01*
X104709494Y-133937463D01*
X104599180Y-133878498D01*
X104479482Y-133842188D01*
X104355000Y-133829928D01*
X102655000Y-133829928D01*
X102530518Y-133842188D01*
X102410820Y-133878498D01*
X102300506Y-133937463D01*
X102203815Y-134016815D01*
X102124463Y-134113506D01*
X102065498Y-134223820D01*
X102029188Y-134343518D01*
X102016928Y-134468000D01*
X86964593Y-134468000D01*
X86969500Y-134443335D01*
X86969500Y-134160665D01*
X86914353Y-133883426D01*
X86806180Y-133622273D01*
X86649137Y-133387241D01*
X86449259Y-133187363D01*
X86214227Y-133030320D01*
X85953074Y-132922147D01*
X85675835Y-132867000D01*
X85393165Y-132867000D01*
X85115926Y-132922147D01*
X84854773Y-133030320D01*
X84619741Y-133187363D01*
X84419863Y-133387241D01*
X84264500Y-133619759D01*
X84109137Y-133387241D01*
X83983949Y-133262053D01*
X89583904Y-127662098D01*
X89612901Y-127638301D01*
X89707874Y-127522576D01*
X89778446Y-127390547D01*
X89818064Y-127259943D01*
X90068926Y-127363853D01*
X90346165Y-127419000D01*
X90628835Y-127419000D01*
X90906074Y-127363853D01*
X91167227Y-127255680D01*
X91402259Y-127098637D01*
X91602137Y-126898759D01*
X91757500Y-126666241D01*
X91912863Y-126898759D01*
X92112741Y-127098637D01*
X92347773Y-127255680D01*
X92608926Y-127363853D01*
X92886165Y-127419000D01*
X93168835Y-127419000D01*
X93446074Y-127363853D01*
X93707227Y-127255680D01*
X93942259Y-127098637D01*
X94142137Y-126898759D01*
X94297500Y-126666241D01*
X94452863Y-126898759D01*
X94652741Y-127098637D01*
X94887773Y-127255680D01*
X95148926Y-127363853D01*
X95426165Y-127419000D01*
X95708835Y-127419000D01*
X95986074Y-127363853D01*
X96247227Y-127255680D01*
X96482259Y-127098637D01*
X96682137Y-126898759D01*
X96837500Y-126666241D01*
X96992863Y-126898759D01*
X97192741Y-127098637D01*
X97427773Y-127255680D01*
X97688926Y-127363853D01*
X97966165Y-127419000D01*
X98248835Y-127419000D01*
X98526074Y-127363853D01*
X98787227Y-127255680D01*
X99022259Y-127098637D01*
X99222137Y-126898759D01*
X99377500Y-126666241D01*
X99532863Y-126898759D01*
X99732741Y-127098637D01*
X99967773Y-127255680D01*
X100228926Y-127363853D01*
X100506165Y-127419000D01*
X100788835Y-127419000D01*
X101066074Y-127363853D01*
X101327227Y-127255680D01*
X101562259Y-127098637D01*
X101762137Y-126898759D01*
X101869447Y-126738158D01*
X101921786Y-126733003D01*
X101955313Y-126722833D01*
X102072863Y-126898759D01*
X102272741Y-127098637D01*
X102507773Y-127255680D01*
X102768926Y-127363853D01*
X103046165Y-127419000D01*
X103328835Y-127419000D01*
X103606074Y-127363853D01*
X103867227Y-127255680D01*
X104102259Y-127098637D01*
X104302137Y-126898759D01*
X104409447Y-126738158D01*
X104461786Y-126733003D01*
X104495313Y-126722833D01*
X104612863Y-126898759D01*
X104812741Y-127098637D01*
X105047773Y-127255680D01*
X105308926Y-127363853D01*
X105586165Y-127419000D01*
X105868835Y-127419000D01*
X106146074Y-127363853D01*
X106407227Y-127255680D01*
X106642259Y-127098637D01*
X106842137Y-126898759D01*
X106949447Y-126738158D01*
X107001786Y-126733003D01*
X107035313Y-126722833D01*
X107152863Y-126898759D01*
X107352741Y-127098637D01*
X107587773Y-127255680D01*
X107848926Y-127363853D01*
X108126165Y-127419000D01*
X108408835Y-127419000D01*
X108686074Y-127363853D01*
X108947227Y-127255680D01*
X109182259Y-127098637D01*
X109382137Y-126898759D01*
X109489447Y-126738158D01*
X109541786Y-126733003D01*
X109575313Y-126722833D01*
X109692863Y-126898759D01*
X109892741Y-127098637D01*
X110127773Y-127255680D01*
X110388926Y-127363853D01*
X110666165Y-127419000D01*
X110948835Y-127419000D01*
X111226074Y-127363853D01*
X111487227Y-127255680D01*
X111722259Y-127098637D01*
X111922137Y-126898759D01*
X112029447Y-126738158D01*
X112081786Y-126733003D01*
X112115313Y-126722833D01*
X112232863Y-126898759D01*
X112432741Y-127098637D01*
X112667773Y-127255680D01*
X112928926Y-127363853D01*
X113206165Y-127419000D01*
X113488835Y-127419000D01*
X113766074Y-127363853D01*
X114027227Y-127255680D01*
X114262259Y-127098637D01*
X114462137Y-126898759D01*
X114617500Y-126666241D01*
X114772863Y-126898759D01*
X114972741Y-127098637D01*
X115207773Y-127255680D01*
X115468926Y-127363853D01*
X115746165Y-127419000D01*
X116028835Y-127419000D01*
X116306074Y-127363853D01*
X116567227Y-127255680D01*
X116802259Y-127098637D01*
X117002137Y-126898759D01*
X117157500Y-126666241D01*
X117312863Y-126898759D01*
X117512741Y-127098637D01*
X117747773Y-127255680D01*
X118008926Y-127363853D01*
X118286165Y-127419000D01*
X118568835Y-127419000D01*
X118846074Y-127363853D01*
X119107227Y-127255680D01*
X119342259Y-127098637D01*
X119542137Y-126898759D01*
X119697500Y-126666241D01*
X119852863Y-126898759D01*
X120052741Y-127098637D01*
X120287773Y-127255680D01*
X120548926Y-127363853D01*
X120826165Y-127419000D01*
X121108835Y-127419000D01*
X121386074Y-127363853D01*
X121647227Y-127255680D01*
X121882259Y-127098637D01*
X122082137Y-126898759D01*
X122237500Y-126666241D01*
X122392863Y-126898759D01*
X122592741Y-127098637D01*
X122827773Y-127255680D01*
X123088926Y-127363853D01*
X123366165Y-127419000D01*
X123648835Y-127419000D01*
X123926074Y-127363853D01*
X124187227Y-127255680D01*
X124422259Y-127098637D01*
X124622137Y-126898759D01*
X124779180Y-126663727D01*
X124783567Y-126653135D01*
X124895115Y-126839131D01*
X125084086Y-127047519D01*
X125310080Y-127215037D01*
X125564413Y-127335246D01*
X125698461Y-127375904D01*
X125920500Y-127253915D01*
X125920500Y-126111000D01*
X126174500Y-126111000D01*
X126174500Y-127253915D01*
X126396539Y-127375904D01*
X126530587Y-127335246D01*
X126784920Y-127215037D01*
X127010914Y-127047519D01*
X127199885Y-126839131D01*
X127344570Y-126597881D01*
X127439409Y-126333040D01*
X127318124Y-126111000D01*
X126174500Y-126111000D01*
X125920500Y-126111000D01*
X125900500Y-126111000D01*
X125900500Y-125857000D01*
X125920500Y-125857000D01*
X125920500Y-124714085D01*
X126174500Y-124714085D01*
X126174500Y-125857000D01*
X127318124Y-125857000D01*
X127439409Y-125634960D01*
X127344570Y-125370119D01*
X127199885Y-125128869D01*
X127010914Y-124920481D01*
X126784920Y-124752963D01*
X126530587Y-124632754D01*
X126396539Y-124592096D01*
X126174500Y-124714085D01*
X125920500Y-124714085D01*
X125698461Y-124592096D01*
X125564413Y-124632754D01*
X125310080Y-124752963D01*
X125084086Y-124920481D01*
X124895115Y-125128869D01*
X124783567Y-125314865D01*
X124779180Y-125304273D01*
X124622137Y-125069241D01*
X124496949Y-124944053D01*
X128880000Y-120561003D01*
X128880001Y-145390000D01*
X74892233Y-145390000D01*
X74896975Y-141122000D01*
X76476428Y-141122000D01*
X76476428Y-142722000D01*
X76488688Y-142846482D01*
X76524998Y-142966180D01*
X76583963Y-143076494D01*
X76663315Y-143173185D01*
X76760006Y-143252537D01*
X76870320Y-143311502D01*
X76990018Y-143347812D01*
X77114500Y-143360072D01*
X78714500Y-143360072D01*
X78838982Y-143347812D01*
X78958680Y-143311502D01*
X79068994Y-143252537D01*
X79165685Y-143173185D01*
X79245037Y-143076494D01*
X79304002Y-142966180D01*
X79340312Y-142846482D01*
X79341143Y-142838039D01*
X79539741Y-143036637D01*
X79774773Y-143193680D01*
X80035926Y-143301853D01*
X80313165Y-143357000D01*
X80595835Y-143357000D01*
X80873074Y-143301853D01*
X81134227Y-143193680D01*
X81369259Y-143036637D01*
X81569137Y-142836759D01*
X81724500Y-142604241D01*
X81879863Y-142836759D01*
X82079741Y-143036637D01*
X82314773Y-143193680D01*
X82575926Y-143301853D01*
X82853165Y-143357000D01*
X83135835Y-143357000D01*
X83413074Y-143301853D01*
X83674227Y-143193680D01*
X83909259Y-143036637D01*
X84109137Y-142836759D01*
X84266180Y-142601727D01*
X84270567Y-142591135D01*
X84382115Y-142777131D01*
X84571086Y-142985519D01*
X84797080Y-143153037D01*
X85051413Y-143273246D01*
X85185461Y-143313904D01*
X85407500Y-143191915D01*
X85407500Y-142049000D01*
X85661500Y-142049000D01*
X85661500Y-143191915D01*
X85883539Y-143313904D01*
X86017587Y-143273246D01*
X86271920Y-143153037D01*
X86497914Y-142985519D01*
X86686885Y-142777131D01*
X86831570Y-142535881D01*
X86926409Y-142271040D01*
X86805124Y-142049000D01*
X85661500Y-142049000D01*
X85407500Y-142049000D01*
X85387500Y-142049000D01*
X85387500Y-141795000D01*
X85407500Y-141795000D01*
X85407500Y-140652085D01*
X85661500Y-140652085D01*
X85661500Y-141795000D01*
X86805124Y-141795000D01*
X86926409Y-141572960D01*
X86831570Y-141308119D01*
X86686885Y-141066869D01*
X86497914Y-140858481D01*
X86271920Y-140690963D01*
X86017587Y-140570754D01*
X85883539Y-140530096D01*
X85661500Y-140652085D01*
X85407500Y-140652085D01*
X85185461Y-140530096D01*
X85051413Y-140570754D01*
X84797080Y-140690963D01*
X84571086Y-140858481D01*
X84382115Y-141066869D01*
X84270567Y-141252865D01*
X84266180Y-141242273D01*
X84109137Y-141007241D01*
X83909259Y-140807363D01*
X83674227Y-140650320D01*
X83413074Y-140542147D01*
X83135835Y-140487000D01*
X82853165Y-140487000D01*
X82575926Y-140542147D01*
X82314773Y-140650320D01*
X82079741Y-140807363D01*
X81879863Y-141007241D01*
X81724500Y-141239759D01*
X81569137Y-141007241D01*
X81369259Y-140807363D01*
X81134227Y-140650320D01*
X80873074Y-140542147D01*
X80595835Y-140487000D01*
X80313165Y-140487000D01*
X80035926Y-140542147D01*
X79774773Y-140650320D01*
X79539741Y-140807363D01*
X79341143Y-141005961D01*
X79340312Y-140997518D01*
X79304002Y-140877820D01*
X79245037Y-140767506D01*
X79165685Y-140670815D01*
X79068994Y-140591463D01*
X78958680Y-140532498D01*
X78838982Y-140496188D01*
X78714500Y-140483928D01*
X77114500Y-140483928D01*
X76990018Y-140496188D01*
X76870320Y-140532498D01*
X76760006Y-140591463D01*
X76663315Y-140670815D01*
X76583963Y-140767506D01*
X76524998Y-140877820D01*
X76488688Y-140997518D01*
X76476428Y-141122000D01*
X74896975Y-141122000D01*
X74954266Y-89560000D01*
X101568414Y-89560000D01*
X101601653Y-89563190D01*
X101665236Y-89556768D01*
X101729383Y-89550450D01*
X101730180Y-89550208D01*
X101731004Y-89550125D01*
X101792180Y-89531401D01*
X101853793Y-89512710D01*
X101854528Y-89512317D01*
X101855319Y-89512075D01*
X101911565Y-89481831D01*
X101968450Y-89451425D01*
X101969096Y-89450895D01*
X101969823Y-89450504D01*
X102019242Y-89409741D01*
X102068948Y-89368948D01*
X102090137Y-89343129D01*
X114744409Y-76625587D01*
X114768948Y-76605448D01*
X114790134Y-76579633D01*
X114790719Y-76579045D01*
X114810787Y-76554467D01*
X114851425Y-76504950D01*
X114851816Y-76504218D01*
X114852342Y-76503574D01*
X114882448Y-76446909D01*
X114912710Y-76390293D01*
X114912951Y-76389497D01*
X114913341Y-76388764D01*
X114931787Y-76327405D01*
X114950450Y-76265883D01*
X114950532Y-76265054D01*
X114950770Y-76264261D01*
X114956873Y-76200666D01*
X114960000Y-76168919D01*
X114960000Y-76168085D01*
X114963190Y-76134846D01*
X114960000Y-76103263D01*
X114960000Y-57810000D01*
X153645000Y-57810000D01*
X153645001Y-109830000D01*
G37*
%TD.AperFunction*%
D17*
X86832863Y-126898759D02*
X87032741Y-127098637D01*
X87267773Y-127255680D01*
X87528926Y-127363853D01*
X87698762Y-127397636D01*
X82483498Y-132612901D01*
X82454500Y-132636699D01*
X82430702Y-132665697D01*
X82430701Y-132665698D01*
X82359526Y-132752424D01*
X82288954Y-132884454D01*
X82245498Y-133027715D01*
X82240343Y-133080052D01*
X82079741Y-133187363D01*
X81879863Y-133387241D01*
X81724500Y-133619759D01*
X81569137Y-133387241D01*
X81443949Y-133262053D01*
X84648503Y-130057499D01*
X84677501Y-130033701D01*
X84772474Y-129917976D01*
X84843046Y-129785947D01*
X84886503Y-129642686D01*
X84897500Y-129531033D01*
X84901177Y-129493700D01*
X84897500Y-129456367D01*
X84897500Y-127325983D01*
X84988926Y-127363853D01*
X85266165Y-127419000D01*
X85548835Y-127419000D01*
X85826074Y-127363853D01*
X86087227Y-127255680D01*
X86322259Y-127098637D01*
X86522137Y-126898759D01*
X86677500Y-126666241D01*
X86832863Y-126898759D01*
%TA.AperFunction,Conductor*%
D18*
G36*
X86832863Y-126898759D02*
G01*
X87032741Y-127098637D01*
X87267773Y-127255680D01*
X87528926Y-127363853D01*
X87698762Y-127397636D01*
X82483498Y-132612901D01*
X82454500Y-132636699D01*
X82430702Y-132665697D01*
X82430701Y-132665698D01*
X82359526Y-132752424D01*
X82288954Y-132884454D01*
X82245498Y-133027715D01*
X82240343Y-133080052D01*
X82079741Y-133187363D01*
X81879863Y-133387241D01*
X81724500Y-133619759D01*
X81569137Y-133387241D01*
X81443949Y-133262053D01*
X84648503Y-130057499D01*
X84677501Y-130033701D01*
X84772474Y-129917976D01*
X84843046Y-129785947D01*
X84886503Y-129642686D01*
X84897500Y-129531033D01*
X84901177Y-129493700D01*
X84897500Y-129456367D01*
X84897500Y-127325983D01*
X84988926Y-127363853D01*
X85266165Y-127419000D01*
X85548835Y-127419000D01*
X85826074Y-127363853D01*
X86087227Y-127255680D01*
X86322259Y-127098637D01*
X86522137Y-126898759D01*
X86677500Y-126666241D01*
X86832863Y-126898759D01*
G37*
%TD.AperFunction*%
D17*
X81752863Y-126898759D02*
X81952741Y-127098637D01*
X82187773Y-127255680D01*
X82448926Y-127363853D01*
X82726165Y-127419000D01*
X83008835Y-127419000D01*
X83286074Y-127363853D01*
X83377500Y-127325983D01*
X83377501Y-129178897D01*
X79943498Y-132612901D01*
X79914500Y-132636699D01*
X79890702Y-132665697D01*
X79890701Y-132665698D01*
X79819526Y-132752424D01*
X79748954Y-132884454D01*
X79705498Y-133027715D01*
X79700343Y-133080052D01*
X79539741Y-133187363D01*
X79339863Y-133387241D01*
X79184500Y-133619759D01*
X79029137Y-133387241D01*
X78829259Y-133187363D01*
X78668658Y-133080053D01*
X78663503Y-133027714D01*
X78620046Y-132884453D01*
X78549474Y-132752424D01*
X78548000Y-132750628D01*
X78548000Y-131514365D01*
X78555590Y-131508137D01*
X78586815Y-131546185D01*
X78683506Y-131625537D01*
X78793820Y-131684502D01*
X78913518Y-131720812D01*
X79038000Y-131733072D01*
X79152250Y-131730000D01*
X79311000Y-131571250D01*
X79311000Y-130747000D01*
X79565000Y-130747000D01*
X79565000Y-131571250D01*
X79723750Y-131730000D01*
X79838000Y-131733072D01*
X79962482Y-131720812D01*
X80082180Y-131684502D01*
X80192494Y-131625537D01*
X80289185Y-131546185D01*
X80368537Y-131449494D01*
X80427502Y-131339180D01*
X80463812Y-131219482D01*
X80476072Y-131095000D01*
X80473000Y-130905750D01*
X80314250Y-130747000D01*
X79565000Y-130747000D01*
X79311000Y-130747000D01*
X79291000Y-130747000D01*
X79291000Y-130493000D01*
X79311000Y-130493000D01*
X79311000Y-129668750D01*
X79565000Y-129668750D01*
X79565000Y-130493000D01*
X80314250Y-130493000D01*
X80473000Y-130334250D01*
X80476072Y-130145000D01*
X80463812Y-130020518D01*
X80427502Y-129900820D01*
X80368537Y-129790506D01*
X80289185Y-129693815D01*
X80192494Y-129614463D01*
X80082180Y-129555498D01*
X79962482Y-129519188D01*
X79838000Y-129506928D01*
X79723750Y-129510000D01*
X79565000Y-129668750D01*
X79311000Y-129668750D01*
X79152250Y-129510000D01*
X79038000Y-129506928D01*
X78913518Y-129519188D01*
X78793820Y-129555498D01*
X78683506Y-129614463D01*
X78586815Y-129693815D01*
X78555590Y-129731863D01*
X78453608Y-129648169D01*
X78308716Y-129570722D01*
X78151500Y-129523031D01*
X77988000Y-129506928D01*
X77749730Y-129506928D01*
X77383800Y-129140999D01*
X77383800Y-127422072D01*
X78587500Y-127422072D01*
X78711982Y-127409812D01*
X78831680Y-127373502D01*
X78941994Y-127314537D01*
X79038685Y-127235185D01*
X79118037Y-127138494D01*
X79177002Y-127028180D01*
X79213312Y-126908482D01*
X79214143Y-126900039D01*
X79412741Y-127098637D01*
X79647773Y-127255680D01*
X79908926Y-127363853D01*
X80186165Y-127419000D01*
X80468835Y-127419000D01*
X80746074Y-127363853D01*
X81007227Y-127255680D01*
X81242259Y-127098637D01*
X81442137Y-126898759D01*
X81597500Y-126666241D01*
X81752863Y-126898759D01*
%TA.AperFunction,Conductor*%
D18*
G36*
X81752863Y-126898759D02*
G01*
X81952741Y-127098637D01*
X82187773Y-127255680D01*
X82448926Y-127363853D01*
X82726165Y-127419000D01*
X83008835Y-127419000D01*
X83286074Y-127363853D01*
X83377500Y-127325983D01*
X83377501Y-129178897D01*
X79943498Y-132612901D01*
X79914500Y-132636699D01*
X79890702Y-132665697D01*
X79890701Y-132665698D01*
X79819526Y-132752424D01*
X79748954Y-132884454D01*
X79705498Y-133027715D01*
X79700343Y-133080052D01*
X79539741Y-133187363D01*
X79339863Y-133387241D01*
X79184500Y-133619759D01*
X79029137Y-133387241D01*
X78829259Y-133187363D01*
X78668658Y-133080053D01*
X78663503Y-133027714D01*
X78620046Y-132884453D01*
X78549474Y-132752424D01*
X78548000Y-132750628D01*
X78548000Y-131514365D01*
X78555590Y-131508137D01*
X78586815Y-131546185D01*
X78683506Y-131625537D01*
X78793820Y-131684502D01*
X78913518Y-131720812D01*
X79038000Y-131733072D01*
X79152250Y-131730000D01*
X79311000Y-131571250D01*
X79311000Y-130747000D01*
X79565000Y-130747000D01*
X79565000Y-131571250D01*
X79723750Y-131730000D01*
X79838000Y-131733072D01*
X79962482Y-131720812D01*
X80082180Y-131684502D01*
X80192494Y-131625537D01*
X80289185Y-131546185D01*
X80368537Y-131449494D01*
X80427502Y-131339180D01*
X80463812Y-131219482D01*
X80476072Y-131095000D01*
X80473000Y-130905750D01*
X80314250Y-130747000D01*
X79565000Y-130747000D01*
X79311000Y-130747000D01*
X79291000Y-130747000D01*
X79291000Y-130493000D01*
X79311000Y-130493000D01*
X79311000Y-129668750D01*
X79565000Y-129668750D01*
X79565000Y-130493000D01*
X80314250Y-130493000D01*
X80473000Y-130334250D01*
X80476072Y-130145000D01*
X80463812Y-130020518D01*
X80427502Y-129900820D01*
X80368537Y-129790506D01*
X80289185Y-129693815D01*
X80192494Y-129614463D01*
X80082180Y-129555498D01*
X79962482Y-129519188D01*
X79838000Y-129506928D01*
X79723750Y-129510000D01*
X79565000Y-129668750D01*
X79311000Y-129668750D01*
X79152250Y-129510000D01*
X79038000Y-129506928D01*
X78913518Y-129519188D01*
X78793820Y-129555498D01*
X78683506Y-129614463D01*
X78586815Y-129693815D01*
X78555590Y-129731863D01*
X78453608Y-129648169D01*
X78308716Y-129570722D01*
X78151500Y-129523031D01*
X77988000Y-129506928D01*
X77749730Y-129506928D01*
X77383800Y-129140999D01*
X77383800Y-127422072D01*
X78587500Y-127422072D01*
X78711982Y-127409812D01*
X78831680Y-127373502D01*
X78941994Y-127314537D01*
X79038685Y-127235185D01*
X79118037Y-127138494D01*
X79177002Y-127028180D01*
X79213312Y-126908482D01*
X79214143Y-126900039D01*
X79412741Y-127098637D01*
X79647773Y-127255680D01*
X79908926Y-127363853D01*
X80186165Y-127419000D01*
X80468835Y-127419000D01*
X80746074Y-127363853D01*
X81007227Y-127255680D01*
X81242259Y-127098637D01*
X81442137Y-126898759D01*
X81597500Y-126666241D01*
X81752863Y-126898759D01*
G37*
%TD.AperFunction*%
D17*
X127538701Y-117212696D02*
X120456498Y-124294901D01*
X120427500Y-124318699D01*
X120403702Y-124347697D01*
X120403701Y-124347698D01*
X120332526Y-124434424D01*
X120261954Y-124566454D01*
X120243225Y-124628198D01*
X120218498Y-124709714D01*
X120217985Y-124714924D01*
X120213343Y-124762052D01*
X120052741Y-124869363D01*
X119852863Y-125069241D01*
X119697500Y-125301759D01*
X119542137Y-125069241D01*
X119342259Y-124869363D01*
X119107227Y-124712320D01*
X118846074Y-124604147D01*
X118568835Y-124549000D01*
X118286165Y-124549000D01*
X118008926Y-124604147D01*
X117747773Y-124712320D01*
X117512741Y-124869363D01*
X117312863Y-125069241D01*
X117157500Y-125301759D01*
X117002137Y-125069241D01*
X116876949Y-124944053D01*
X127538701Y-114282301D01*
X127538701Y-117212696D01*
%TA.AperFunction,Conductor*%
D18*
G36*
X127538701Y-117212696D02*
G01*
X120456498Y-124294901D01*
X120427500Y-124318699D01*
X120403702Y-124347697D01*
X120403701Y-124347698D01*
X120332526Y-124434424D01*
X120261954Y-124566454D01*
X120243225Y-124628198D01*
X120218498Y-124709714D01*
X120217985Y-124714924D01*
X120213343Y-124762052D01*
X120052741Y-124869363D01*
X119852863Y-125069241D01*
X119697500Y-125301759D01*
X119542137Y-125069241D01*
X119342259Y-124869363D01*
X119107227Y-124712320D01*
X118846074Y-124604147D01*
X118568835Y-124549000D01*
X118286165Y-124549000D01*
X118008926Y-124604147D01*
X117747773Y-124712320D01*
X117512741Y-124869363D01*
X117312863Y-125069241D01*
X117157500Y-125301759D01*
X117002137Y-125069241D01*
X116876949Y-124944053D01*
X127538701Y-114282301D01*
X127538701Y-117212696D01*
G37*
%TD.AperFunction*%
D17*
X89372863Y-111658759D02*
X89572741Y-111858637D01*
X89807773Y-112015680D01*
X90068926Y-112123853D01*
X90346165Y-112179000D01*
X90628835Y-112179000D01*
X90906074Y-112123853D01*
X91142100Y-112026088D01*
X91142100Y-112478089D01*
X91098163Y-112522026D01*
X90984895Y-112691544D01*
X90906874Y-112879902D01*
X90867100Y-113079861D01*
X90867100Y-113283739D01*
X90906874Y-113483698D01*
X90984895Y-113672056D01*
X91098163Y-113841574D01*
X91145743Y-113889154D01*
X80936199Y-124098700D01*
X80364833Y-124098700D01*
X80327500Y-124095023D01*
X80290167Y-124098700D01*
X80178514Y-124109697D01*
X80035253Y-124153154D01*
X79903224Y-124223726D01*
X79787499Y-124318699D01*
X79692526Y-124434424D01*
X79621954Y-124566453D01*
X79578497Y-124709714D01*
X79573342Y-124762053D01*
X79412741Y-124869363D01*
X79214143Y-125067961D01*
X79213312Y-125059518D01*
X79177002Y-124939820D01*
X79118037Y-124829506D01*
X79038685Y-124732815D01*
X78941994Y-124653463D01*
X78831680Y-124594498D01*
X78711982Y-124558188D01*
X78587500Y-124545928D01*
X77383800Y-124545928D01*
X77383800Y-112126812D01*
X77646165Y-112179000D01*
X77928835Y-112179000D01*
X78206074Y-112123853D01*
X78467227Y-112015680D01*
X78702259Y-111858637D01*
X78902137Y-111658759D01*
X79057500Y-111426241D01*
X79212863Y-111658759D01*
X79412741Y-111858637D01*
X79647773Y-112015680D01*
X79908926Y-112123853D01*
X80186165Y-112179000D01*
X80468835Y-112179000D01*
X80746074Y-112123853D01*
X81007227Y-112015680D01*
X81242259Y-111858637D01*
X81442137Y-111658759D01*
X81597500Y-111426241D01*
X81752863Y-111658759D01*
X81952741Y-111858637D01*
X82187773Y-112015680D01*
X82448926Y-112123853D01*
X82726165Y-112179000D01*
X83008835Y-112179000D01*
X83286074Y-112123853D01*
X83547227Y-112015680D01*
X83782259Y-111858637D01*
X83982137Y-111658759D01*
X84137500Y-111426241D01*
X84292863Y-111658759D01*
X84492741Y-111858637D01*
X84727773Y-112015680D01*
X84988926Y-112123853D01*
X85266165Y-112179000D01*
X85548835Y-112179000D01*
X85826074Y-112123853D01*
X86087227Y-112015680D01*
X86322259Y-111858637D01*
X86522137Y-111658759D01*
X86677500Y-111426241D01*
X86832863Y-111658759D01*
X87032741Y-111858637D01*
X87267773Y-112015680D01*
X87528926Y-112123853D01*
X87806165Y-112179000D01*
X88088835Y-112179000D01*
X88366074Y-112123853D01*
X88627227Y-112015680D01*
X88862259Y-111858637D01*
X89062137Y-111658759D01*
X89217500Y-111426241D01*
X89372863Y-111658759D01*
%TA.AperFunction,Conductor*%
D18*
G36*
X89372863Y-111658759D02*
G01*
X89572741Y-111858637D01*
X89807773Y-112015680D01*
X90068926Y-112123853D01*
X90346165Y-112179000D01*
X90628835Y-112179000D01*
X90906074Y-112123853D01*
X91142100Y-112026088D01*
X91142100Y-112478089D01*
X91098163Y-112522026D01*
X90984895Y-112691544D01*
X90906874Y-112879902D01*
X90867100Y-113079861D01*
X90867100Y-113283739D01*
X90906874Y-113483698D01*
X90984895Y-113672056D01*
X91098163Y-113841574D01*
X91145743Y-113889154D01*
X80936199Y-124098700D01*
X80364833Y-124098700D01*
X80327500Y-124095023D01*
X80290167Y-124098700D01*
X80178514Y-124109697D01*
X80035253Y-124153154D01*
X79903224Y-124223726D01*
X79787499Y-124318699D01*
X79692526Y-124434424D01*
X79621954Y-124566453D01*
X79578497Y-124709714D01*
X79573342Y-124762053D01*
X79412741Y-124869363D01*
X79214143Y-125067961D01*
X79213312Y-125059518D01*
X79177002Y-124939820D01*
X79118037Y-124829506D01*
X79038685Y-124732815D01*
X78941994Y-124653463D01*
X78831680Y-124594498D01*
X78711982Y-124558188D01*
X78587500Y-124545928D01*
X77383800Y-124545928D01*
X77383800Y-112126812D01*
X77646165Y-112179000D01*
X77928835Y-112179000D01*
X78206074Y-112123853D01*
X78467227Y-112015680D01*
X78702259Y-111858637D01*
X78902137Y-111658759D01*
X79057500Y-111426241D01*
X79212863Y-111658759D01*
X79412741Y-111858637D01*
X79647773Y-112015680D01*
X79908926Y-112123853D01*
X80186165Y-112179000D01*
X80468835Y-112179000D01*
X80746074Y-112123853D01*
X81007227Y-112015680D01*
X81242259Y-111858637D01*
X81442137Y-111658759D01*
X81597500Y-111426241D01*
X81752863Y-111658759D01*
X81952741Y-111858637D01*
X82187773Y-112015680D01*
X82448926Y-112123853D01*
X82726165Y-112179000D01*
X83008835Y-112179000D01*
X83286074Y-112123853D01*
X83547227Y-112015680D01*
X83782259Y-111858637D01*
X83982137Y-111658759D01*
X84137500Y-111426241D01*
X84292863Y-111658759D01*
X84492741Y-111858637D01*
X84727773Y-112015680D01*
X84988926Y-112123853D01*
X85266165Y-112179000D01*
X85548835Y-112179000D01*
X85826074Y-112123853D01*
X86087227Y-112015680D01*
X86322259Y-111858637D01*
X86522137Y-111658759D01*
X86677500Y-111426241D01*
X86832863Y-111658759D01*
X87032741Y-111858637D01*
X87267773Y-112015680D01*
X87528926Y-112123853D01*
X87806165Y-112179000D01*
X88088835Y-112179000D01*
X88366074Y-112123853D01*
X88627227Y-112015680D01*
X88862259Y-111858637D01*
X89062137Y-111658759D01*
X89217500Y-111426241D01*
X89372863Y-111658759D01*
G37*
%TD.AperFunction*%
D17*
X104118928Y-92748230D02*
X104118928Y-92921500D01*
X104135031Y-93085000D01*
X104182722Y-93242216D01*
X104260169Y-93387108D01*
X104332000Y-93474635D01*
X104332001Y-94221956D01*
X104177241Y-94325363D01*
X103977363Y-94525241D01*
X103820320Y-94760273D01*
X103712147Y-95021426D01*
X103657000Y-95298665D01*
X103657000Y-95581335D01*
X103712147Y-95858574D01*
X103820320Y-96119727D01*
X103977363Y-96354759D01*
X104177241Y-96554637D01*
X104412273Y-96711680D01*
X104673426Y-96819853D01*
X104887636Y-96862463D01*
X102470900Y-99279198D01*
X102470900Y-97278211D01*
X102514837Y-97234274D01*
X102628105Y-97064756D01*
X102706126Y-96876398D01*
X102745900Y-96676439D01*
X102745900Y-96472561D01*
X102706126Y-96272602D01*
X102628105Y-96084244D01*
X102514837Y-95914726D01*
X102370674Y-95770563D01*
X102201156Y-95657295D01*
X102012798Y-95579274D01*
X101812839Y-95539500D01*
X101608961Y-95539500D01*
X101409002Y-95579274D01*
X101220644Y-95657295D01*
X101051126Y-95770563D01*
X100906963Y-95914726D01*
X100793695Y-96084244D01*
X100715674Y-96272602D01*
X100675900Y-96472561D01*
X100675900Y-96676439D01*
X100715674Y-96876398D01*
X100793695Y-97064756D01*
X100906963Y-97234274D01*
X100950901Y-97278212D01*
X100950900Y-99945598D01*
X91391098Y-109505401D01*
X91362100Y-109529199D01*
X91338302Y-109558197D01*
X91338301Y-109558198D01*
X91323232Y-109576559D01*
X91167227Y-109472320D01*
X90906074Y-109364147D01*
X90628835Y-109309000D01*
X90346165Y-109309000D01*
X90068926Y-109364147D01*
X89807773Y-109472320D01*
X89572741Y-109629363D01*
X89372863Y-109829241D01*
X89217500Y-110061759D01*
X89062137Y-109829241D01*
X88862259Y-109629363D01*
X88627227Y-109472320D01*
X88366074Y-109364147D01*
X88088835Y-109309000D01*
X87806165Y-109309000D01*
X87528926Y-109364147D01*
X87267773Y-109472320D01*
X87032741Y-109629363D01*
X86832863Y-109829241D01*
X86677500Y-110061759D01*
X86522137Y-109829241D01*
X86322259Y-109629363D01*
X86087227Y-109472320D01*
X85826074Y-109364147D01*
X85548835Y-109309000D01*
X85266165Y-109309000D01*
X84988926Y-109364147D01*
X84727773Y-109472320D01*
X84492741Y-109629363D01*
X84292863Y-109829241D01*
X84137500Y-110061759D01*
X83982137Y-109829241D01*
X83782259Y-109629363D01*
X83547227Y-109472320D01*
X83286074Y-109364147D01*
X83008835Y-109309000D01*
X82726165Y-109309000D01*
X82448926Y-109364147D01*
X82187773Y-109472320D01*
X81952741Y-109629363D01*
X81752863Y-109829241D01*
X81597500Y-110061759D01*
X81442137Y-109829241D01*
X81242259Y-109629363D01*
X81007227Y-109472320D01*
X80746074Y-109364147D01*
X80468835Y-109309000D01*
X80186165Y-109309000D01*
X79908926Y-109364147D01*
X79647773Y-109472320D01*
X79412741Y-109629363D01*
X79212863Y-109829241D01*
X79057500Y-110061759D01*
X78902137Y-109829241D01*
X78702259Y-109629363D01*
X78467227Y-109472320D01*
X78206074Y-109364147D01*
X77928835Y-109309000D01*
X77646165Y-109309000D01*
X77383800Y-109361188D01*
X77383800Y-102260000D01*
X78254428Y-102260000D01*
X78254428Y-103860000D01*
X78266688Y-103984482D01*
X78302998Y-104104180D01*
X78361963Y-104214494D01*
X78441315Y-104311185D01*
X78538006Y-104390537D01*
X78648320Y-104449502D01*
X78768018Y-104485812D01*
X78892500Y-104498072D01*
X80492500Y-104498072D01*
X80616982Y-104485812D01*
X80736680Y-104449502D01*
X80846994Y-104390537D01*
X80943685Y-104311185D01*
X81023037Y-104214494D01*
X81082002Y-104104180D01*
X81118312Y-103984482D01*
X81119143Y-103976039D01*
X81317741Y-104174637D01*
X81552773Y-104331680D01*
X81813926Y-104439853D01*
X82091165Y-104495000D01*
X82373835Y-104495000D01*
X82651074Y-104439853D01*
X82912227Y-104331680D01*
X83147259Y-104174637D01*
X83347137Y-103974759D01*
X83454447Y-103814158D01*
X83506786Y-103809003D01*
X83540313Y-103798833D01*
X83657863Y-103974759D01*
X83857741Y-104174637D01*
X84092773Y-104331680D01*
X84353926Y-104439853D01*
X84631165Y-104495000D01*
X84913835Y-104495000D01*
X85191074Y-104439853D01*
X85452227Y-104331680D01*
X85687259Y-104174637D01*
X85887137Y-103974759D01*
X86044180Y-103739727D01*
X86048567Y-103729135D01*
X86160115Y-103915131D01*
X86349086Y-104123519D01*
X86575080Y-104291037D01*
X86829413Y-104411246D01*
X86963461Y-104451904D01*
X87185500Y-104329915D01*
X87185500Y-103187000D01*
X87165500Y-103187000D01*
X87165500Y-102933000D01*
X87185500Y-102933000D01*
X87185500Y-102913000D01*
X87439500Y-102913000D01*
X87439500Y-102933000D01*
X87459500Y-102933000D01*
X87459500Y-103187000D01*
X87439500Y-103187000D01*
X87439500Y-104329915D01*
X87661539Y-104451904D01*
X87795587Y-104411246D01*
X88049920Y-104291037D01*
X88275914Y-104123519D01*
X88464885Y-103915131D01*
X88536180Y-103796252D01*
X88578214Y-103809003D01*
X88630553Y-103814158D01*
X88737863Y-103974759D01*
X88937741Y-104174637D01*
X89172773Y-104331680D01*
X89433926Y-104439853D01*
X89711165Y-104495000D01*
X89993835Y-104495000D01*
X90271074Y-104439853D01*
X90532227Y-104331680D01*
X90767259Y-104174637D01*
X90967137Y-103974759D01*
X91124180Y-103739727D01*
X91128567Y-103729135D01*
X91240115Y-103915131D01*
X91429086Y-104123519D01*
X91655080Y-104291037D01*
X91909413Y-104411246D01*
X92043461Y-104451904D01*
X92265500Y-104329915D01*
X92265500Y-103187000D01*
X92519500Y-103187000D01*
X92519500Y-104329915D01*
X92741539Y-104451904D01*
X92875587Y-104411246D01*
X93129920Y-104291037D01*
X93355914Y-104123519D01*
X93544885Y-103915131D01*
X93662500Y-103719018D01*
X93780115Y-103915131D01*
X93969086Y-104123519D01*
X94195080Y-104291037D01*
X94449413Y-104411246D01*
X94583461Y-104451904D01*
X94805500Y-104329915D01*
X94805500Y-103187000D01*
X95059500Y-103187000D01*
X95059500Y-104329915D01*
X95281539Y-104451904D01*
X95415587Y-104411246D01*
X95669920Y-104291037D01*
X95895914Y-104123519D01*
X96084885Y-103915131D01*
X96229570Y-103673881D01*
X96324409Y-103409040D01*
X96203124Y-103187000D01*
X95059500Y-103187000D01*
X94805500Y-103187000D01*
X92519500Y-103187000D01*
X92265500Y-103187000D01*
X92245500Y-103187000D01*
X92245500Y-102933000D01*
X92265500Y-102933000D01*
X92265500Y-101790085D01*
X92519500Y-101790085D01*
X92519500Y-102933000D01*
X94805500Y-102933000D01*
X94805500Y-101790085D01*
X95059500Y-101790085D01*
X95059500Y-102933000D01*
X96203124Y-102933000D01*
X96324409Y-102710960D01*
X96229570Y-102446119D01*
X96084885Y-102204869D01*
X95895914Y-101996481D01*
X95669920Y-101828963D01*
X95415587Y-101708754D01*
X95281539Y-101668096D01*
X95059500Y-101790085D01*
X94805500Y-101790085D01*
X94583461Y-101668096D01*
X94449413Y-101708754D01*
X94195080Y-101828963D01*
X93969086Y-101996481D01*
X93780115Y-102204869D01*
X93662500Y-102400982D01*
X93544885Y-102204869D01*
X93355914Y-101996481D01*
X93129920Y-101828963D01*
X92875587Y-101708754D01*
X92741539Y-101668096D01*
X92519500Y-101790085D01*
X92265500Y-101790085D01*
X92043461Y-101668096D01*
X91909413Y-101708754D01*
X91655080Y-101828963D01*
X91429086Y-101996481D01*
X91240115Y-102204869D01*
X91128567Y-102390865D01*
X91124180Y-102380273D01*
X90967137Y-102145241D01*
X90767259Y-101945363D01*
X90532227Y-101788320D01*
X90271074Y-101680147D01*
X89993835Y-101625000D01*
X89711165Y-101625000D01*
X89433926Y-101680147D01*
X89172773Y-101788320D01*
X88956338Y-101932937D01*
X88447103Y-101423702D01*
X88423301Y-101394699D01*
X88307576Y-101299726D01*
X88175547Y-101229154D01*
X88032286Y-101185697D01*
X87920633Y-101174700D01*
X87920622Y-101174700D01*
X87883300Y-101171024D01*
X87845978Y-101174700D01*
X84239122Y-101174700D01*
X84201799Y-101171024D01*
X84164476Y-101174700D01*
X84164467Y-101174700D01*
X84052814Y-101185697D01*
X83909553Y-101229154D01*
X83777524Y-101299726D01*
X83661799Y-101394699D01*
X83638001Y-101423697D01*
X83128722Y-101932977D01*
X82912227Y-101788320D01*
X82651074Y-101680147D01*
X82373835Y-101625000D01*
X82091165Y-101625000D01*
X81813926Y-101680147D01*
X81552773Y-101788320D01*
X81317741Y-101945363D01*
X81119143Y-102143961D01*
X81118312Y-102135518D01*
X81082002Y-102015820D01*
X81023037Y-101905506D01*
X80943685Y-101808815D01*
X80846994Y-101729463D01*
X80736680Y-101670498D01*
X80616982Y-101634188D01*
X80492500Y-101621928D01*
X78892500Y-101621928D01*
X78768018Y-101634188D01*
X78648320Y-101670498D01*
X78538006Y-101729463D01*
X78441315Y-101808815D01*
X78361963Y-101905506D01*
X78302998Y-102015820D01*
X78266688Y-102135518D01*
X78254428Y-102260000D01*
X77383800Y-102260000D01*
X77383800Y-99948801D01*
X80203503Y-97129099D01*
X80232501Y-97105301D01*
X80327474Y-96989576D01*
X80398046Y-96857547D01*
X80441503Y-96714286D01*
X80446658Y-96661947D01*
X80607259Y-96554637D01*
X80807137Y-96354759D01*
X80962500Y-96122241D01*
X81117863Y-96354759D01*
X81317741Y-96554637D01*
X81552773Y-96711680D01*
X81813926Y-96819853D01*
X82091165Y-96875000D01*
X82373835Y-96875000D01*
X82651074Y-96819853D01*
X82912227Y-96711680D01*
X83147259Y-96554637D01*
X83347137Y-96354759D01*
X83502500Y-96122241D01*
X83657863Y-96354759D01*
X83857741Y-96554637D01*
X84092773Y-96711680D01*
X84353926Y-96819853D01*
X84631165Y-96875000D01*
X84913835Y-96875000D01*
X85191074Y-96819853D01*
X85452227Y-96711680D01*
X85687259Y-96554637D01*
X85887137Y-96354759D01*
X86042500Y-96122241D01*
X86197863Y-96354759D01*
X86397741Y-96554637D01*
X86632773Y-96711680D01*
X86893926Y-96819853D01*
X87171165Y-96875000D01*
X87453835Y-96875000D01*
X87731074Y-96819853D01*
X87992227Y-96711680D01*
X88227259Y-96554637D01*
X88427137Y-96354759D01*
X88582500Y-96122241D01*
X88737863Y-96354759D01*
X88937741Y-96554637D01*
X89172773Y-96711680D01*
X89433926Y-96819853D01*
X89711165Y-96875000D01*
X89993835Y-96875000D01*
X90271074Y-96819853D01*
X90532227Y-96711680D01*
X90767259Y-96554637D01*
X90967137Y-96354759D01*
X91122500Y-96122241D01*
X91277863Y-96354759D01*
X91477741Y-96554637D01*
X91712773Y-96711680D01*
X91973926Y-96819853D01*
X92251165Y-96875000D01*
X92533835Y-96875000D01*
X92811074Y-96819853D01*
X93072227Y-96711680D01*
X93307259Y-96554637D01*
X93507137Y-96354759D01*
X93662500Y-96122241D01*
X93817863Y-96354759D01*
X94017741Y-96554637D01*
X94252773Y-96711680D01*
X94513926Y-96819853D01*
X94791165Y-96875000D01*
X95073835Y-96875000D01*
X95351074Y-96819853D01*
X95612227Y-96711680D01*
X95847259Y-96554637D01*
X96047137Y-96354759D01*
X96204180Y-96119727D01*
X96312353Y-95858574D01*
X96367500Y-95581335D01*
X96367500Y-95298665D01*
X96312353Y-95021426D01*
X96204180Y-94760273D01*
X96047137Y-94525241D01*
X95847259Y-94325363D01*
X95612227Y-94168320D01*
X95351074Y-94060147D01*
X95073835Y-94005000D01*
X94791165Y-94005000D01*
X94513926Y-94060147D01*
X94252773Y-94168320D01*
X94017741Y-94325363D01*
X93817863Y-94525241D01*
X93662500Y-94757759D01*
X93507137Y-94525241D01*
X93307259Y-94325363D01*
X93072227Y-94168320D01*
X92811074Y-94060147D01*
X92533835Y-94005000D01*
X92251165Y-94005000D01*
X91973926Y-94060147D01*
X91712773Y-94168320D01*
X91477741Y-94325363D01*
X91277863Y-94525241D01*
X91122500Y-94757759D01*
X90967137Y-94525241D01*
X90767259Y-94325363D01*
X90532227Y-94168320D01*
X90271074Y-94060147D01*
X89993835Y-94005000D01*
X89711165Y-94005000D01*
X89433926Y-94060147D01*
X89172773Y-94168320D01*
X88937741Y-94325363D01*
X88737863Y-94525241D01*
X88582500Y-94757759D01*
X88427137Y-94525241D01*
X88227259Y-94325363D01*
X87992227Y-94168320D01*
X87731074Y-94060147D01*
X87453835Y-94005000D01*
X87171165Y-94005000D01*
X86893926Y-94060147D01*
X86632773Y-94168320D01*
X86397741Y-94325363D01*
X86197863Y-94525241D01*
X86042500Y-94757759D01*
X85887137Y-94525241D01*
X85687259Y-94325363D01*
X85452227Y-94168320D01*
X85191074Y-94060147D01*
X84913835Y-94005000D01*
X84631165Y-94005000D01*
X84353926Y-94060147D01*
X84092773Y-94168320D01*
X83857741Y-94325363D01*
X83657863Y-94525241D01*
X83502500Y-94757759D01*
X83347137Y-94525241D01*
X83147259Y-94325363D01*
X82912227Y-94168320D01*
X82651074Y-94060147D01*
X82373835Y-94005000D01*
X82091165Y-94005000D01*
X81813926Y-94060147D01*
X81552773Y-94168320D01*
X81317741Y-94325363D01*
X81117863Y-94525241D01*
X80962500Y-94757759D01*
X80807137Y-94525241D01*
X80607259Y-94325363D01*
X80453000Y-94222291D01*
X80453000Y-92842365D01*
X80460590Y-92836137D01*
X80491815Y-92874185D01*
X80588506Y-92953537D01*
X80698820Y-93012502D01*
X80818518Y-93048812D01*
X80943000Y-93061072D01*
X81057250Y-93058000D01*
X81216000Y-92899250D01*
X81216000Y-92075000D01*
X81470000Y-92075000D01*
X81470000Y-92899250D01*
X81628750Y-93058000D01*
X81743000Y-93061072D01*
X81867482Y-93048812D01*
X81987180Y-93012502D01*
X82097494Y-92953537D01*
X82194185Y-92874185D01*
X82273537Y-92777494D01*
X82332502Y-92667180D01*
X82368812Y-92547482D01*
X82381072Y-92423000D01*
X82378000Y-92233750D01*
X82219250Y-92075000D01*
X81470000Y-92075000D01*
X81216000Y-92075000D01*
X81196000Y-92075000D01*
X81196000Y-91896000D01*
X103266699Y-91896000D01*
X104118928Y-92748230D01*
%TA.AperFunction,Conductor*%
D18*
G36*
X104118928Y-92748230D02*
G01*
X104118928Y-92921500D01*
X104135031Y-93085000D01*
X104182722Y-93242216D01*
X104260169Y-93387108D01*
X104332000Y-93474635D01*
X104332001Y-94221956D01*
X104177241Y-94325363D01*
X103977363Y-94525241D01*
X103820320Y-94760273D01*
X103712147Y-95021426D01*
X103657000Y-95298665D01*
X103657000Y-95581335D01*
X103712147Y-95858574D01*
X103820320Y-96119727D01*
X103977363Y-96354759D01*
X104177241Y-96554637D01*
X104412273Y-96711680D01*
X104673426Y-96819853D01*
X104887636Y-96862463D01*
X102470900Y-99279198D01*
X102470900Y-97278211D01*
X102514837Y-97234274D01*
X102628105Y-97064756D01*
X102706126Y-96876398D01*
X102745900Y-96676439D01*
X102745900Y-96472561D01*
X102706126Y-96272602D01*
X102628105Y-96084244D01*
X102514837Y-95914726D01*
X102370674Y-95770563D01*
X102201156Y-95657295D01*
X102012798Y-95579274D01*
X101812839Y-95539500D01*
X101608961Y-95539500D01*
X101409002Y-95579274D01*
X101220644Y-95657295D01*
X101051126Y-95770563D01*
X100906963Y-95914726D01*
X100793695Y-96084244D01*
X100715674Y-96272602D01*
X100675900Y-96472561D01*
X100675900Y-96676439D01*
X100715674Y-96876398D01*
X100793695Y-97064756D01*
X100906963Y-97234274D01*
X100950901Y-97278212D01*
X100950900Y-99945598D01*
X91391098Y-109505401D01*
X91362100Y-109529199D01*
X91338302Y-109558197D01*
X91338301Y-109558198D01*
X91323232Y-109576559D01*
X91167227Y-109472320D01*
X90906074Y-109364147D01*
X90628835Y-109309000D01*
X90346165Y-109309000D01*
X90068926Y-109364147D01*
X89807773Y-109472320D01*
X89572741Y-109629363D01*
X89372863Y-109829241D01*
X89217500Y-110061759D01*
X89062137Y-109829241D01*
X88862259Y-109629363D01*
X88627227Y-109472320D01*
X88366074Y-109364147D01*
X88088835Y-109309000D01*
X87806165Y-109309000D01*
X87528926Y-109364147D01*
X87267773Y-109472320D01*
X87032741Y-109629363D01*
X86832863Y-109829241D01*
X86677500Y-110061759D01*
X86522137Y-109829241D01*
X86322259Y-109629363D01*
X86087227Y-109472320D01*
X85826074Y-109364147D01*
X85548835Y-109309000D01*
X85266165Y-109309000D01*
X84988926Y-109364147D01*
X84727773Y-109472320D01*
X84492741Y-109629363D01*
X84292863Y-109829241D01*
X84137500Y-110061759D01*
X83982137Y-109829241D01*
X83782259Y-109629363D01*
X83547227Y-109472320D01*
X83286074Y-109364147D01*
X83008835Y-109309000D01*
X82726165Y-109309000D01*
X82448926Y-109364147D01*
X82187773Y-109472320D01*
X81952741Y-109629363D01*
X81752863Y-109829241D01*
X81597500Y-110061759D01*
X81442137Y-109829241D01*
X81242259Y-109629363D01*
X81007227Y-109472320D01*
X80746074Y-109364147D01*
X80468835Y-109309000D01*
X80186165Y-109309000D01*
X79908926Y-109364147D01*
X79647773Y-109472320D01*
X79412741Y-109629363D01*
X79212863Y-109829241D01*
X79057500Y-110061759D01*
X78902137Y-109829241D01*
X78702259Y-109629363D01*
X78467227Y-109472320D01*
X78206074Y-109364147D01*
X77928835Y-109309000D01*
X77646165Y-109309000D01*
X77383800Y-109361188D01*
X77383800Y-102260000D01*
X78254428Y-102260000D01*
X78254428Y-103860000D01*
X78266688Y-103984482D01*
X78302998Y-104104180D01*
X78361963Y-104214494D01*
X78441315Y-104311185D01*
X78538006Y-104390537D01*
X78648320Y-104449502D01*
X78768018Y-104485812D01*
X78892500Y-104498072D01*
X80492500Y-104498072D01*
X80616982Y-104485812D01*
X80736680Y-104449502D01*
X80846994Y-104390537D01*
X80943685Y-104311185D01*
X81023037Y-104214494D01*
X81082002Y-104104180D01*
X81118312Y-103984482D01*
X81119143Y-103976039D01*
X81317741Y-104174637D01*
X81552773Y-104331680D01*
X81813926Y-104439853D01*
X82091165Y-104495000D01*
X82373835Y-104495000D01*
X82651074Y-104439853D01*
X82912227Y-104331680D01*
X83147259Y-104174637D01*
X83347137Y-103974759D01*
X83454447Y-103814158D01*
X83506786Y-103809003D01*
X83540313Y-103798833D01*
X83657863Y-103974759D01*
X83857741Y-104174637D01*
X84092773Y-104331680D01*
X84353926Y-104439853D01*
X84631165Y-104495000D01*
X84913835Y-104495000D01*
X85191074Y-104439853D01*
X85452227Y-104331680D01*
X85687259Y-104174637D01*
X85887137Y-103974759D01*
X86044180Y-103739727D01*
X86048567Y-103729135D01*
X86160115Y-103915131D01*
X86349086Y-104123519D01*
X86575080Y-104291037D01*
X86829413Y-104411246D01*
X86963461Y-104451904D01*
X87185500Y-104329915D01*
X87185500Y-103187000D01*
X87165500Y-103187000D01*
X87165500Y-102933000D01*
X87185500Y-102933000D01*
X87185500Y-102913000D01*
X87439500Y-102913000D01*
X87439500Y-102933000D01*
X87459500Y-102933000D01*
X87459500Y-103187000D01*
X87439500Y-103187000D01*
X87439500Y-104329915D01*
X87661539Y-104451904D01*
X87795587Y-104411246D01*
X88049920Y-104291037D01*
X88275914Y-104123519D01*
X88464885Y-103915131D01*
X88536180Y-103796252D01*
X88578214Y-103809003D01*
X88630553Y-103814158D01*
X88737863Y-103974759D01*
X88937741Y-104174637D01*
X89172773Y-104331680D01*
X89433926Y-104439853D01*
X89711165Y-104495000D01*
X89993835Y-104495000D01*
X90271074Y-104439853D01*
X90532227Y-104331680D01*
X90767259Y-104174637D01*
X90967137Y-103974759D01*
X91124180Y-103739727D01*
X91128567Y-103729135D01*
X91240115Y-103915131D01*
X91429086Y-104123519D01*
X91655080Y-104291037D01*
X91909413Y-104411246D01*
X92043461Y-104451904D01*
X92265500Y-104329915D01*
X92265500Y-103187000D01*
X92519500Y-103187000D01*
X92519500Y-104329915D01*
X92741539Y-104451904D01*
X92875587Y-104411246D01*
X93129920Y-104291037D01*
X93355914Y-104123519D01*
X93544885Y-103915131D01*
X93662500Y-103719018D01*
X93780115Y-103915131D01*
X93969086Y-104123519D01*
X94195080Y-104291037D01*
X94449413Y-104411246D01*
X94583461Y-104451904D01*
X94805500Y-104329915D01*
X94805500Y-103187000D01*
X95059500Y-103187000D01*
X95059500Y-104329915D01*
X95281539Y-104451904D01*
X95415587Y-104411246D01*
X95669920Y-104291037D01*
X95895914Y-104123519D01*
X96084885Y-103915131D01*
X96229570Y-103673881D01*
X96324409Y-103409040D01*
X96203124Y-103187000D01*
X95059500Y-103187000D01*
X94805500Y-103187000D01*
X92519500Y-103187000D01*
X92265500Y-103187000D01*
X92245500Y-103187000D01*
X92245500Y-102933000D01*
X92265500Y-102933000D01*
X92265500Y-101790085D01*
X92519500Y-101790085D01*
X92519500Y-102933000D01*
X94805500Y-102933000D01*
X94805500Y-101790085D01*
X95059500Y-101790085D01*
X95059500Y-102933000D01*
X96203124Y-102933000D01*
X96324409Y-102710960D01*
X96229570Y-102446119D01*
X96084885Y-102204869D01*
X95895914Y-101996481D01*
X95669920Y-101828963D01*
X95415587Y-101708754D01*
X95281539Y-101668096D01*
X95059500Y-101790085D01*
X94805500Y-101790085D01*
X94583461Y-101668096D01*
X94449413Y-101708754D01*
X94195080Y-101828963D01*
X93969086Y-101996481D01*
X93780115Y-102204869D01*
X93662500Y-102400982D01*
X93544885Y-102204869D01*
X93355914Y-101996481D01*
X93129920Y-101828963D01*
X92875587Y-101708754D01*
X92741539Y-101668096D01*
X92519500Y-101790085D01*
X92265500Y-101790085D01*
X92043461Y-101668096D01*
X91909413Y-101708754D01*
X91655080Y-101828963D01*
X91429086Y-101996481D01*
X91240115Y-102204869D01*
X91128567Y-102390865D01*
X91124180Y-102380273D01*
X90967137Y-102145241D01*
X90767259Y-101945363D01*
X90532227Y-101788320D01*
X90271074Y-101680147D01*
X89993835Y-101625000D01*
X89711165Y-101625000D01*
X89433926Y-101680147D01*
X89172773Y-101788320D01*
X88956338Y-101932937D01*
X88447103Y-101423702D01*
X88423301Y-101394699D01*
X88307576Y-101299726D01*
X88175547Y-101229154D01*
X88032286Y-101185697D01*
X87920633Y-101174700D01*
X87920622Y-101174700D01*
X87883300Y-101171024D01*
X87845978Y-101174700D01*
X84239122Y-101174700D01*
X84201799Y-101171024D01*
X84164476Y-101174700D01*
X84164467Y-101174700D01*
X84052814Y-101185697D01*
X83909553Y-101229154D01*
X83777524Y-101299726D01*
X83661799Y-101394699D01*
X83638001Y-101423697D01*
X83128722Y-101932977D01*
X82912227Y-101788320D01*
X82651074Y-101680147D01*
X82373835Y-101625000D01*
X82091165Y-101625000D01*
X81813926Y-101680147D01*
X81552773Y-101788320D01*
X81317741Y-101945363D01*
X81119143Y-102143961D01*
X81118312Y-102135518D01*
X81082002Y-102015820D01*
X81023037Y-101905506D01*
X80943685Y-101808815D01*
X80846994Y-101729463D01*
X80736680Y-101670498D01*
X80616982Y-101634188D01*
X80492500Y-101621928D01*
X78892500Y-101621928D01*
X78768018Y-101634188D01*
X78648320Y-101670498D01*
X78538006Y-101729463D01*
X78441315Y-101808815D01*
X78361963Y-101905506D01*
X78302998Y-102015820D01*
X78266688Y-102135518D01*
X78254428Y-102260000D01*
X77383800Y-102260000D01*
X77383800Y-99948801D01*
X80203503Y-97129099D01*
X80232501Y-97105301D01*
X80327474Y-96989576D01*
X80398046Y-96857547D01*
X80441503Y-96714286D01*
X80446658Y-96661947D01*
X80607259Y-96554637D01*
X80807137Y-96354759D01*
X80962500Y-96122241D01*
X81117863Y-96354759D01*
X81317741Y-96554637D01*
X81552773Y-96711680D01*
X81813926Y-96819853D01*
X82091165Y-96875000D01*
X82373835Y-96875000D01*
X82651074Y-96819853D01*
X82912227Y-96711680D01*
X83147259Y-96554637D01*
X83347137Y-96354759D01*
X83502500Y-96122241D01*
X83657863Y-96354759D01*
X83857741Y-96554637D01*
X84092773Y-96711680D01*
X84353926Y-96819853D01*
X84631165Y-96875000D01*
X84913835Y-96875000D01*
X85191074Y-96819853D01*
X85452227Y-96711680D01*
X85687259Y-96554637D01*
X85887137Y-96354759D01*
X86042500Y-96122241D01*
X86197863Y-96354759D01*
X86397741Y-96554637D01*
X86632773Y-96711680D01*
X86893926Y-96819853D01*
X87171165Y-96875000D01*
X87453835Y-96875000D01*
X87731074Y-96819853D01*
X87992227Y-96711680D01*
X88227259Y-96554637D01*
X88427137Y-96354759D01*
X88582500Y-96122241D01*
X88737863Y-96354759D01*
X88937741Y-96554637D01*
X89172773Y-96711680D01*
X89433926Y-96819853D01*
X89711165Y-96875000D01*
X89993835Y-96875000D01*
X90271074Y-96819853D01*
X90532227Y-96711680D01*
X90767259Y-96554637D01*
X90967137Y-96354759D01*
X91122500Y-96122241D01*
X91277863Y-96354759D01*
X91477741Y-96554637D01*
X91712773Y-96711680D01*
X91973926Y-96819853D01*
X92251165Y-96875000D01*
X92533835Y-96875000D01*
X92811074Y-96819853D01*
X93072227Y-96711680D01*
X93307259Y-96554637D01*
X93507137Y-96354759D01*
X93662500Y-96122241D01*
X93817863Y-96354759D01*
X94017741Y-96554637D01*
X94252773Y-96711680D01*
X94513926Y-96819853D01*
X94791165Y-96875000D01*
X95073835Y-96875000D01*
X95351074Y-96819853D01*
X95612227Y-96711680D01*
X95847259Y-96554637D01*
X96047137Y-96354759D01*
X96204180Y-96119727D01*
X96312353Y-95858574D01*
X96367500Y-95581335D01*
X96367500Y-95298665D01*
X96312353Y-95021426D01*
X96204180Y-94760273D01*
X96047137Y-94525241D01*
X95847259Y-94325363D01*
X95612227Y-94168320D01*
X95351074Y-94060147D01*
X95073835Y-94005000D01*
X94791165Y-94005000D01*
X94513926Y-94060147D01*
X94252773Y-94168320D01*
X94017741Y-94325363D01*
X93817863Y-94525241D01*
X93662500Y-94757759D01*
X93507137Y-94525241D01*
X93307259Y-94325363D01*
X93072227Y-94168320D01*
X92811074Y-94060147D01*
X92533835Y-94005000D01*
X92251165Y-94005000D01*
X91973926Y-94060147D01*
X91712773Y-94168320D01*
X91477741Y-94325363D01*
X91277863Y-94525241D01*
X91122500Y-94757759D01*
X90967137Y-94525241D01*
X90767259Y-94325363D01*
X90532227Y-94168320D01*
X90271074Y-94060147D01*
X89993835Y-94005000D01*
X89711165Y-94005000D01*
X89433926Y-94060147D01*
X89172773Y-94168320D01*
X88937741Y-94325363D01*
X88737863Y-94525241D01*
X88582500Y-94757759D01*
X88427137Y-94525241D01*
X88227259Y-94325363D01*
X87992227Y-94168320D01*
X87731074Y-94060147D01*
X87453835Y-94005000D01*
X87171165Y-94005000D01*
X86893926Y-94060147D01*
X86632773Y-94168320D01*
X86397741Y-94325363D01*
X86197863Y-94525241D01*
X86042500Y-94757759D01*
X85887137Y-94525241D01*
X85687259Y-94325363D01*
X85452227Y-94168320D01*
X85191074Y-94060147D01*
X84913835Y-94005000D01*
X84631165Y-94005000D01*
X84353926Y-94060147D01*
X84092773Y-94168320D01*
X83857741Y-94325363D01*
X83657863Y-94525241D01*
X83502500Y-94757759D01*
X83347137Y-94525241D01*
X83147259Y-94325363D01*
X82912227Y-94168320D01*
X82651074Y-94060147D01*
X82373835Y-94005000D01*
X82091165Y-94005000D01*
X81813926Y-94060147D01*
X81552773Y-94168320D01*
X81317741Y-94325363D01*
X81117863Y-94525241D01*
X80962500Y-94757759D01*
X80807137Y-94525241D01*
X80607259Y-94325363D01*
X80453000Y-94222291D01*
X80453000Y-92842365D01*
X80460590Y-92836137D01*
X80491815Y-92874185D01*
X80588506Y-92953537D01*
X80698820Y-93012502D01*
X80818518Y-93048812D01*
X80943000Y-93061072D01*
X81057250Y-93058000D01*
X81216000Y-92899250D01*
X81216000Y-92075000D01*
X81470000Y-92075000D01*
X81470000Y-92899250D01*
X81628750Y-93058000D01*
X81743000Y-93061072D01*
X81867482Y-93048812D01*
X81987180Y-93012502D01*
X82097494Y-92953537D01*
X82194185Y-92874185D01*
X82273537Y-92777494D01*
X82332502Y-92667180D01*
X82368812Y-92547482D01*
X82381072Y-92423000D01*
X82378000Y-92233750D01*
X82219250Y-92075000D01*
X81470000Y-92075000D01*
X81216000Y-92075000D01*
X81196000Y-92075000D01*
X81196000Y-91896000D01*
X103266699Y-91896000D01*
X104118928Y-92748230D01*
G37*
%TD.AperFunction*%
D17*
X119594580Y-104291037D02*
X119848913Y-104411246D01*
X119982961Y-104451904D01*
X120204998Y-104329916D01*
X120204998Y-104402801D01*
X115749099Y-108858700D01*
X115354023Y-108858700D01*
X115316700Y-108855024D01*
X115279377Y-108858700D01*
X115279367Y-108858700D01*
X115167714Y-108869697D01*
X115024453Y-108913154D01*
X114892424Y-108983726D01*
X114776699Y-109078699D01*
X114752901Y-109107697D01*
X114243662Y-109616937D01*
X114040328Y-109481074D01*
X119385411Y-104135991D01*
X119594580Y-104291037D01*
%TA.AperFunction,Conductor*%
D18*
G36*
X119594580Y-104291037D02*
G01*
X119848913Y-104411246D01*
X119982961Y-104451904D01*
X120204998Y-104329916D01*
X120204998Y-104402801D01*
X115749099Y-108858700D01*
X115354023Y-108858700D01*
X115316700Y-108855024D01*
X115279377Y-108858700D01*
X115279367Y-108858700D01*
X115167714Y-108869697D01*
X115024453Y-108913154D01*
X114892424Y-108983726D01*
X114776699Y-109078699D01*
X114752901Y-109107697D01*
X114243662Y-109616937D01*
X114040328Y-109481074D01*
X119385411Y-104135991D01*
X119594580Y-104291037D01*
G37*
%TD.AperFunction*%
D17*
X134040320Y-82836727D02*
X134184977Y-83053221D01*
X131962198Y-85276001D01*
X131933200Y-85299799D01*
X131909402Y-85328797D01*
X131909401Y-85328798D01*
X131838226Y-85415524D01*
X131767654Y-85547554D01*
X131737380Y-85647358D01*
X131724198Y-85690814D01*
X131723564Y-85697247D01*
X131709524Y-85839800D01*
X131713201Y-85877132D01*
X131713200Y-91720900D01*
X131645961Y-91720900D01*
X131446002Y-91760674D01*
X131257644Y-91838695D01*
X131088126Y-91951963D01*
X130943963Y-92096126D01*
X130830695Y-92265644D01*
X130752674Y-92454002D01*
X130712900Y-92653961D01*
X130712900Y-92716098D01*
X130380502Y-93048497D01*
X130351499Y-93072299D01*
X130311121Y-93121500D01*
X130256526Y-93188024D01*
X130193886Y-93305214D01*
X130185954Y-93320054D01*
X130142497Y-93463315D01*
X130131500Y-93574968D01*
X130131500Y-93574978D01*
X130127824Y-93612300D01*
X130131500Y-93649623D01*
X130131501Y-94476297D01*
X129948691Y-94659107D01*
X129866385Y-94521869D01*
X129677414Y-94313481D01*
X129451420Y-94145963D01*
X129197087Y-94025754D01*
X129063039Y-93985096D01*
X128841000Y-94107085D01*
X128841000Y-95250000D01*
X128861000Y-95250000D01*
X128861000Y-95504000D01*
X128841000Y-95504000D01*
X128841000Y-95524000D01*
X128587000Y-95524000D01*
X128587000Y-95504000D01*
X127443376Y-95504000D01*
X127322091Y-95726040D01*
X127416930Y-95990881D01*
X127561615Y-96232131D01*
X127750586Y-96440519D01*
X127976580Y-96608037D01*
X127992321Y-96615477D01*
X121674801Y-102932998D01*
X121602625Y-102932998D01*
X121723909Y-102710960D01*
X121629070Y-102446119D01*
X121484385Y-102204869D01*
X121295414Y-101996481D01*
X121069420Y-101828963D01*
X120815087Y-101708754D01*
X120681039Y-101668096D01*
X120459000Y-101790085D01*
X120459000Y-102933000D01*
X120479000Y-102933000D01*
X120479000Y-103187000D01*
X120459000Y-103187000D01*
X120459000Y-103207000D01*
X120205000Y-103207000D01*
X120205000Y-103187000D01*
X120185000Y-103187000D01*
X120185000Y-102933000D01*
X120205000Y-102933000D01*
X120205000Y-101790085D01*
X119982961Y-101668096D01*
X119848913Y-101708754D01*
X119749000Y-101755977D01*
X119749000Y-101339501D01*
X125597903Y-95490599D01*
X125626901Y-95466801D01*
X125679534Y-95402668D01*
X125721874Y-95351077D01*
X125792446Y-95219047D01*
X125807461Y-95169547D01*
X125835903Y-95075786D01*
X125840613Y-95027960D01*
X127322091Y-95027960D01*
X127443376Y-95250000D01*
X128587000Y-95250000D01*
X128587000Y-94107085D01*
X128364961Y-93985096D01*
X128230913Y-94025754D01*
X127976580Y-94145963D01*
X127750586Y-94313481D01*
X127561615Y-94521869D01*
X127416930Y-94763119D01*
X127322091Y-95027960D01*
X125840613Y-95027960D01*
X125846900Y-94964133D01*
X125846900Y-94964123D01*
X125850576Y-94926800D01*
X125846900Y-94889477D01*
X125846900Y-91000901D01*
X134031754Y-82816048D01*
X134040320Y-82836727D01*
%TA.AperFunction,Conductor*%
D18*
G36*
X134040320Y-82836727D02*
G01*
X134184977Y-83053221D01*
X131962198Y-85276001D01*
X131933200Y-85299799D01*
X131909402Y-85328797D01*
X131909401Y-85328798D01*
X131838226Y-85415524D01*
X131767654Y-85547554D01*
X131737380Y-85647358D01*
X131724198Y-85690814D01*
X131723564Y-85697247D01*
X131709524Y-85839800D01*
X131713201Y-85877132D01*
X131713200Y-91720900D01*
X131645961Y-91720900D01*
X131446002Y-91760674D01*
X131257644Y-91838695D01*
X131088126Y-91951963D01*
X130943963Y-92096126D01*
X130830695Y-92265644D01*
X130752674Y-92454002D01*
X130712900Y-92653961D01*
X130712900Y-92716098D01*
X130380502Y-93048497D01*
X130351499Y-93072299D01*
X130311121Y-93121500D01*
X130256526Y-93188024D01*
X130193886Y-93305214D01*
X130185954Y-93320054D01*
X130142497Y-93463315D01*
X130131500Y-93574968D01*
X130131500Y-93574978D01*
X130127824Y-93612300D01*
X130131500Y-93649623D01*
X130131501Y-94476297D01*
X129948691Y-94659107D01*
X129866385Y-94521869D01*
X129677414Y-94313481D01*
X129451420Y-94145963D01*
X129197087Y-94025754D01*
X129063039Y-93985096D01*
X128841000Y-94107085D01*
X128841000Y-95250000D01*
X128861000Y-95250000D01*
X128861000Y-95504000D01*
X128841000Y-95504000D01*
X128841000Y-95524000D01*
X128587000Y-95524000D01*
X128587000Y-95504000D01*
X127443376Y-95504000D01*
X127322091Y-95726040D01*
X127416930Y-95990881D01*
X127561615Y-96232131D01*
X127750586Y-96440519D01*
X127976580Y-96608037D01*
X127992321Y-96615477D01*
X121674801Y-102932998D01*
X121602625Y-102932998D01*
X121723909Y-102710960D01*
X121629070Y-102446119D01*
X121484385Y-102204869D01*
X121295414Y-101996481D01*
X121069420Y-101828963D01*
X120815087Y-101708754D01*
X120681039Y-101668096D01*
X120459000Y-101790085D01*
X120459000Y-102933000D01*
X120479000Y-102933000D01*
X120479000Y-103187000D01*
X120459000Y-103187000D01*
X120459000Y-103207000D01*
X120205000Y-103207000D01*
X120205000Y-103187000D01*
X120185000Y-103187000D01*
X120185000Y-102933000D01*
X120205000Y-102933000D01*
X120205000Y-101790085D01*
X119982961Y-101668096D01*
X119848913Y-101708754D01*
X119749000Y-101755977D01*
X119749000Y-101339501D01*
X125597903Y-95490599D01*
X125626901Y-95466801D01*
X125679534Y-95402668D01*
X125721874Y-95351077D01*
X125792446Y-95219047D01*
X125807461Y-95169547D01*
X125835903Y-95075786D01*
X125840613Y-95027960D01*
X127322091Y-95027960D01*
X127443376Y-95250000D01*
X128587000Y-95250000D01*
X128587000Y-94107085D01*
X128364961Y-93985096D01*
X128230913Y-94025754D01*
X127976580Y-94145963D01*
X127750586Y-94313481D01*
X127561615Y-94521869D01*
X127416930Y-94763119D01*
X127322091Y-95027960D01*
X125840613Y-95027960D01*
X125846900Y-94964133D01*
X125846900Y-94964123D01*
X125850576Y-94926800D01*
X125846900Y-94889477D01*
X125846900Y-91000901D01*
X134031754Y-82816048D01*
X134040320Y-82836727D01*
G37*
%TD.AperFunction*%
%TD*%
M02*
