M48
METRIC,TZ
T1C0.400
T2C0.800
T3C1.000
%
G90
G05
T1
X81597Y-106553
X81597Y-117094
X85916Y-128333
X87335Y-98910
X91902Y-113182
X94361Y-92774
X100964Y-106114
X101711Y-96575
X105984Y-91823
X108458Y-134747
X113982Y-100664
X117856Y-106109
X123126Y-100457
X125476Y-117919
X131699Y-64325
X131748Y-92756
X133794Y-61182
X137614Y-93723
X142304Y-61658
X142304Y-64389
X142367Y-58928
X142367Y-66866
X142367Y-69342
X142367Y-71882
X142431Y-74486
X142431Y-76962
X142431Y-79566
X142684Y-97218
X142939Y-101283
X143193Y-104902
X145796Y-89789
X145860Y-82233
X145860Y-84773
X145860Y-87186
X152972Y-109030
T2
X128714Y-95377
X128714Y-102997
X77914Y-134302
X77914Y-141922
X80455Y-134302
X80455Y-141922
X82995Y-134302
X82995Y-141922
X85534Y-134302
X85534Y-141922
X77788Y-110744
X77788Y-125984
X80328Y-110744
X80328Y-125984
X82868Y-110744
X82868Y-125984
X85408Y-110744
X85408Y-125984
X87948Y-110744
X87948Y-125984
X90488Y-110744
X90488Y-125984
X93027Y-110744
X93027Y-125984
X95568Y-110744
X95568Y-125984
X98108Y-110744
X98108Y-125984
X100648Y-110744
X100648Y-125984
X103188Y-110744
X103188Y-125984
X105727Y-110744
X105727Y-125984
X108268Y-110744
X108268Y-125984
X110807Y-110744
X110807Y-125984
X113348Y-110744
X113348Y-125984
X115888Y-110744
X115888Y-125984
X118427Y-110744
X118427Y-125984
X120968Y-110744
X120968Y-125984
X123507Y-110744
X123507Y-125984
X126048Y-110744
X126048Y-125984
X79693Y-95440
X79693Y-103060
X82233Y-95440
X82233Y-103060
X84773Y-95440
X84773Y-103060
X87313Y-95440
X87313Y-103060
X89852Y-95440
X89852Y-103060
X92393Y-95440
X92393Y-103060
X94933Y-95440
X94933Y-103060
X105092Y-95440
X105092Y-103060
X107632Y-95440
X107632Y-103060
X110172Y-95440
X110172Y-103060
X112712Y-95440
X112712Y-103060
X115252Y-95440
X115252Y-103060
X117792Y-95440
X117792Y-103060
X120332Y-95440
X120332Y-103060
X135312Y-59297
X135312Y-61837
X135312Y-64377
X135312Y-66917
X135312Y-69457
X135312Y-71997
X135312Y-74537
X135312Y-77077
X135312Y-79617
X135312Y-82157
X135312Y-84697
X135312Y-87237
X135312Y-89777
X135312Y-92317
X135312Y-94857
X135312Y-97397
X135312Y-99937
X135312Y-102477
X135312Y-105017
X135312Y-107557
X150552Y-59297
X150552Y-61837
X150552Y-64377
X150552Y-66917
X150552Y-69457
X150552Y-71997
X150552Y-74537
X150552Y-77077
X150552Y-79617
X150552Y-82157
X150552Y-84697
X150552Y-87237
X150552Y-89777
X150552Y-92317
X150552Y-94857
X150552Y-97397
X150552Y-99937
X150552Y-102477
X150552Y-105017
X150552Y-107557
T3
X103505Y-135318
X103505Y-137858
X103505Y-140398
T0
M30
