%FSLAX45Y45*%
G04 Gerber Fmt 4.5, Leading zero omitted, Abs format (unit mm)*
G04 Created by KiCad (PCBNEW (5.1.7)-1) date 2021-07-10 09:41:06*
%MOMM*%
%LPD*%
G01*
G04 APERTURE LIST*
%TA.AperFunction,Profile*%
%ADD10C,0.050000*%
%TD*%
%ADD11C,0.200000*%
%ADD12C,0.300000*%
G04 APERTURE END LIST*
D10*
X10160000Y-8890000D02*
X11430000Y-7613650D01*
X15430500Y-5715000D02*
X15430500Y-11049000D01*
X11430000Y-5715000D02*
X15430500Y-5715000D01*
X11430000Y-7613650D02*
X11430000Y-5715000D01*
X7429500Y-8890000D02*
X10160000Y-8890000D01*
X7423150Y-14605000D02*
X7429500Y-8890000D01*
X12954000Y-14605000D02*
X7423150Y-14605000D01*
X12954000Y-11049000D02*
X12954000Y-14605000D01*
X15430500Y-11049000D02*
X12954000Y-11049000D01*
D11*
D12*
X7707078Y-15073214D02*
X7707078Y-14773214D01*
X7778507Y-14773214D01*
X7821364Y-14787500D01*
X7849936Y-14816071D01*
X7864221Y-14844643D01*
X7878507Y-14901786D01*
X7878507Y-14944643D01*
X7864221Y-15001786D01*
X7849936Y-15030357D01*
X7821364Y-15058929D01*
X7778507Y-15073214D01*
X7707078Y-15073214D01*
X8007078Y-15073214D02*
X8007078Y-14873214D01*
X8007078Y-14930357D02*
X8021364Y-14901786D01*
X8035650Y-14887500D01*
X8064221Y-14873214D01*
X8092793Y-14873214D01*
X8192793Y-15073214D02*
X8192793Y-14873214D01*
X8192793Y-14773214D02*
X8178507Y-14787500D01*
X8192793Y-14801786D01*
X8207078Y-14787500D01*
X8192793Y-14773214D01*
X8192793Y-14801786D01*
X8378507Y-15073214D02*
X8349936Y-15058929D01*
X8335650Y-15030357D01*
X8335650Y-14773214D01*
X8535650Y-15073214D02*
X8507078Y-15058929D01*
X8492793Y-15030357D01*
X8492793Y-14773214D01*
X8878507Y-15073214D02*
X8878507Y-14773214D01*
X8978507Y-14987500D01*
X9078507Y-14773214D01*
X9078507Y-15073214D01*
X9349936Y-15073214D02*
X9349936Y-14916071D01*
X9335650Y-14887500D01*
X9307078Y-14873214D01*
X9249936Y-14873214D01*
X9221364Y-14887500D01*
X9349936Y-15058929D02*
X9321364Y-15073214D01*
X9249936Y-15073214D01*
X9221364Y-15058929D01*
X9207078Y-15030357D01*
X9207078Y-15001786D01*
X9221364Y-14973214D01*
X9249936Y-14958929D01*
X9321364Y-14958929D01*
X9349936Y-14944643D01*
X9492793Y-14873214D02*
X9492793Y-15173214D01*
X9492793Y-14887500D02*
X9521364Y-14873214D01*
X9578507Y-14873214D01*
X9607078Y-14887500D01*
X9621364Y-14901786D01*
X9635650Y-14930357D01*
X9635650Y-15016071D01*
X9621364Y-15044643D01*
X9607078Y-15058929D01*
X9578507Y-15073214D01*
X9521364Y-15073214D01*
X9492793Y-15058929D01*
X9764221Y-15044643D02*
X9778507Y-15058929D01*
X9764221Y-15073214D01*
X9749936Y-15058929D01*
X9764221Y-15044643D01*
X9764221Y-15073214D01*
X9764221Y-14887500D02*
X9778507Y-14901786D01*
X9764221Y-14916071D01*
X9749936Y-14901786D01*
X9764221Y-14887500D01*
X9764221Y-14916071D01*
M02*
