%TF.GenerationSoftware,KiCad,Pcbnew,(5.1.7)-1*%
%TF.CreationDate,2021-07-10T09:41:01+01:00*%
%TF.ProjectId,Apricot-Floppy-Controller-daughter-board,41707269-636f-4742-9d46-6c6f7070792d,rev?*%
%TF.SameCoordinates,Original*%
%TF.FileFunction,Soldermask,Top*%
%TF.FilePolarity,Negative*%
%FSLAX46Y46*%
G04 Gerber Fmt 4.6, Leading zero omitted, Abs format (unit mm)*
G04 Created by KiCad (PCBNEW (5.1.7)-1) date 2021-07-10 09:41:01*
%MOMM*%
%LPD*%
G01*
G04 APERTURE LIST*
%ADD10O,1.600000X1.600000*%
%ADD11C,1.600000*%
%ADD12R,1.600000X1.600000*%
%ADD13O,1.700000X1.700000*%
%ADD14R,1.700000X1.700000*%
G04 APERTURE END LIST*
%TO.C,C3*%
G36*
G01*
X79038000Y-130895000D02*
X79038000Y-130345000D01*
G75*
G02*
X79238000Y-130145000I200000J0D01*
G01*
X79638000Y-130145000D01*
G75*
G02*
X79838000Y-130345000I0J-200000D01*
G01*
X79838000Y-130895000D01*
G75*
G02*
X79638000Y-131095000I-200000J0D01*
G01*
X79238000Y-131095000D01*
G75*
G02*
X79038000Y-130895000I0J200000D01*
G01*
G37*
G36*
G01*
X77388000Y-130895000D02*
X77388000Y-130345000D01*
G75*
G02*
X77588000Y-130145000I200000J0D01*
G01*
X77988000Y-130145000D01*
G75*
G02*
X78188000Y-130345000I0J-200000D01*
G01*
X78188000Y-130895000D01*
G75*
G02*
X77988000Y-131095000I-200000J0D01*
G01*
X77588000Y-131095000D01*
G75*
G02*
X77388000Y-130895000I0J200000D01*
G01*
G37*
%TD*%
%TO.C,C2*%
G36*
G01*
X106407000Y-92921500D02*
X106407000Y-92371500D01*
G75*
G02*
X106607000Y-92171500I200000J0D01*
G01*
X107007000Y-92171500D01*
G75*
G02*
X107207000Y-92371500I0J-200000D01*
G01*
X107207000Y-92921500D01*
G75*
G02*
X107007000Y-93121500I-200000J0D01*
G01*
X106607000Y-93121500D01*
G75*
G02*
X106407000Y-92921500I0J200000D01*
G01*
G37*
G36*
G01*
X104757000Y-92921500D02*
X104757000Y-92371500D01*
G75*
G02*
X104957000Y-92171500I200000J0D01*
G01*
X105357000Y-92171500D01*
G75*
G02*
X105557000Y-92371500I0J-200000D01*
G01*
X105557000Y-92921500D01*
G75*
G02*
X105357000Y-93121500I-200000J0D01*
G01*
X104957000Y-93121500D01*
G75*
G02*
X104757000Y-92921500I0J200000D01*
G01*
G37*
%TD*%
%TO.C,C1*%
G36*
G01*
X80943000Y-92223000D02*
X80943000Y-91673000D01*
G75*
G02*
X81143000Y-91473000I200000J0D01*
G01*
X81543000Y-91473000D01*
G75*
G02*
X81743000Y-91673000I0J-200000D01*
G01*
X81743000Y-92223000D01*
G75*
G02*
X81543000Y-92423000I-200000J0D01*
G01*
X81143000Y-92423000D01*
G75*
G02*
X80943000Y-92223000I0J200000D01*
G01*
G37*
G36*
G01*
X79293000Y-92223000D02*
X79293000Y-91673000D01*
G75*
G02*
X79493000Y-91473000I200000J0D01*
G01*
X79893000Y-91473000D01*
G75*
G02*
X80093000Y-91673000I0J-200000D01*
G01*
X80093000Y-92223000D01*
G75*
G02*
X79893000Y-92423000I-200000J0D01*
G01*
X79493000Y-92423000D01*
G75*
G02*
X79293000Y-92223000I0J200000D01*
G01*
G37*
%TD*%
D10*
%TO.C,R1*%
X128714000Y-95377000D03*
D11*
X128714000Y-102997000D03*
%TD*%
D10*
%TO.C,U4*%
X105092000Y-95440000D03*
X120332000Y-103060000D03*
X107632000Y-95440000D03*
X117792000Y-103060000D03*
X110172000Y-95440000D03*
X115252000Y-103060000D03*
X112712000Y-95440000D03*
X112712000Y-103060000D03*
X115252000Y-95440000D03*
X110172000Y-103060000D03*
X117792000Y-95440000D03*
X107632000Y-103060000D03*
X120332000Y-95440000D03*
D12*
X105092000Y-103060000D03*
%TD*%
D10*
%TO.C,U3*%
X77914500Y-134302000D03*
X85534500Y-141922000D03*
X80454500Y-134302000D03*
X82994500Y-141922000D03*
X82994500Y-134302000D03*
X80454500Y-141922000D03*
X85534500Y-134302000D03*
D12*
X77914500Y-141922000D03*
%TD*%
D10*
%TO.C,U2*%
X79692500Y-95440000D03*
X94932500Y-103060000D03*
X82232500Y-95440000D03*
X92392500Y-103060000D03*
X84772500Y-95440000D03*
X89852500Y-103060000D03*
X87312500Y-95440000D03*
X87312500Y-103060000D03*
X89852500Y-95440000D03*
X84772500Y-103060000D03*
X92392500Y-95440000D03*
X82232500Y-103060000D03*
X94932500Y-95440000D03*
D12*
X79692500Y-103060000D03*
%TD*%
D10*
%TO.C,U1*%
X77787500Y-110744000D03*
X126047500Y-125984000D03*
X80327500Y-110744000D03*
X123507500Y-125984000D03*
X82867500Y-110744000D03*
X120967500Y-125984000D03*
X85407500Y-110744000D03*
X118427500Y-125984000D03*
X87947500Y-110744000D03*
X115887500Y-125984000D03*
X90487500Y-110744000D03*
X113347500Y-125984000D03*
X93027500Y-110744000D03*
X110807500Y-125984000D03*
X95567500Y-110744000D03*
X108267500Y-125984000D03*
X98107500Y-110744000D03*
X105727500Y-125984000D03*
X100647500Y-110744000D03*
X103187500Y-125984000D03*
X103187500Y-110744000D03*
X100647500Y-125984000D03*
X105727500Y-110744000D03*
X98107500Y-125984000D03*
X108267500Y-110744000D03*
X95567500Y-125984000D03*
X110807500Y-110744000D03*
X93027500Y-125984000D03*
X113347500Y-110744000D03*
X90487500Y-125984000D03*
X115887500Y-110744000D03*
X87947500Y-125984000D03*
X118427500Y-110744000D03*
X85407500Y-125984000D03*
X120967500Y-110744000D03*
X82867500Y-125984000D03*
X123507500Y-110744000D03*
X80327500Y-125984000D03*
X126047500Y-110744000D03*
D12*
X77787500Y-125984000D03*
%TD*%
D10*
%TO.C,Socket-1*%
X150552000Y-59297000D03*
X135312000Y-107557000D03*
X150552000Y-61837000D03*
X135312000Y-105017000D03*
X150552000Y-64377000D03*
X135312000Y-102477000D03*
X150552000Y-66917000D03*
X135312000Y-99937000D03*
X150552000Y-69457000D03*
X135312000Y-97397000D03*
X150552000Y-71997000D03*
X135312000Y-94857000D03*
X150552000Y-74537000D03*
X135312000Y-92317000D03*
X150552000Y-77077000D03*
X135312000Y-89777000D03*
X150552000Y-79617000D03*
X135312000Y-87237000D03*
X150552000Y-82157000D03*
X135312000Y-84697000D03*
X150552000Y-84697000D03*
X135312000Y-82157000D03*
X150552000Y-87237000D03*
X135312000Y-79617000D03*
X150552000Y-89777000D03*
X135312000Y-77077000D03*
X150552000Y-92317000D03*
X135312000Y-74537000D03*
X150552000Y-94857000D03*
X135312000Y-71997000D03*
X150552000Y-97397000D03*
X135312000Y-69457000D03*
X150552000Y-99937000D03*
X135312000Y-66917000D03*
X150552000Y-102477000D03*
X135312000Y-64377000D03*
X150552000Y-105017000D03*
X135312000Y-61837000D03*
X150552000Y-107557000D03*
D12*
X135312000Y-59297000D03*
%TD*%
D13*
%TO.C,J2*%
X103505000Y-140398000D03*
X103505000Y-137858000D03*
D14*
X103505000Y-135318000D03*
%TD*%
M02*
