%FSLAX45Y45*%
G04 Gerber Fmt 4.5, Leading zero omitted, Abs format (unit mm)*
G04 Created by KiCad (PCBNEW (5.1.7)-1) date 2021-07-10 09:41:06*
%MOMM*%
%LPD*%
G01*
G04 APERTURE LIST*
%TA.AperFunction,Profile*%
%ADD10C,0.050000*%
%TD*%
%ADD11C,0.200000*%
%ADD12C,0.300000*%
G04 APERTURE END LIST*
D10*
X10160000Y-8890000D02*
X11430000Y-7613650D01*
X15430500Y-5715000D02*
X15430500Y-11049000D01*
X11430000Y-5715000D02*
X15430500Y-5715000D01*
X11430000Y-7613650D02*
X11430000Y-5715000D01*
X7429500Y-8890000D02*
X10160000Y-8890000D01*
X7423150Y-14605000D02*
X7429500Y-8890000D01*
X12954000Y-14605000D02*
X7423150Y-14605000D01*
X12954000Y-11049000D02*
X12954000Y-14605000D01*
X15430500Y-11049000D02*
X12954000Y-11049000D01*
D11*
X8139750Y-10635300D02*
X8179750Y-10675300D01*
X8179750Y-10635300D02*
X8139750Y-10675300D01*
X8139750Y-11689400D02*
X8179750Y-11729400D01*
X8179750Y-11689400D02*
X8139750Y-11729400D01*
X8571550Y-12813350D02*
X8611550Y-12853350D01*
X8611550Y-12813350D02*
X8571550Y-12853350D01*
X8713540Y-9871010D02*
X8753540Y-9911010D01*
X8753540Y-9871010D02*
X8713540Y-9911010D01*
X9170210Y-11298180D02*
X9210210Y-11338180D01*
X9210210Y-11298180D02*
X9170210Y-11338180D01*
X9416100Y-9257350D02*
X9456100Y-9297350D01*
X9456100Y-9257350D02*
X9416100Y-9297350D01*
X10076350Y-10591420D02*
X10116350Y-10631420D01*
X10116350Y-10591420D02*
X10076350Y-10631420D01*
X10151090Y-9637450D02*
X10191090Y-9677450D01*
X10191090Y-9637450D02*
X10151090Y-9677450D01*
X10578400Y-9162350D02*
X10618400Y-9202350D01*
X10618400Y-9162350D02*
X10578400Y-9202350D01*
X10825800Y-13454700D02*
X10865800Y-13494700D01*
X10865800Y-13454700D02*
X10825800Y-13494700D01*
X11378200Y-10046370D02*
X11418200Y-10086370D01*
X11418200Y-10046370D02*
X11378200Y-10086370D01*
X11765600Y-10590850D02*
X11805600Y-10630850D01*
X11805600Y-10590850D02*
X11765600Y-10630850D01*
X12292650Y-10025700D02*
X12332650Y-10065700D01*
X12332650Y-10025700D02*
X12292650Y-10065700D01*
X12527600Y-11771950D02*
X12567600Y-11811950D01*
X12567600Y-11771950D02*
X12527600Y-11811950D01*
X13149900Y-6412550D02*
X13189900Y-6452550D01*
X13189900Y-6412550D02*
X13149900Y-6452550D01*
X13154790Y-9255590D02*
X13194790Y-9295590D01*
X13194790Y-9255590D02*
X13154790Y-9295590D01*
X13359390Y-6098150D02*
X13399390Y-6138150D01*
X13399390Y-6098150D02*
X13359390Y-6138150D01*
X13741390Y-9352280D02*
X13781390Y-9392280D01*
X13781390Y-9352280D02*
X13741390Y-9392280D01*
X14210350Y-6145850D02*
X14250350Y-6185850D01*
X14250350Y-6145850D02*
X14210350Y-6185850D01*
X14210350Y-6418900D02*
X14250350Y-6458900D01*
X14250350Y-6418900D02*
X14210350Y-6458900D01*
X14216700Y-5872800D02*
X14256700Y-5912800D01*
X14256700Y-5872800D02*
X14216700Y-5912800D01*
X14216700Y-6666550D02*
X14256700Y-6706550D01*
X14256700Y-6666550D02*
X14216700Y-6706550D01*
X14216700Y-6914200D02*
X14256700Y-6954200D01*
X14256700Y-6914200D02*
X14216700Y-6954200D01*
X14216700Y-7168200D02*
X14256700Y-7208200D01*
X14256700Y-7168200D02*
X14216700Y-7208200D01*
X14223050Y-7428550D02*
X14263050Y-7468550D01*
X14263050Y-7428550D02*
X14223050Y-7468550D01*
X14223050Y-7676200D02*
X14263050Y-7716200D01*
X14263050Y-7676200D02*
X14223050Y-7716200D01*
X14223050Y-7936550D02*
X14263050Y-7976550D01*
X14263050Y-7936550D02*
X14223050Y-7976550D01*
X14248450Y-9701850D02*
X14288450Y-9741850D01*
X14288450Y-9701850D02*
X14248450Y-9741850D01*
X14273850Y-10108250D02*
X14313850Y-10148250D01*
X14313850Y-10108250D02*
X14273850Y-10148250D01*
X14299250Y-10470200D02*
X14339250Y-10510200D01*
X14339250Y-10470200D02*
X14299250Y-10510200D01*
X14559600Y-8958900D02*
X14599600Y-8998900D01*
X14599600Y-8958900D02*
X14559600Y-8998900D01*
X14565950Y-8203250D02*
X14605950Y-8243250D01*
X14605950Y-8203250D02*
X14565950Y-8243250D01*
X14565950Y-8457250D02*
X14605950Y-8497250D01*
X14605950Y-8457250D02*
X14565950Y-8497250D01*
X14565950Y-8698550D02*
X14605950Y-8738550D01*
X14605950Y-8698550D02*
X14565950Y-8738550D01*
X15277150Y-10882950D02*
X15317150Y-10922950D01*
X15317150Y-10882950D02*
X15277150Y-10922950D01*
X12911400Y-9537700D02*
G75*
G03*
X12911400Y-9537700I-40000J0D01*
G01*
X12911400Y-10299700D02*
G75*
G03*
X12911400Y-10299700I-40000J0D01*
G01*
X7831450Y-13430200D02*
G75*
G03*
X7831450Y-13430200I-40000J0D01*
G01*
X7831450Y-14192200D02*
G75*
G03*
X7831450Y-14192200I-40000J0D01*
G01*
X8085450Y-13430200D02*
G75*
G03*
X8085450Y-13430200I-40000J0D01*
G01*
X8085450Y-14192200D02*
G75*
G03*
X8085450Y-14192200I-40000J0D01*
G01*
X8339450Y-13430200D02*
G75*
G03*
X8339450Y-13430200I-40000J0D01*
G01*
X8339450Y-14192200D02*
G75*
G03*
X8339450Y-14192200I-40000J0D01*
G01*
X8593450Y-13430200D02*
G75*
G03*
X8593450Y-13430200I-40000J0D01*
G01*
X8593450Y-14192200D02*
G75*
G03*
X8593450Y-14192200I-40000J0D01*
G01*
X7818750Y-11074400D02*
G75*
G03*
X7818750Y-11074400I-40000J0D01*
G01*
X7818750Y-12598400D02*
G75*
G03*
X7818750Y-12598400I-40000J0D01*
G01*
X8072750Y-11074400D02*
G75*
G03*
X8072750Y-11074400I-40000J0D01*
G01*
X8072750Y-12598400D02*
G75*
G03*
X8072750Y-12598400I-40000J0D01*
G01*
X8326750Y-11074400D02*
G75*
G03*
X8326750Y-11074400I-40000J0D01*
G01*
X8326750Y-12598400D02*
G75*
G03*
X8326750Y-12598400I-40000J0D01*
G01*
X8580750Y-11074400D02*
G75*
G03*
X8580750Y-11074400I-40000J0D01*
G01*
X8580750Y-12598400D02*
G75*
G03*
X8580750Y-12598400I-40000J0D01*
G01*
X8834750Y-11074400D02*
G75*
G03*
X8834750Y-11074400I-40000J0D01*
G01*
X8834750Y-12598400D02*
G75*
G03*
X8834750Y-12598400I-40000J0D01*
G01*
X9088750Y-11074400D02*
G75*
G03*
X9088750Y-11074400I-40000J0D01*
G01*
X9088750Y-12598400D02*
G75*
G03*
X9088750Y-12598400I-40000J0D01*
G01*
X9342750Y-11074400D02*
G75*
G03*
X9342750Y-11074400I-40000J0D01*
G01*
X9342750Y-12598400D02*
G75*
G03*
X9342750Y-12598400I-40000J0D01*
G01*
X9596750Y-11074400D02*
G75*
G03*
X9596750Y-11074400I-40000J0D01*
G01*
X9596750Y-12598400D02*
G75*
G03*
X9596750Y-12598400I-40000J0D01*
G01*
X9850750Y-11074400D02*
G75*
G03*
X9850750Y-11074400I-40000J0D01*
G01*
X9850750Y-12598400D02*
G75*
G03*
X9850750Y-12598400I-40000J0D01*
G01*
X10104750Y-11074400D02*
G75*
G03*
X10104750Y-11074400I-40000J0D01*
G01*
X10104750Y-12598400D02*
G75*
G03*
X10104750Y-12598400I-40000J0D01*
G01*
X10358750Y-11074400D02*
G75*
G03*
X10358750Y-11074400I-40000J0D01*
G01*
X10358750Y-12598400D02*
G75*
G03*
X10358750Y-12598400I-40000J0D01*
G01*
X10612750Y-11074400D02*
G75*
G03*
X10612750Y-11074400I-40000J0D01*
G01*
X10612750Y-12598400D02*
G75*
G03*
X10612750Y-12598400I-40000J0D01*
G01*
X10866750Y-11074400D02*
G75*
G03*
X10866750Y-11074400I-40000J0D01*
G01*
X10866750Y-12598400D02*
G75*
G03*
X10866750Y-12598400I-40000J0D01*
G01*
X11120750Y-11074400D02*
G75*
G03*
X11120750Y-11074400I-40000J0D01*
G01*
X11120750Y-12598400D02*
G75*
G03*
X11120750Y-12598400I-40000J0D01*
G01*
X11374750Y-11074400D02*
G75*
G03*
X11374750Y-11074400I-40000J0D01*
G01*
X11374750Y-12598400D02*
G75*
G03*
X11374750Y-12598400I-40000J0D01*
G01*
X11628750Y-11074400D02*
G75*
G03*
X11628750Y-11074400I-40000J0D01*
G01*
X11628750Y-12598400D02*
G75*
G03*
X11628750Y-12598400I-40000J0D01*
G01*
X11882750Y-11074400D02*
G75*
G03*
X11882750Y-11074400I-40000J0D01*
G01*
X11882750Y-12598400D02*
G75*
G03*
X11882750Y-12598400I-40000J0D01*
G01*
X12136750Y-11074400D02*
G75*
G03*
X12136750Y-11074400I-40000J0D01*
G01*
X12136750Y-12598400D02*
G75*
G03*
X12136750Y-12598400I-40000J0D01*
G01*
X12390750Y-11074400D02*
G75*
G03*
X12390750Y-11074400I-40000J0D01*
G01*
X12390750Y-12598400D02*
G75*
G03*
X12390750Y-12598400I-40000J0D01*
G01*
X12644750Y-11074400D02*
G75*
G03*
X12644750Y-11074400I-40000J0D01*
G01*
X12644750Y-12598400D02*
G75*
G03*
X12644750Y-12598400I-40000J0D01*
G01*
X8009250Y-9544000D02*
G75*
G03*
X8009250Y-9544000I-40000J0D01*
G01*
X8009250Y-10306000D02*
G75*
G03*
X8009250Y-10306000I-40000J0D01*
G01*
X8263250Y-9544000D02*
G75*
G03*
X8263250Y-9544000I-40000J0D01*
G01*
X8263250Y-10306000D02*
G75*
G03*
X8263250Y-10306000I-40000J0D01*
G01*
X8517250Y-9544000D02*
G75*
G03*
X8517250Y-9544000I-40000J0D01*
G01*
X8517250Y-10306000D02*
G75*
G03*
X8517250Y-10306000I-40000J0D01*
G01*
X8771250Y-9544000D02*
G75*
G03*
X8771250Y-9544000I-40000J0D01*
G01*
X8771250Y-10306000D02*
G75*
G03*
X8771250Y-10306000I-40000J0D01*
G01*
X9025250Y-9544000D02*
G75*
G03*
X9025250Y-9544000I-40000J0D01*
G01*
X9025250Y-10306000D02*
G75*
G03*
X9025250Y-10306000I-40000J0D01*
G01*
X9279250Y-9544000D02*
G75*
G03*
X9279250Y-9544000I-40000J0D01*
G01*
X9279250Y-10306000D02*
G75*
G03*
X9279250Y-10306000I-40000J0D01*
G01*
X9533250Y-9544000D02*
G75*
G03*
X9533250Y-9544000I-40000J0D01*
G01*
X9533250Y-10306000D02*
G75*
G03*
X9533250Y-10306000I-40000J0D01*
G01*
X10549200Y-9544000D02*
G75*
G03*
X10549200Y-9544000I-40000J0D01*
G01*
X10549200Y-10306000D02*
G75*
G03*
X10549200Y-10306000I-40000J0D01*
G01*
X10803200Y-9544000D02*
G75*
G03*
X10803200Y-9544000I-40000J0D01*
G01*
X10803200Y-10306000D02*
G75*
G03*
X10803200Y-10306000I-40000J0D01*
G01*
X11057200Y-9544000D02*
G75*
G03*
X11057200Y-9544000I-40000J0D01*
G01*
X11057200Y-10306000D02*
G75*
G03*
X11057200Y-10306000I-40000J0D01*
G01*
X11311200Y-9544000D02*
G75*
G03*
X11311200Y-9544000I-40000J0D01*
G01*
X11311200Y-10306000D02*
G75*
G03*
X11311200Y-10306000I-40000J0D01*
G01*
X11565200Y-9544000D02*
G75*
G03*
X11565200Y-9544000I-40000J0D01*
G01*
X11565200Y-10306000D02*
G75*
G03*
X11565200Y-10306000I-40000J0D01*
G01*
X11819200Y-9544000D02*
G75*
G03*
X11819200Y-9544000I-40000J0D01*
G01*
X11819200Y-10306000D02*
G75*
G03*
X11819200Y-10306000I-40000J0D01*
G01*
X12073200Y-9544000D02*
G75*
G03*
X12073200Y-9544000I-40000J0D01*
G01*
X12073200Y-10306000D02*
G75*
G03*
X12073200Y-10306000I-40000J0D01*
G01*
X13571200Y-5929700D02*
G75*
G03*
X13571200Y-5929700I-40000J0D01*
G01*
X13571200Y-6183700D02*
G75*
G03*
X13571200Y-6183700I-40000J0D01*
G01*
X13571200Y-6437700D02*
G75*
G03*
X13571200Y-6437700I-40000J0D01*
G01*
X13571200Y-6691700D02*
G75*
G03*
X13571200Y-6691700I-40000J0D01*
G01*
X13571200Y-6945700D02*
G75*
G03*
X13571200Y-6945700I-40000J0D01*
G01*
X13571200Y-7199700D02*
G75*
G03*
X13571200Y-7199700I-40000J0D01*
G01*
X13571200Y-7453700D02*
G75*
G03*
X13571200Y-7453700I-40000J0D01*
G01*
X13571200Y-7707700D02*
G75*
G03*
X13571200Y-7707700I-40000J0D01*
G01*
X13571200Y-7961700D02*
G75*
G03*
X13571200Y-7961700I-40000J0D01*
G01*
X13571200Y-8215700D02*
G75*
G03*
X13571200Y-8215700I-40000J0D01*
G01*
X13571200Y-8469700D02*
G75*
G03*
X13571200Y-8469700I-40000J0D01*
G01*
X13571200Y-8723700D02*
G75*
G03*
X13571200Y-8723700I-40000J0D01*
G01*
X13571200Y-8977700D02*
G75*
G03*
X13571200Y-8977700I-40000J0D01*
G01*
X13571200Y-9231700D02*
G75*
G03*
X13571200Y-9231700I-40000J0D01*
G01*
X13571200Y-9485700D02*
G75*
G03*
X13571200Y-9485700I-40000J0D01*
G01*
X13571200Y-9739700D02*
G75*
G03*
X13571200Y-9739700I-40000J0D01*
G01*
X13571200Y-9993700D02*
G75*
G03*
X13571200Y-9993700I-40000J0D01*
G01*
X13571200Y-10247700D02*
G75*
G03*
X13571200Y-10247700I-40000J0D01*
G01*
X13571200Y-10501700D02*
G75*
G03*
X13571200Y-10501700I-40000J0D01*
G01*
X13571200Y-10755700D02*
G75*
G03*
X13571200Y-10755700I-40000J0D01*
G01*
X15095200Y-5929700D02*
G75*
G03*
X15095200Y-5929700I-40000J0D01*
G01*
X15095200Y-6183700D02*
G75*
G03*
X15095200Y-6183700I-40000J0D01*
G01*
X15095200Y-6437700D02*
G75*
G03*
X15095200Y-6437700I-40000J0D01*
G01*
X15095200Y-6691700D02*
G75*
G03*
X15095200Y-6691700I-40000J0D01*
G01*
X15095200Y-6945700D02*
G75*
G03*
X15095200Y-6945700I-40000J0D01*
G01*
X15095200Y-7199700D02*
G75*
G03*
X15095200Y-7199700I-40000J0D01*
G01*
X15095200Y-7453700D02*
G75*
G03*
X15095200Y-7453700I-40000J0D01*
G01*
X15095200Y-7707700D02*
G75*
G03*
X15095200Y-7707700I-40000J0D01*
G01*
X15095200Y-7961700D02*
G75*
G03*
X15095200Y-7961700I-40000J0D01*
G01*
X15095200Y-8215700D02*
G75*
G03*
X15095200Y-8215700I-40000J0D01*
G01*
X15095200Y-8469700D02*
G75*
G03*
X15095200Y-8469700I-40000J0D01*
G01*
X15095200Y-8723700D02*
G75*
G03*
X15095200Y-8723700I-40000J0D01*
G01*
X15095200Y-8977700D02*
G75*
G03*
X15095200Y-8977700I-40000J0D01*
G01*
X15095200Y-9231700D02*
G75*
G03*
X15095200Y-9231700I-40000J0D01*
G01*
X15095200Y-9485700D02*
G75*
G03*
X15095200Y-9485700I-40000J0D01*
G01*
X15095200Y-9739700D02*
G75*
G03*
X15095200Y-9739700I-40000J0D01*
G01*
X15095200Y-9993700D02*
G75*
G03*
X15095200Y-9993700I-40000J0D01*
G01*
X15095200Y-10247700D02*
G75*
G03*
X15095200Y-10247700I-40000J0D01*
G01*
X15095200Y-10501700D02*
G75*
G03*
X15095200Y-10501700I-40000J0D01*
G01*
X15095200Y-10755700D02*
G75*
G03*
X15095200Y-10755700I-40000J0D01*
G01*
X10350500Y-13481800D02*
X10350500Y-13581800D01*
X10300500Y-13531800D02*
X10400500Y-13531800D01*
X10350500Y-13735800D02*
X10350500Y-13835800D01*
X10300500Y-13785800D02*
X10400500Y-13785800D01*
X10350500Y-13989800D02*
X10350500Y-14089800D01*
X10300500Y-14039800D02*
X10400500Y-14039800D01*
D12*
X7707078Y-15073214D02*
X7707078Y-14773214D01*
X7778507Y-14773214D01*
X7821364Y-14787500D01*
X7849936Y-14816071D01*
X7864221Y-14844643D01*
X7878507Y-14901786D01*
X7878507Y-14944643D01*
X7864221Y-15001786D01*
X7849936Y-15030357D01*
X7821364Y-15058929D01*
X7778507Y-15073214D01*
X7707078Y-15073214D01*
X8007078Y-15073214D02*
X8007078Y-14873214D01*
X8007078Y-14930357D02*
X8021364Y-14901786D01*
X8035650Y-14887500D01*
X8064221Y-14873214D01*
X8092793Y-14873214D01*
X8192793Y-15073214D02*
X8192793Y-14873214D01*
X8192793Y-14773214D02*
X8178507Y-14787500D01*
X8192793Y-14801786D01*
X8207078Y-14787500D01*
X8192793Y-14773214D01*
X8192793Y-14801786D01*
X8378507Y-15073214D02*
X8349936Y-15058929D01*
X8335650Y-15030357D01*
X8335650Y-14773214D01*
X8535650Y-15073214D02*
X8507078Y-15058929D01*
X8492793Y-15030357D01*
X8492793Y-14773214D01*
X8878507Y-15073214D02*
X8878507Y-14773214D01*
X8978507Y-14987500D01*
X9078507Y-14773214D01*
X9078507Y-15073214D01*
X9349936Y-15073214D02*
X9349936Y-14916071D01*
X9335650Y-14887500D01*
X9307078Y-14873214D01*
X9249936Y-14873214D01*
X9221364Y-14887500D01*
X9349936Y-15058929D02*
X9321364Y-15073214D01*
X9249936Y-15073214D01*
X9221364Y-15058929D01*
X9207078Y-15030357D01*
X9207078Y-15001786D01*
X9221364Y-14973214D01*
X9249936Y-14958929D01*
X9321364Y-14958929D01*
X9349936Y-14944643D01*
X9492793Y-14873214D02*
X9492793Y-15173214D01*
X9492793Y-14887500D02*
X9521364Y-14873214D01*
X9578507Y-14873214D01*
X9607078Y-14887500D01*
X9621364Y-14901786D01*
X9635650Y-14930357D01*
X9635650Y-15016071D01*
X9621364Y-15044643D01*
X9607078Y-15058929D01*
X9578507Y-15073214D01*
X9521364Y-15073214D01*
X9492793Y-15058929D01*
X9764221Y-15044643D02*
X9778507Y-15058929D01*
X9764221Y-15073214D01*
X9749936Y-15058929D01*
X9764221Y-15044643D01*
X9764221Y-15073214D01*
X9764221Y-14887500D02*
X9778507Y-14901786D01*
X9764221Y-14916071D01*
X9749936Y-14901786D01*
X9764221Y-14887500D01*
X9764221Y-14916071D01*
X7380650Y-15547500D02*
X7420650Y-15587500D01*
X7420650Y-15547500D02*
X7380650Y-15587500D01*
X7764221Y-15403214D02*
X7792793Y-15403214D01*
X7821364Y-15417500D01*
X7835650Y-15431786D01*
X7849936Y-15460357D01*
X7864221Y-15517500D01*
X7864221Y-15588929D01*
X7849936Y-15646071D01*
X7835650Y-15674643D01*
X7821364Y-15688929D01*
X7792793Y-15703214D01*
X7764221Y-15703214D01*
X7735650Y-15688929D01*
X7721364Y-15674643D01*
X7707078Y-15646071D01*
X7692793Y-15588929D01*
X7692793Y-15517500D01*
X7707078Y-15460357D01*
X7721364Y-15431786D01*
X7735650Y-15417500D01*
X7764221Y-15403214D01*
X7992793Y-15674643D02*
X8007078Y-15688929D01*
X7992793Y-15703214D01*
X7978507Y-15688929D01*
X7992793Y-15674643D01*
X7992793Y-15703214D01*
X8264221Y-15503214D02*
X8264221Y-15703214D01*
X8192793Y-15388929D02*
X8121364Y-15603214D01*
X8307078Y-15603214D01*
X8478507Y-15403214D02*
X8507078Y-15403214D01*
X8535650Y-15417500D01*
X8549936Y-15431786D01*
X8564221Y-15460357D01*
X8578507Y-15517500D01*
X8578507Y-15588929D01*
X8564221Y-15646071D01*
X8549936Y-15674643D01*
X8535650Y-15688929D01*
X8507078Y-15703214D01*
X8478507Y-15703214D01*
X8449936Y-15688929D01*
X8435650Y-15674643D01*
X8421364Y-15646071D01*
X8407078Y-15588929D01*
X8407078Y-15517500D01*
X8421364Y-15460357D01*
X8435650Y-15431786D01*
X8449936Y-15417500D01*
X8478507Y-15403214D01*
X8707078Y-15703214D02*
X8707078Y-15503214D01*
X8707078Y-15531786D02*
X8721364Y-15517500D01*
X8749936Y-15503214D01*
X8792793Y-15503214D01*
X8821364Y-15517500D01*
X8835650Y-15546071D01*
X8835650Y-15703214D01*
X8835650Y-15546071D02*
X8849936Y-15517500D01*
X8878507Y-15503214D01*
X8921364Y-15503214D01*
X8949936Y-15517500D01*
X8964221Y-15546071D01*
X8964221Y-15703214D01*
X9107078Y-15703214D02*
X9107078Y-15503214D01*
X9107078Y-15531786D02*
X9121364Y-15517500D01*
X9149936Y-15503214D01*
X9192793Y-15503214D01*
X9221364Y-15517500D01*
X9235650Y-15546071D01*
X9235650Y-15703214D01*
X9235650Y-15546071D02*
X9249936Y-15517500D01*
X9278507Y-15503214D01*
X9321364Y-15503214D01*
X9349936Y-15517500D01*
X9364221Y-15546071D01*
X9364221Y-15703214D01*
X9949936Y-15388929D02*
X9692793Y-15774643D01*
X10335650Y-15403214D02*
X10364221Y-15403214D01*
X10392793Y-15417500D01*
X10407078Y-15431786D01*
X10421364Y-15460357D01*
X10435650Y-15517500D01*
X10435650Y-15588929D01*
X10421364Y-15646071D01*
X10407078Y-15674643D01*
X10392793Y-15688929D01*
X10364221Y-15703214D01*
X10335650Y-15703214D01*
X10307078Y-15688929D01*
X10292793Y-15674643D01*
X10278507Y-15646071D01*
X10264221Y-15588929D01*
X10264221Y-15517500D01*
X10278507Y-15460357D01*
X10292793Y-15431786D01*
X10307078Y-15417500D01*
X10335650Y-15403214D01*
X10564221Y-15674643D02*
X10578507Y-15688929D01*
X10564221Y-15703214D01*
X10549936Y-15688929D01*
X10564221Y-15674643D01*
X10564221Y-15703214D01*
X10764221Y-15403214D02*
X10792793Y-15403214D01*
X10821364Y-15417500D01*
X10835650Y-15431786D01*
X10849936Y-15460357D01*
X10864221Y-15517500D01*
X10864221Y-15588929D01*
X10849936Y-15646071D01*
X10835650Y-15674643D01*
X10821364Y-15688929D01*
X10792793Y-15703214D01*
X10764221Y-15703214D01*
X10735650Y-15688929D01*
X10721364Y-15674643D01*
X10707078Y-15646071D01*
X10692793Y-15588929D01*
X10692793Y-15517500D01*
X10707078Y-15460357D01*
X10721364Y-15431786D01*
X10735650Y-15417500D01*
X10764221Y-15403214D01*
X11149936Y-15703214D02*
X10978507Y-15703214D01*
X11064221Y-15703214D02*
X11064221Y-15403214D01*
X11035650Y-15446071D01*
X11007078Y-15474643D01*
X10978507Y-15488929D01*
X11407078Y-15403214D02*
X11349936Y-15403214D01*
X11321364Y-15417500D01*
X11307078Y-15431786D01*
X11278507Y-15474643D01*
X11264221Y-15531786D01*
X11264221Y-15646071D01*
X11278507Y-15674643D01*
X11292793Y-15688929D01*
X11321364Y-15703214D01*
X11378507Y-15703214D01*
X11407078Y-15688929D01*
X11421364Y-15674643D01*
X11435650Y-15646071D01*
X11435650Y-15574643D01*
X11421364Y-15546071D01*
X11407078Y-15531786D01*
X11378507Y-15517500D01*
X11321364Y-15517500D01*
X11292793Y-15531786D01*
X11278507Y-15546071D01*
X11264221Y-15574643D01*
X11549936Y-15403214D02*
X11549936Y-15460357D01*
X11664221Y-15403214D02*
X11664221Y-15460357D01*
X12107078Y-15817500D02*
X12092793Y-15803214D01*
X12064221Y-15760357D01*
X12049936Y-15731786D01*
X12035650Y-15688929D01*
X12021364Y-15617500D01*
X12021364Y-15560357D01*
X12035650Y-15488929D01*
X12049936Y-15446071D01*
X12064221Y-15417500D01*
X12092793Y-15374643D01*
X12107078Y-15360357D01*
X12192793Y-15403214D02*
X12378507Y-15403214D01*
X12278507Y-15517500D01*
X12321364Y-15517500D01*
X12349936Y-15531786D01*
X12364221Y-15546071D01*
X12378507Y-15574643D01*
X12378507Y-15646071D01*
X12364221Y-15674643D01*
X12349936Y-15688929D01*
X12321364Y-15703214D01*
X12235650Y-15703214D01*
X12207078Y-15688929D01*
X12192793Y-15674643D01*
X12649936Y-15403214D02*
X12507078Y-15403214D01*
X12492793Y-15546071D01*
X12507078Y-15531786D01*
X12535650Y-15517500D01*
X12607078Y-15517500D01*
X12635650Y-15531786D01*
X12649936Y-15546071D01*
X12664221Y-15574643D01*
X12664221Y-15646071D01*
X12649936Y-15674643D01*
X12635650Y-15688929D01*
X12607078Y-15703214D01*
X12535650Y-15703214D01*
X12507078Y-15688929D01*
X12492793Y-15674643D01*
X13021364Y-15703214D02*
X13021364Y-15403214D01*
X13149936Y-15703214D02*
X13149936Y-15546071D01*
X13135650Y-15517500D01*
X13107078Y-15503214D01*
X13064221Y-15503214D01*
X13035650Y-15517500D01*
X13021364Y-15531786D01*
X13335650Y-15703214D02*
X13307078Y-15688929D01*
X13292793Y-15674643D01*
X13278507Y-15646071D01*
X13278507Y-15560357D01*
X13292793Y-15531786D01*
X13307078Y-15517500D01*
X13335650Y-15503214D01*
X13378507Y-15503214D01*
X13407078Y-15517500D01*
X13421364Y-15531786D01*
X13435650Y-15560357D01*
X13435650Y-15646071D01*
X13421364Y-15674643D01*
X13407078Y-15688929D01*
X13378507Y-15703214D01*
X13335650Y-15703214D01*
X13607078Y-15703214D02*
X13578507Y-15688929D01*
X13564221Y-15660357D01*
X13564221Y-15403214D01*
X13835650Y-15688929D02*
X13807078Y-15703214D01*
X13749936Y-15703214D01*
X13721364Y-15688929D01*
X13707078Y-15660357D01*
X13707078Y-15546071D01*
X13721364Y-15517500D01*
X13749936Y-15503214D01*
X13807078Y-15503214D01*
X13835650Y-15517500D01*
X13849936Y-15546071D01*
X13849936Y-15574643D01*
X13707078Y-15603214D01*
X13964221Y-15688929D02*
X13992793Y-15703214D01*
X14049936Y-15703214D01*
X14078507Y-15688929D01*
X14092793Y-15660357D01*
X14092793Y-15646071D01*
X14078507Y-15617500D01*
X14049936Y-15603214D01*
X14007078Y-15603214D01*
X13978507Y-15588929D01*
X13964221Y-15560357D01*
X13964221Y-15546071D01*
X13978507Y-15517500D01*
X14007078Y-15503214D01*
X14049936Y-15503214D01*
X14078507Y-15517500D01*
X14192793Y-15817500D02*
X14207078Y-15803214D01*
X14235650Y-15760357D01*
X14249936Y-15731786D01*
X14264221Y-15688929D01*
X14278507Y-15617500D01*
X14278507Y-15560357D01*
X14264221Y-15488929D01*
X14249936Y-15446071D01*
X14235650Y-15417500D01*
X14207078Y-15374643D01*
X14192793Y-15360357D01*
X7420650Y-15963500D02*
G75*
G03*
X7420650Y-15963500I-40000J0D01*
G01*
X7764221Y-15799214D02*
X7792793Y-15799214D01*
X7821364Y-15813500D01*
X7835650Y-15827786D01*
X7849936Y-15856357D01*
X7864221Y-15913500D01*
X7864221Y-15984929D01*
X7849936Y-16042071D01*
X7835650Y-16070643D01*
X7821364Y-16084929D01*
X7792793Y-16099214D01*
X7764221Y-16099214D01*
X7735650Y-16084929D01*
X7721364Y-16070643D01*
X7707078Y-16042071D01*
X7692793Y-15984929D01*
X7692793Y-15913500D01*
X7707078Y-15856357D01*
X7721364Y-15827786D01*
X7735650Y-15813500D01*
X7764221Y-15799214D01*
X7992793Y-16070643D02*
X8007078Y-16084929D01*
X7992793Y-16099214D01*
X7978507Y-16084929D01*
X7992793Y-16070643D01*
X7992793Y-16099214D01*
X8178507Y-15927786D02*
X8149936Y-15913500D01*
X8135650Y-15899214D01*
X8121364Y-15870643D01*
X8121364Y-15856357D01*
X8135650Y-15827786D01*
X8149936Y-15813500D01*
X8178507Y-15799214D01*
X8235650Y-15799214D01*
X8264221Y-15813500D01*
X8278507Y-15827786D01*
X8292793Y-15856357D01*
X8292793Y-15870643D01*
X8278507Y-15899214D01*
X8264221Y-15913500D01*
X8235650Y-15927786D01*
X8178507Y-15927786D01*
X8149936Y-15942071D01*
X8135650Y-15956357D01*
X8121364Y-15984929D01*
X8121364Y-16042071D01*
X8135650Y-16070643D01*
X8149936Y-16084929D01*
X8178507Y-16099214D01*
X8235650Y-16099214D01*
X8264221Y-16084929D01*
X8278507Y-16070643D01*
X8292793Y-16042071D01*
X8292793Y-15984929D01*
X8278507Y-15956357D01*
X8264221Y-15942071D01*
X8235650Y-15927786D01*
X8478507Y-15799214D02*
X8507078Y-15799214D01*
X8535650Y-15813500D01*
X8549936Y-15827786D01*
X8564221Y-15856357D01*
X8578507Y-15913500D01*
X8578507Y-15984929D01*
X8564221Y-16042071D01*
X8549936Y-16070643D01*
X8535650Y-16084929D01*
X8507078Y-16099214D01*
X8478507Y-16099214D01*
X8449936Y-16084929D01*
X8435650Y-16070643D01*
X8421364Y-16042071D01*
X8407078Y-15984929D01*
X8407078Y-15913500D01*
X8421364Y-15856357D01*
X8435650Y-15827786D01*
X8449936Y-15813500D01*
X8478507Y-15799214D01*
X8707078Y-16099214D02*
X8707078Y-15899214D01*
X8707078Y-15927786D02*
X8721364Y-15913500D01*
X8749936Y-15899214D01*
X8792793Y-15899214D01*
X8821364Y-15913500D01*
X8835650Y-15942071D01*
X8835650Y-16099214D01*
X8835650Y-15942071D02*
X8849936Y-15913500D01*
X8878507Y-15899214D01*
X8921364Y-15899214D01*
X8949936Y-15913500D01*
X8964221Y-15942071D01*
X8964221Y-16099214D01*
X9107078Y-16099214D02*
X9107078Y-15899214D01*
X9107078Y-15927786D02*
X9121364Y-15913500D01*
X9149936Y-15899214D01*
X9192793Y-15899214D01*
X9221364Y-15913500D01*
X9235650Y-15942071D01*
X9235650Y-16099214D01*
X9235650Y-15942071D02*
X9249936Y-15913500D01*
X9278507Y-15899214D01*
X9321364Y-15899214D01*
X9349936Y-15913500D01*
X9364221Y-15942071D01*
X9364221Y-16099214D01*
X9949936Y-15784929D02*
X9692793Y-16170643D01*
X10335650Y-15799214D02*
X10364221Y-15799214D01*
X10392793Y-15813500D01*
X10407078Y-15827786D01*
X10421364Y-15856357D01*
X10435650Y-15913500D01*
X10435650Y-15984929D01*
X10421364Y-16042071D01*
X10407078Y-16070643D01*
X10392793Y-16084929D01*
X10364221Y-16099214D01*
X10335650Y-16099214D01*
X10307078Y-16084929D01*
X10292793Y-16070643D01*
X10278507Y-16042071D01*
X10264221Y-15984929D01*
X10264221Y-15913500D01*
X10278507Y-15856357D01*
X10292793Y-15827786D01*
X10307078Y-15813500D01*
X10335650Y-15799214D01*
X10564221Y-16070643D02*
X10578507Y-16084929D01*
X10564221Y-16099214D01*
X10549936Y-16084929D01*
X10564221Y-16070643D01*
X10564221Y-16099214D01*
X10764221Y-15799214D02*
X10792793Y-15799214D01*
X10821364Y-15813500D01*
X10835650Y-15827786D01*
X10849936Y-15856357D01*
X10864221Y-15913500D01*
X10864221Y-15984929D01*
X10849936Y-16042071D01*
X10835650Y-16070643D01*
X10821364Y-16084929D01*
X10792793Y-16099214D01*
X10764221Y-16099214D01*
X10735650Y-16084929D01*
X10721364Y-16070643D01*
X10707078Y-16042071D01*
X10692793Y-15984929D01*
X10692793Y-15913500D01*
X10707078Y-15856357D01*
X10721364Y-15827786D01*
X10735650Y-15813500D01*
X10764221Y-15799214D01*
X10964221Y-15799214D02*
X11149936Y-15799214D01*
X11049936Y-15913500D01*
X11092793Y-15913500D01*
X11121364Y-15927786D01*
X11135650Y-15942071D01*
X11149936Y-15970643D01*
X11149936Y-16042071D01*
X11135650Y-16070643D01*
X11121364Y-16084929D01*
X11092793Y-16099214D01*
X11007078Y-16099214D01*
X10978507Y-16084929D01*
X10964221Y-16070643D01*
X11435650Y-16099214D02*
X11264221Y-16099214D01*
X11349936Y-16099214D02*
X11349936Y-15799214D01*
X11321364Y-15842071D01*
X11292793Y-15870643D01*
X11264221Y-15884929D01*
X11549936Y-15799214D02*
X11549936Y-15856357D01*
X11664221Y-15799214D02*
X11664221Y-15856357D01*
X12107078Y-16213500D02*
X12092793Y-16199214D01*
X12064221Y-16156357D01*
X12049936Y-16127786D01*
X12035650Y-16084929D01*
X12021364Y-16013500D01*
X12021364Y-15956357D01*
X12035650Y-15884929D01*
X12049936Y-15842071D01*
X12064221Y-15813500D01*
X12092793Y-15770643D01*
X12107078Y-15756357D01*
X12378507Y-16099214D02*
X12207078Y-16099214D01*
X12292793Y-16099214D02*
X12292793Y-15799214D01*
X12264221Y-15842071D01*
X12235650Y-15870643D01*
X12207078Y-15884929D01*
X12664221Y-16099214D02*
X12492793Y-16099214D01*
X12578507Y-16099214D02*
X12578507Y-15799214D01*
X12549936Y-15842071D01*
X12521364Y-15870643D01*
X12492793Y-15884929D01*
X12835650Y-15927786D02*
X12807078Y-15913500D01*
X12792793Y-15899214D01*
X12778507Y-15870643D01*
X12778507Y-15856357D01*
X12792793Y-15827786D01*
X12807078Y-15813500D01*
X12835650Y-15799214D01*
X12892793Y-15799214D01*
X12921364Y-15813500D01*
X12935650Y-15827786D01*
X12949936Y-15856357D01*
X12949936Y-15870643D01*
X12935650Y-15899214D01*
X12921364Y-15913500D01*
X12892793Y-15927786D01*
X12835650Y-15927786D01*
X12807078Y-15942071D01*
X12792793Y-15956357D01*
X12778507Y-15984929D01*
X12778507Y-16042071D01*
X12792793Y-16070643D01*
X12807078Y-16084929D01*
X12835650Y-16099214D01*
X12892793Y-16099214D01*
X12921364Y-16084929D01*
X12935650Y-16070643D01*
X12949936Y-16042071D01*
X12949936Y-15984929D01*
X12935650Y-15956357D01*
X12921364Y-15942071D01*
X12892793Y-15927786D01*
X13307078Y-16099214D02*
X13307078Y-15799214D01*
X13435650Y-16099214D02*
X13435650Y-15942071D01*
X13421364Y-15913500D01*
X13392793Y-15899214D01*
X13349936Y-15899214D01*
X13321364Y-15913500D01*
X13307078Y-15927786D01*
X13621364Y-16099214D02*
X13592793Y-16084929D01*
X13578507Y-16070643D01*
X13564221Y-16042071D01*
X13564221Y-15956357D01*
X13578507Y-15927786D01*
X13592793Y-15913500D01*
X13621364Y-15899214D01*
X13664221Y-15899214D01*
X13692793Y-15913500D01*
X13707078Y-15927786D01*
X13721364Y-15956357D01*
X13721364Y-16042071D01*
X13707078Y-16070643D01*
X13692793Y-16084929D01*
X13664221Y-16099214D01*
X13621364Y-16099214D01*
X13892793Y-16099214D02*
X13864221Y-16084929D01*
X13849936Y-16056357D01*
X13849936Y-15799214D01*
X14121364Y-16084929D02*
X14092793Y-16099214D01*
X14035650Y-16099214D01*
X14007078Y-16084929D01*
X13992793Y-16056357D01*
X13992793Y-15942071D01*
X14007078Y-15913500D01*
X14035650Y-15899214D01*
X14092793Y-15899214D01*
X14121364Y-15913500D01*
X14135650Y-15942071D01*
X14135650Y-15970643D01*
X13992793Y-15999214D01*
X14249936Y-16084929D02*
X14278507Y-16099214D01*
X14335650Y-16099214D01*
X14364221Y-16084929D01*
X14378507Y-16056357D01*
X14378507Y-16042071D01*
X14364221Y-16013500D01*
X14335650Y-15999214D01*
X14292793Y-15999214D01*
X14264221Y-15984929D01*
X14249936Y-15956357D01*
X14249936Y-15942071D01*
X14264221Y-15913500D01*
X14292793Y-15899214D01*
X14335650Y-15899214D01*
X14364221Y-15913500D01*
X14478507Y-16213500D02*
X14492793Y-16199214D01*
X14521364Y-16156357D01*
X14535650Y-16127786D01*
X14549936Y-16084929D01*
X14564221Y-16013500D01*
X14564221Y-15956357D01*
X14549936Y-15884929D01*
X14535650Y-15842071D01*
X14521364Y-15813500D01*
X14492793Y-15770643D01*
X14478507Y-15756357D01*
X7370650Y-16309500D02*
X7370650Y-16409500D01*
X7320650Y-16359500D02*
X7420650Y-16359500D01*
X7864221Y-16495214D02*
X7692793Y-16495214D01*
X7778507Y-16495214D02*
X7778507Y-16195214D01*
X7749936Y-16238071D01*
X7721364Y-16266643D01*
X7692793Y-16280929D01*
X7992793Y-16466643D02*
X8007078Y-16480929D01*
X7992793Y-16495214D01*
X7978507Y-16480929D01*
X7992793Y-16466643D01*
X7992793Y-16495214D01*
X8192793Y-16195214D02*
X8221364Y-16195214D01*
X8249936Y-16209500D01*
X8264221Y-16223786D01*
X8278507Y-16252357D01*
X8292793Y-16309500D01*
X8292793Y-16380929D01*
X8278507Y-16438071D01*
X8264221Y-16466643D01*
X8249936Y-16480929D01*
X8221364Y-16495214D01*
X8192793Y-16495214D01*
X8164221Y-16480929D01*
X8149936Y-16466643D01*
X8135650Y-16438071D01*
X8121364Y-16380929D01*
X8121364Y-16309500D01*
X8135650Y-16252357D01*
X8149936Y-16223786D01*
X8164221Y-16209500D01*
X8192793Y-16195214D01*
X8478507Y-16195214D02*
X8507078Y-16195214D01*
X8535650Y-16209500D01*
X8549936Y-16223786D01*
X8564221Y-16252357D01*
X8578507Y-16309500D01*
X8578507Y-16380929D01*
X8564221Y-16438071D01*
X8549936Y-16466643D01*
X8535650Y-16480929D01*
X8507078Y-16495214D01*
X8478507Y-16495214D01*
X8449936Y-16480929D01*
X8435650Y-16466643D01*
X8421364Y-16438071D01*
X8407078Y-16380929D01*
X8407078Y-16309500D01*
X8421364Y-16252357D01*
X8435650Y-16223786D01*
X8449936Y-16209500D01*
X8478507Y-16195214D01*
X8707078Y-16495214D02*
X8707078Y-16295214D01*
X8707078Y-16323786D02*
X8721364Y-16309500D01*
X8749936Y-16295214D01*
X8792793Y-16295214D01*
X8821364Y-16309500D01*
X8835650Y-16338071D01*
X8835650Y-16495214D01*
X8835650Y-16338071D02*
X8849936Y-16309500D01*
X8878507Y-16295214D01*
X8921364Y-16295214D01*
X8949936Y-16309500D01*
X8964221Y-16338071D01*
X8964221Y-16495214D01*
X9107078Y-16495214D02*
X9107078Y-16295214D01*
X9107078Y-16323786D02*
X9121364Y-16309500D01*
X9149936Y-16295214D01*
X9192793Y-16295214D01*
X9221364Y-16309500D01*
X9235650Y-16338071D01*
X9235650Y-16495214D01*
X9235650Y-16338071D02*
X9249936Y-16309500D01*
X9278507Y-16295214D01*
X9321364Y-16295214D01*
X9349936Y-16309500D01*
X9364221Y-16338071D01*
X9364221Y-16495214D01*
X9949936Y-16180929D02*
X9692793Y-16566643D01*
X10335650Y-16195214D02*
X10364221Y-16195214D01*
X10392793Y-16209500D01*
X10407078Y-16223786D01*
X10421364Y-16252357D01*
X10435650Y-16309500D01*
X10435650Y-16380929D01*
X10421364Y-16438071D01*
X10407078Y-16466643D01*
X10392793Y-16480929D01*
X10364221Y-16495214D01*
X10335650Y-16495214D01*
X10307078Y-16480929D01*
X10292793Y-16466643D01*
X10278507Y-16438071D01*
X10264221Y-16380929D01*
X10264221Y-16309500D01*
X10278507Y-16252357D01*
X10292793Y-16223786D01*
X10307078Y-16209500D01*
X10335650Y-16195214D01*
X10564221Y-16466643D02*
X10578507Y-16480929D01*
X10564221Y-16495214D01*
X10549936Y-16480929D01*
X10564221Y-16466643D01*
X10564221Y-16495214D01*
X10764221Y-16195214D02*
X10792793Y-16195214D01*
X10821364Y-16209500D01*
X10835650Y-16223786D01*
X10849936Y-16252357D01*
X10864221Y-16309500D01*
X10864221Y-16380929D01*
X10849936Y-16438071D01*
X10835650Y-16466643D01*
X10821364Y-16480929D01*
X10792793Y-16495214D01*
X10764221Y-16495214D01*
X10735650Y-16480929D01*
X10721364Y-16466643D01*
X10707078Y-16438071D01*
X10692793Y-16380929D01*
X10692793Y-16309500D01*
X10707078Y-16252357D01*
X10721364Y-16223786D01*
X10735650Y-16209500D01*
X10764221Y-16195214D01*
X10964221Y-16195214D02*
X11149936Y-16195214D01*
X11049936Y-16309500D01*
X11092793Y-16309500D01*
X11121364Y-16323786D01*
X11135650Y-16338071D01*
X11149936Y-16366643D01*
X11149936Y-16438071D01*
X11135650Y-16466643D01*
X11121364Y-16480929D01*
X11092793Y-16495214D01*
X11007078Y-16495214D01*
X10978507Y-16480929D01*
X10964221Y-16466643D01*
X11292793Y-16495214D02*
X11349936Y-16495214D01*
X11378507Y-16480929D01*
X11392793Y-16466643D01*
X11421364Y-16423786D01*
X11435650Y-16366643D01*
X11435650Y-16252357D01*
X11421364Y-16223786D01*
X11407078Y-16209500D01*
X11378507Y-16195214D01*
X11321364Y-16195214D01*
X11292793Y-16209500D01*
X11278507Y-16223786D01*
X11264221Y-16252357D01*
X11264221Y-16323786D01*
X11278507Y-16352357D01*
X11292793Y-16366643D01*
X11321364Y-16380929D01*
X11378507Y-16380929D01*
X11407078Y-16366643D01*
X11421364Y-16352357D01*
X11435650Y-16323786D01*
X11549936Y-16195214D02*
X11549936Y-16252357D01*
X11664221Y-16195214D02*
X11664221Y-16252357D01*
X12107078Y-16609500D02*
X12092793Y-16595214D01*
X12064221Y-16552357D01*
X12049936Y-16523786D01*
X12035650Y-16480929D01*
X12021364Y-16409500D01*
X12021364Y-16352357D01*
X12035650Y-16280929D01*
X12049936Y-16238071D01*
X12064221Y-16209500D01*
X12092793Y-16166643D01*
X12107078Y-16152357D01*
X12192793Y-16195214D02*
X12378507Y-16195214D01*
X12278507Y-16309500D01*
X12321364Y-16309500D01*
X12349936Y-16323786D01*
X12364221Y-16338071D01*
X12378507Y-16366643D01*
X12378507Y-16438071D01*
X12364221Y-16466643D01*
X12349936Y-16480929D01*
X12321364Y-16495214D01*
X12235650Y-16495214D01*
X12207078Y-16480929D01*
X12192793Y-16466643D01*
X12735650Y-16495214D02*
X12735650Y-16195214D01*
X12864221Y-16495214D02*
X12864221Y-16338071D01*
X12849936Y-16309500D01*
X12821364Y-16295214D01*
X12778507Y-16295214D01*
X12749936Y-16309500D01*
X12735650Y-16323786D01*
X13049936Y-16495214D02*
X13021364Y-16480929D01*
X13007078Y-16466643D01*
X12992793Y-16438071D01*
X12992793Y-16352357D01*
X13007078Y-16323786D01*
X13021364Y-16309500D01*
X13049936Y-16295214D01*
X13092793Y-16295214D01*
X13121364Y-16309500D01*
X13135650Y-16323786D01*
X13149936Y-16352357D01*
X13149936Y-16438071D01*
X13135650Y-16466643D01*
X13121364Y-16480929D01*
X13092793Y-16495214D01*
X13049936Y-16495214D01*
X13321364Y-16495214D02*
X13292793Y-16480929D01*
X13278507Y-16452357D01*
X13278507Y-16195214D01*
X13549936Y-16480929D02*
X13521364Y-16495214D01*
X13464221Y-16495214D01*
X13435650Y-16480929D01*
X13421364Y-16452357D01*
X13421364Y-16338071D01*
X13435650Y-16309500D01*
X13464221Y-16295214D01*
X13521364Y-16295214D01*
X13549936Y-16309500D01*
X13564221Y-16338071D01*
X13564221Y-16366643D01*
X13421364Y-16395214D01*
X13678507Y-16480929D02*
X13707078Y-16495214D01*
X13764221Y-16495214D01*
X13792793Y-16480929D01*
X13807078Y-16452357D01*
X13807078Y-16438071D01*
X13792793Y-16409500D01*
X13764221Y-16395214D01*
X13721364Y-16395214D01*
X13692793Y-16380929D01*
X13678507Y-16352357D01*
X13678507Y-16338071D01*
X13692793Y-16309500D01*
X13721364Y-16295214D01*
X13764221Y-16295214D01*
X13792793Y-16309500D01*
X13907078Y-16609500D02*
X13921364Y-16595214D01*
X13949936Y-16552357D01*
X13964221Y-16523786D01*
X13978507Y-16480929D01*
X13992793Y-16409500D01*
X13992793Y-16352357D01*
X13978507Y-16280929D01*
X13964221Y-16238071D01*
X13949936Y-16209500D01*
X13921364Y-16166643D01*
X13907078Y-16152357D01*
M02*
